<?xml version="1.0" standalone="no"?>
<!DOCTYPE svg PUBLIC "-//W3C//DTD SVG 1.1//EN" "http://www.w3.org/Graphics/SVG/1.1/DTD/svg11.dtd" >
<svg>
<metadata>
Created by FontForge 20120731 at Fri Jul  5 18:18:09 2019
 By www-data
Copyright (c) 2018 by Stefano Giliberti (brumale). All rights reserved.
</metadata>
<defs>
<font id="Animosa-ExtraLight" horiz-adv-x="534" >
  <font-face 
    font-family="Animosa Extra Light"
    font-weight="250"
    font-stretch="normal"
    units-per-em="1000"
    panose-1="0 0 3 0 0 0 0 0 0 0"
    ascent="800"
    descent="-200"
    x-height="523"
    cap-height="700"
    bbox="-64 -302 1081 1181"
    underline-thickness="50"
    underline-position="-50"
    unicode-range="U+0020-25CA"
  />
<missing-glyph horiz-adv-x="700" 
 />
    <glyph glyph-name=".notdef" horiz-adv-x="700" 
 />
    <glyph glyph-name="A" unicode="A" horiz-adv-x="613" 
d="M563 0h-86l-32 89h-278l-32 -89h-85l256 700zM196 169h220l-110 299z" />
    <glyph glyph-name="Aacute" unicode="&#xc1;" horiz-adv-x="613" 
d="M424 867l-191 -127l-44 67l191 127zM563 0h-86l-32 89h-278l-32 -89h-85l256 700zM196 169h220l-110 299z" />
    <glyph glyph-name="Abreve" unicode="&#x102;" horiz-adv-x="613" 
d="M450 903v-40c0 -36 -15 -69 -43 -91c-26 -21 -61 -32 -100 -32c-40 0 -75 11 -100 32c-29 22 -44 55 -44 91v40h80v-40c0 -32 33 -43 64 -43c30 0 63 11 63 43v40h80zM563 0h-86l-32 89h-278l-32 -89h-85l256 700zM196 169h220l-110 299z" />
    <glyph glyph-name="Abreveacute" unicode="&#x1eae;" horiz-adv-x="613" 
d="M482 1020l-191 -127l-44 67l191 127zM450 903v-40c0 -36 -15 -69 -43 -91c-26 -21 -61 -32 -100 -32c-40 0 -75 11 -100 32c-29 22 -44 55 -44 91v40h80v-40c0 -32 33 -43 64 -43c30 0 63 11 63 43v40h80zM563 0h-86l-32 89h-278l-32 -89h-85l256 700zM196 169h220
l-110 299z" />
    <glyph glyph-name="Abrevedotbelow" unicode="&#x1eb6;" horiz-adv-x="613" 
d="M450 903v-40c0 -36 -15 -69 -43 -91c-26 -21 -61 -32 -100 -32c-40 0 -75 11 -100 32c-29 22 -44 55 -44 91v40h80v-40c0 -32 33 -43 64 -43c30 0 63 11 63 43v40h80zM563 0h-86l-32 89h-278l-32 -89h-85l256 700zM196 169h220l-110 299zM307 -40c27 0 50 -23 50 -50
c0 -28 -23 -50 -50 -50c-28 0 -50 22 -50 50c0 27 22 50 50 50z" />
    <glyph glyph-name="Abrevegrave" unicode="&#x1eb0;" horiz-adv-x="613" 
d="M366 960l-44 -67l-191 127l44 67zM450 903v-40c0 -36 -15 -69 -43 -91c-26 -21 -61 -32 -100 -32c-40 0 -75 11 -100 32c-29 22 -44 55 -44 91v40h80v-40c0 -32 33 -43 64 -43c30 0 63 11 63 43v40h80zM563 0h-86l-32 89h-278l-32 -89h-85l256 700zM196 169h220l-110 299
z" />
    <glyph glyph-name="Abrevehookabove" unicode="&#x1eb2;" horiz-adv-x="613" 
d="M261 1138h40c31 0 60 -11 81 -32c20 -20 31 -49 31 -80c0 -32 -11 -61 -31 -81c-21 -21 -50 -32 -81 -32h-40v80h40c21 0 32 11 32 33c0 21 -11 32 -32 32h-40v80zM450 903v-40c0 -36 -15 -69 -43 -91c-26 -21 -61 -32 -100 -32c-40 0 -75 11 -100 32
c-29 22 -44 55 -44 91v40h80v-40c0 -32 33 -43 64 -43c30 0 63 11 63 43v40h80zM563 0h-86l-32 89h-278l-32 -89h-85l256 700zM196 169h220l-110 299z" />
    <glyph glyph-name="Abrevetilde" unicode="&#x1eb4;" horiz-adv-x="613" 
d="M229 1084c22 4 45 1 65 -9c22 -12 39 -30 50 -55c8 -19 21 -17 25 -17c5 2 12 5 12 18v40h80v-40c0 -25 -8 -47 -22 -64c-14 -16 -33 -28 -54 -32c-21 -3 -41 -3 -65 9c-22 11 -39 30 -50 54c-8 19 -21 18 -25 18c-5 -2 -12 -6 -12 -18v-40h-80v40c0 24 8 46 22 64
c14 16 33 27 54 32zM451 903v-40c0 -36 -15 -69 -43 -91c-26 -21 -61 -32 -100 -32c-40 0 -75 11 -100 32c-29 22 -44 55 -44 91v40h80v-40c0 -32 33 -43 64 -43c30 0 63 11 63 43v40h80zM563 0h-86l-32 89h-278l-32 -89h-85l256 700zM196 169h220l-110 299z" />
    <glyph glyph-name="Acaron" unicode="&#x1cd;" horiz-adv-x="613" 
d="M446 879l-140 -139l-139 139l57 57l82 -83l83 83zM563 0h-86l-32 89h-278l-32 -89h-85l256 700zM196 169h220l-110 299z" />
    <glyph glyph-name="Acircumflex" unicode="&#xc2;" horiz-adv-x="613" 
d="M306 823l-82 -83l-57 57l139 139l140 -139l-57 -57zM563 0h-86l-32 89h-278l-32 -89h-85l256 700zM196 169h220l-110 299z" />
    <glyph glyph-name="Acircumflexacute" unicode="&#x1ea4;" horiz-adv-x="613" 
d="M423 1053l-191 -127l-44 67l191 127zM306 823l-82 -83l-57 57l139 139l140 -139l-57 -57zM563 0h-86l-32 89h-278l-32 -89h-85l256 700zM196 169h220l-110 299z" />
    <glyph glyph-name="Acircumflexdotbelow" unicode="&#x1eac;" horiz-adv-x="613" 
d="M306 823l-82 -83l-57 57l139 139l140 -139l-57 -57zM563 0h-86l-32 89h-278l-32 -89h-85l256 700zM196 169h220l-110 299zM307 -40c27 0 50 -23 50 -50c0 -28 -23 -50 -50 -50c-28 0 -50 22 -50 50c0 27 22 50 50 50z" />
    <glyph glyph-name="Acircumflexgrave" unicode="&#x1ea6;" horiz-adv-x="613" 
d="M423 993l-44 -67l-191 127l44 67zM306 823l-82 -83l-57 57l139 139l140 -139l-57 -57zM563 0h-86l-32 89h-278l-32 -89h-85l256 700zM196 169h220l-110 299z" />
    <glyph glyph-name="Acircumflexhookabove" unicode="&#x1ea8;" horiz-adv-x="613" 
d="M244 1181h40c31 0 60 -11 81 -32c20 -20 31 -49 31 -80c0 -32 -11 -61 -31 -81c-21 -21 -50 -32 -81 -32h-40v80h40c21 0 32 11 32 33c0 21 -11 32 -32 32h-40v80zM306 823l-82 -83l-57 57l139 139l140 -139l-57 -57zM563 0h-86l-32 89h-278l-32 -89h-85l256 700z
M196 169h220l-110 299z" />
    <glyph glyph-name="Acircumflextilde" unicode="&#x1eaa;" horiz-adv-x="613" 
d="M229 1097c22 4 45 1 65 -9c22 -12 39 -30 50 -55c8 -19 21 -17 25 -17c5 2 12 5 12 18v40h80v-40c0 -25 -8 -47 -22 -64c-14 -16 -33 -28 -54 -32c-21 -3 -41 -3 -65 9c-22 11 -39 30 -50 54c-8 19 -21 18 -25 18c-5 -2 -12 -6 -12 -18v-40h-80v40c0 24 8 46 22 64
c14 16 33 27 54 32zM307 823l-82 -83l-57 57l139 139l140 -139l-57 -57zM563 0h-86l-32 89h-278l-32 -89h-85l256 700zM196 169h220l-110 299z" />
    <glyph glyph-name="Adieresis" unicode="&#xc4;" horiz-adv-x="613" 
d="M242 840c27 0 50 -23 50 -50c0 -28 -23 -50 -50 -50c-28 0 -50 22 -50 50c0 27 22 50 50 50zM372 840c27 0 50 -23 50 -50c0 -28 -23 -50 -50 -50c-28 0 -50 22 -50 50c0 27 22 50 50 50zM563 0h-86l-32 89h-278l-32 -89h-85l256 700zM196 169h220l-110 299z" />
    <glyph glyph-name="Adotbelow" unicode="&#x1ea0;" horiz-adv-x="613" 
d="M563 0h-86l-32 89h-278l-32 -89h-85l256 700zM196 169h220l-110 299zM307 -40c27 0 50 -23 50 -50c0 -28 -23 -50 -50 -50c-28 0 -50 22 -50 50c0 27 22 50 50 50z" />
    <glyph glyph-name="Agrave" unicode="&#xc0;" horiz-adv-x="613" 
d="M424 807l-44 -67l-191 127l44 67zM563 0h-86l-32 89h-278l-32 -89h-85l256 700zM196 169h220l-110 299z" />
    <glyph glyph-name="Ahookabove" unicode="&#x1ea2;" horiz-adv-x="613" 
d="M231 965h40c31 0 60 -11 81 -32c20 -20 31 -49 31 -80c0 -32 -11 -61 -31 -81c-21 -21 -50 -32 -81 -32h-40v80h40c21 0 32 11 32 33c0 21 -11 32 -32 32h-40v80zM563 0h-86l-32 89h-278l-32 -89h-85l256 700zM196 169h220l-110 299z" />
    <glyph glyph-name="Amacron" unicode="&#x100;" horiz-adv-x="613" 
d="M409 740h-204v80h204v-80zM563 0h-86l-32 89h-278l-32 -89h-85l256 700zM196 169h220l-110 299z" />
    <glyph glyph-name="Aogonek" unicode="&#x104;" horiz-adv-x="613" 
d="M515 -66l71 -37c-20 -39 -61 -63 -109 -63c-35 0 -66 12 -88 35c-23 22 -35 53 -35 88s12 66 35 88c16 17 37 28 60 32l-4 12h-278l-32 -89h-85l256 700l257 -700h-86c-27 0 -43 -16 -43 -43s16 -43 43 -43c13 0 29 3 38 20zM416 169l-110 299l-110 -299h220z" />
    <glyph glyph-name="Aring" unicode="&#xc5;" horiz-adv-x="613" 
d="M307 965c31 0 60 -11 80 -32c21 -20 32 -49 32 -80c0 -32 -11 -61 -32 -81c-20 -21 -49 -32 -80 -32c-32 0 -61 11 -81 32c-21 20 -32 49 -32 81c0 31 11 60 32 80c20 21 49 32 81 32zM307 885c-22 0 -33 -11 -33 -32c0 -22 11 -33 33 -33c21 0 32 11 32 33
c0 21 -11 32 -32 32zM563 0h-86l-32 89h-278l-32 -89h-85l256 700zM196 169h220l-110 299z" />
    <glyph glyph-name="Atilde" unicode="&#xc3;" horiz-adv-x="613" 
d="M229 901c22 4 45 1 65 -9c22 -12 39 -30 50 -55c8 -19 21 -17 25 -17c5 2 12 5 12 18v40h80v-40c0 -25 -8 -47 -22 -64c-14 -16 -33 -28 -54 -32c-21 -3 -41 -3 -65 9c-22 11 -39 30 -50 54c-8 19 -21 18 -25 18c-5 -2 -12 -6 -12 -18v-40h-80v40c0 24 8 46 22 64
c14 16 33 27 54 32zM563 0h-86l-32 89h-278l-32 -89h-85l256 700zM196 169h220l-110 299z" />
    <glyph glyph-name="AE" unicode="&#xc6;" horiz-adv-x="859" 
d="M809 620h-265v-230h265v-80h-265v-230h265v-80h-345v111h-294l-36 -111h-84l145 451c27 92 68 156 126 197c48 35 108 52 183 52h305v-80zM464 191v427c-39 -4 -70 -16 -97 -35c-42 -30 -73 -81 -96 -156v-1l-76 -235h269z" />
    <glyph glyph-name="B" unicode="B" 
d="M50 700h195c115 0 195 -80 195 -195c0 -56 -19 -104 -52 -138c59 -32 96 -94 96 -172c0 -115 -80 -195 -195 -195h-239v700zM130 620v-230h115c35 0 64 11 84 31s31 50 31 84c0 35 -11 64 -31 84s-49 31 -84 31h-115zM130 310v-230h159c35 0 64 11 84 31
c21 20 31 49 31 84s-10 64 -31 84c-20 20 -49 31 -84 31h-159z" />
    <glyph glyph-name="C" unicode="C" horiz-adv-x="552" 
d="M289 700c48 0 92 -12 129 -36c36 -23 65 -57 84 -98l-72 -33c-26 56 -76 87 -141 87c-96 0 -159 -71 -159 -181v-178c0 -110 63 -181 159 -181c65 0 115 31 141 88l72 -34c-19 -41 -48 -75 -84 -98c-37 -24 -81 -36 -129 -36c-34 0 -67 6 -97 19c-29 13 -55 31 -77 55
c-42 48 -65 113 -65 187v178c0 75 23 139 65 187c22 24 48 42 77 55c30 13 63 19 97 19z" />
    <glyph glyph-name="Cacute" unicode="&#x106;" horiz-adv-x="552" 
d="M394 867l-191 -127l-44 67l191 127zM289 700c48 0 92 -12 129 -36c36 -23 65 -57 84 -98l-72 -33c-26 56 -76 87 -141 87c-96 0 -159 -71 -159 -181v-178c0 -110 63 -181 159 -181c65 0 115 31 141 88l72 -34c-19 -41 -48 -75 -84 -98c-37 -24 -81 -36 -129 -36
c-34 0 -67 6 -97 19c-29 13 -55 31 -77 55c-42 48 -65 113 -65 187v178c0 75 23 139 65 187c22 24 48 42 77 55c30 13 63 19 97 19z" />
    <glyph glyph-name="Ccaron" unicode="&#x10c;" horiz-adv-x="552" 
d="M416 879l-140 -139l-139 139l57 57l82 -83l83 83zM289 700c48 0 92 -12 129 -36c36 -23 65 -57 84 -98l-72 -33c-26 56 -76 87 -141 87c-96 0 -159 -71 -159 -181v-178c0 -110 63 -181 159 -181c65 0 115 31 141 88l72 -34c-19 -41 -48 -75 -84 -98
c-37 -24 -81 -36 -129 -36c-34 0 -67 6 -97 19c-29 13 -55 31 -77 55c-42 48 -65 113 -65 187v178c0 75 23 139 65 187c22 24 48 42 77 55c30 13 63 19 97 19z" />
    <glyph glyph-name="Ccedilla" unicode="&#xc7;" horiz-adv-x="552" 
d="M289 80c65 0 115 31 141 88l72 -34c-19 -41 -48 -75 -84 -98c-31 -20 -67 -32 -106 -36c15 -6 29 -14 40 -26c21 -20 32 -49 32 -80c0 -32 -11 -61 -32 -81c-20 -21 -49 -32 -80 -32c-23 0 -45 6 -63 17c-18 12 -33 29 -41 49l74 31c6 -14 19 -17 30 -17
c21 0 32 11 32 33c0 21 -11 32 -32 32h-40v80c-14 3 -27 7 -40 13c-29 13 -55 31 -77 55c-42 48 -65 113 -65 187v178c0 75 23 139 65 187c22 24 48 42 77 55c30 13 63 19 97 19c48 0 92 -12 129 -36c36 -23 65 -57 84 -98l-72 -33c-26 56 -76 87 -141 87
c-96 0 -159 -71 -159 -181v-178c0 -110 63 -181 159 -181z" />
    <glyph glyph-name="Cdotaccent" unicode="&#x10a;" horiz-adv-x="552" 
d="M276 840c27 0 50 -23 50 -50c0 -28 -23 -50 -50 -50c-28 0 -50 22 -50 50c0 27 22 50 50 50zM289 700c48 0 92 -12 129 -36c36 -23 65 -57 84 -98l-72 -33c-26 56 -76 87 -141 87c-96 0 -159 -71 -159 -181v-178c0 -110 63 -181 159 -181c65 0 115 31 141 88l72 -34
c-19 -41 -48 -75 -84 -98c-37 -24 -81 -36 -129 -36c-34 0 -67 6 -97 19c-29 13 -55 31 -77 55c-42 48 -65 113 -65 187v178c0 75 23 139 65 187c22 24 48 42 77 55c30 13 63 19 97 19z" />
    <glyph glyph-name="D" unicode="D" horiz-adv-x="557" 
d="M50 700h217c35 0 68 -6 97 -19c30 -13 56 -31 77 -55c43 -48 66 -112 66 -187v-178c0 -74 -23 -139 -66 -187c-21 -24 -47 -42 -77 -55c-29 -13 -62 -19 -97 -19h-217v700zM130 620v-540h137c97 0 160 71 160 181v178c0 110 -63 181 -160 181h-137z" />
    <glyph glyph-name="Eth" unicode="&#xd0;" horiz-adv-x="557" 
d="M441 626c43 -48 66 -112 66 -187v-178c0 -74 -23 -139 -66 -187c-21 -24 -47 -42 -77 -55c-29 -13 -62 -19 -97 -19h-217v700h217c35 0 68 -6 97 -19c30 -13 56 -31 77 -55zM427 261v178c0 110 -63 181 -160 181h-137v-230h164v-80h-164v-230h137c97 0 160 71 160 181z
" />
    <glyph glyph-name="Dcaron" unicode="&#x10e;" horiz-adv-x="557" 
d="M418 879l-140 -139l-139 139l57 57l82 -83l83 83zM50 700h217c35 0 68 -6 97 -19c30 -13 56 -31 77 -55c43 -48 66 -112 66 -187v-178c0 -74 -23 -139 -66 -187c-21 -24 -47 -42 -77 -55c-29 -13 -62 -19 -97 -19h-217v700zM130 620v-540h137c97 0 160 71 160 181v178
c0 110 -63 181 -160 181h-137z" />
    <glyph glyph-name="Dcroat" unicode="&#x110;" horiz-adv-x="557" 
d="M441 626c43 -48 66 -112 66 -187v-178c0 -74 -23 -139 -66 -187c-21 -24 -47 -42 -77 -55c-29 -13 -62 -19 -97 -19h-217v700h217c35 0 68 -6 97 -19c30 -13 56 -31 77 -55zM427 261v178c0 110 -63 181 -160 181h-137v-230h164v-80h-164v-230h137c97 0 160 71 160 181z
" />
    <glyph glyph-name="E" unicode="E" horiz-adv-x="446" 
d="M396 620h-266v-230h266v-80h-266v-230h266v-80h-346v700h346v-80z" />
    <glyph glyph-name="Eacute" unicode="&#xc9;" horiz-adv-x="446" 
d="M341 867l-191 -127l-44 67l191 127zM396 620h-266v-230h266v-80h-266v-230h266v-80h-346v700h346v-80z" />
    <glyph glyph-name="Ecaron" unicode="&#x11a;" horiz-adv-x="446" 
d="M363 879l-140 -139l-139 139l57 57l82 -83l83 83zM396 620h-266v-230h266v-80h-266v-230h266v-80h-346v700h346v-80z" />
    <glyph glyph-name="Ecircumflex" unicode="&#xca;" horiz-adv-x="446" 
d="M223 823l-82 -83l-57 57l139 139l140 -139l-57 -57zM396 620h-266v-230h266v-80h-266v-230h266v-80h-346v700h346v-80z" />
    <glyph glyph-name="Ecircumflexacute" unicode="&#x1ebe;" horiz-adv-x="446" 
d="M340 1053l-191 -127l-44 67l191 127zM223 823l-82 -83l-57 57l139 139l140 -139l-57 -57zM396 620h-266v-230h266v-80h-266v-230h266v-80h-346v700h346v-80z" />
    <glyph glyph-name="Ecircumflexdotbelow" unicode="&#x1ec6;" horiz-adv-x="446" 
d="M223 823l-82 -83l-57 57l139 139l140 -139l-57 -57zM396 620h-266v-230h266v-80h-266v-230h266v-80h-346v700h346v-80zM223 -40c27 0 50 -23 50 -50c0 -28 -23 -50 -50 -50c-28 0 -50 22 -50 50c0 27 22 50 50 50z" />
    <glyph glyph-name="Ecircumflexgrave" unicode="&#x1ec0;" horiz-adv-x="446" 
d="M340 993l-44 -67l-191 127l44 67zM223 823l-82 -83l-57 57l139 139l140 -139l-57 -57zM396 620h-266v-230h266v-80h-266v-230h266v-80h-346v700h346v-80z" />
    <glyph glyph-name="Ecircumflexhookabove" unicode="&#x1ec2;" horiz-adv-x="446" 
d="M161 1181h40c31 0 60 -11 81 -32c20 -20 31 -49 31 -80c0 -32 -11 -61 -31 -81c-21 -21 -50 -32 -81 -32h-40v80h40c21 0 32 11 32 33c0 21 -11 32 -32 32h-40v80zM223 823l-82 -83l-57 57l139 139l140 -139l-57 -57zM396 620h-266v-230h266v-80h-266v-230h266v-80h-346
v700h346v-80z" />
    <glyph glyph-name="Ecircumflextilde" unicode="&#x1ec4;" horiz-adv-x="446" 
d="M145 1097c22 4 45 1 65 -9c22 -12 39 -30 50 -55c8 -19 21 -17 25 -17c5 2 12 5 12 18v40h80v-40c0 -25 -8 -47 -22 -64c-14 -16 -33 -28 -54 -32c-21 -3 -41 -3 -65 9c-22 11 -39 30 -50 54c-8 19 -21 18 -25 18c-5 -2 -12 -6 -12 -18v-40h-80v40c0 24 8 46 22 64
c14 16 33 27 54 32zM223 823l-82 -83l-57 57l139 139l140 -139l-57 -57zM396 620h-266v-230h266v-80h-266v-230h266v-80h-346v700h346v-80z" />
    <glyph glyph-name="Edieresis" unicode="&#xcb;" horiz-adv-x="446" 
d="M158 840c27 0 50 -23 50 -50c0 -28 -23 -50 -50 -50c-28 0 -50 22 -50 50c0 27 22 50 50 50zM288 840c27 0 50 -23 50 -50c0 -28 -23 -50 -50 -50c-28 0 -50 22 -50 50c0 27 22 50 50 50zM396 620h-266v-230h266v-80h-266v-230h266v-80h-346v700h346v-80z" />
    <glyph glyph-name="Edotaccent" unicode="&#x116;" horiz-adv-x="446" 
d="M223 840c27 0 50 -23 50 -50c0 -28 -23 -50 -50 -50c-28 0 -50 22 -50 50c0 27 22 50 50 50zM396 620h-266v-230h266v-80h-266v-230h266v-80h-346v700h346v-80z" />
    <glyph glyph-name="Edotbelow" unicode="&#x1eb8;" horiz-adv-x="446" 
d="M396 620h-266v-230h266v-80h-266v-230h266v-80h-346v700h346v-80zM223 -40c27 0 50 -23 50 -50c0 -28 -23 -50 -50 -50c-28 0 -50 22 -50 50c0 27 22 50 50 50z" />
    <glyph glyph-name="Egrave" unicode="&#xc8;" horiz-adv-x="446" 
d="M341 807l-44 -67l-191 127l44 67zM396 620h-266v-230h266v-80h-266v-230h266v-80h-346v700h346v-80z" />
    <glyph glyph-name="Ehookabove" unicode="&#x1eba;" horiz-adv-x="446" 
d="M147 965h40c31 0 60 -11 81 -32c20 -20 31 -49 31 -80c0 -32 -11 -61 -31 -81c-21 -21 -50 -32 -81 -32h-40v80h40c21 0 32 11 32 33c0 21 -11 32 -32 32h-40v80zM396 620h-266v-230h266v-80h-266v-230h266v-80h-346v700h346v-80z" />
    <glyph glyph-name="Emacron" unicode="&#x112;" horiz-adv-x="446" 
d="M325 740h-204v80h204v-80zM396 620h-266v-230h266v-80h-266v-230h266v-80h-346v700h346v-80z" />
    <glyph glyph-name="Eogonek" unicode="&#x118;" horiz-adv-x="446" 
d="M130 620v-230h266v-80h-266v-230h266v-80h-109c-27 0 -43 -16 -43 -43s16 -43 43 -43c13 0 29 3 38 20l71 -37c-20 -39 -61 -63 -109 -63c-35 0 -66 12 -88 35c-23 22 -35 53 -35 88c0 15 2 30 7 43h-121v700h346v-80h-266z" />
    <glyph glyph-name="Etilde" unicode="&#x1ebc;" horiz-adv-x="446" 
d="M145 901c22 4 45 1 65 -9c22 -12 39 -30 50 -55c8 -19 21 -17 25 -17c5 2 12 5 12 18v40h80v-40c0 -25 -8 -47 -22 -64c-14 -16 -33 -28 -54 -32c-21 -3 -41 -3 -65 9c-22 11 -39 30 -50 54c-8 19 -21 18 -25 18c-5 -2 -12 -6 -12 -18v-40h-80v40c0 24 8 46 22 64
c14 16 33 27 54 32zM396 620h-266v-230h266v-80h-266v-230h266v-80h-346v700h346v-80z" />
    <glyph glyph-name="F" unicode="F" horiz-adv-x="446" 
d="M396 620h-266v-230h266v-80h-266v-310h-80v700h346v-80z" />
    <glyph glyph-name="G" unicode="G" horiz-adv-x="579" 
d="M289 700c43 0 82 -9 116 -28s62 -45 83 -79l-68 -42c-13 22 -31 39 -53 51c-23 12 -49 18 -78 18c-96 0 -159 -71 -159 -181v-178c0 -110 63 -181 159 -181c97 0 160 71 160 181v49h-160v80h240v-129c0 -74 -23 -139 -66 -187c-21 -24 -47 -42 -76 -55
c-30 -13 -63 -19 -98 -19c-34 0 -67 6 -97 19c-29 13 -55 31 -77 55c-42 48 -65 113 -65 187v178c0 75 23 139 65 187c22 24 48 42 77 55c30 13 63 19 97 19z" />
    <glyph glyph-name="Gbreve" unicode="&#x11e;" horiz-adv-x="579" 
d="M433 903v-40c0 -36 -15 -69 -43 -91c-26 -21 -61 -32 -100 -32c-40 0 -75 11 -100 32c-29 22 -44 55 -44 91v40h80v-40c0 -32 33 -43 64 -43c30 0 63 11 63 43v40h80zM289 700c43 0 82 -9 116 -28s62 -45 83 -79l-68 -42c-13 22 -31 39 -53 51c-23 12 -49 18 -78 18
c-96 0 -159 -71 -159 -181v-178c0 -110 63 -181 159 -181c97 0 160 71 160 181v49h-160v80h240v-129c0 -74 -23 -139 -66 -187c-21 -24 -47 -42 -76 -55c-30 -13 -63 -19 -98 -19c-34 0 -67 6 -97 19c-29 13 -55 31 -77 55c-42 48 -65 113 -65 187v178c0 75 23 139 65 187
c22 24 48 42 77 55c30 13 63 19 97 19z" />
    <glyph glyph-name="Gcommaaccent" unicode="&#x122;" horiz-adv-x="579" 
d="M289 700c43 0 82 -9 116 -28s62 -45 83 -79l-68 -42c-13 22 -31 39 -53 51c-23 12 -49 18 -78 18c-96 0 -159 -71 -159 -181v-178c0 -110 63 -181 159 -181c97 0 160 71 160 181v49h-160v80h240v-129c0 -74 -23 -139 -66 -187c-21 -24 -47 -42 -76 -55
c-30 -13 -63 -19 -98 -19c-34 0 -67 6 -97 19c-29 13 -55 31 -77 55c-42 48 -65 113 -65 187v178c0 75 23 139 65 187c22 24 48 42 77 55c30 13 63 19 97 19zM366 -40v-40c0 -74 -23 -141 -65 -191l-26 -31l-61 51l26 31c30 36 46 85 46 140v40h80z" />
    <glyph glyph-name="Gdotaccent" unicode="&#x120;" horiz-adv-x="579" 
d="M290 840c27 0 50 -23 50 -50c0 -28 -23 -50 -50 -50c-28 0 -50 22 -50 50c0 27 22 50 50 50zM289 700c43 0 82 -9 116 -28s62 -45 83 -79l-68 -42c-13 22 -31 39 -53 51c-23 12 -49 18 -78 18c-96 0 -159 -71 -159 -181v-178c0 -110 63 -181 159 -181
c97 0 160 71 160 181v49h-160v80h240v-129c0 -74 -23 -139 -66 -187c-21 -24 -47 -42 -76 -55c-30 -13 -63 -19 -98 -19c-34 0 -67 6 -97 19c-29 13 -55 31 -77 55c-42 48 -65 113 -65 187v178c0 75 23 139 65 187c22 24 48 42 77 55c30 13 63 19 97 19z" />
    <glyph glyph-name="H" unicode="H" 
d="M484 0h-80v310h-274v-310h-80v700h80v-310h274v310h80v-700z" />
    <glyph glyph-name="Hbar" unicode="&#x126;" 
d="M535 505h-51v-505h-80v310h-274v-310h-80v505h-51v80h51v115h80v-115h274v115h80v-115h51v-80zM404 505h-274v-115h274v115z" />
    <glyph glyph-name="I" unicode="I" horiz-adv-x="180" 
d="M130 0h-80v700h80v-700z" />
    <glyph glyph-name="IJ" unicode="&#x132;" horiz-adv-x="473" 
d="M130 0h-80v700h80v-700zM423 700v-527c0 -49 -17 -93 -48 -125c-32 -31 -76 -48 -125 -48h-40v80h40c57 0 93 36 93 93v527h80z" />
    <glyph glyph-name="Iacute" unicode="&#xcd;" horiz-adv-x="180" 
d="M207 867l-191 -127l-44 67l191 127zM130 0h-80v700h80v-700z" />
    <glyph glyph-name="Icaron" unicode="&#x1cf;" horiz-adv-x="180" 
d="M229 879l-140 -139l-139 139l57 57l82 -83l83 83zM130 0h-80v700h80v-700z" />
    <glyph glyph-name="Icircumflex" unicode="&#xce;" horiz-adv-x="180" 
d="M89 823l-82 -83l-57 57l139 139l140 -139l-57 -57zM130 0h-80v700h80v-700z" />
    <glyph glyph-name="Idieresis" unicode="&#xcf;" horiz-adv-x="180" 
d="M25 840c27 0 50 -23 50 -50c0 -28 -23 -50 -50 -50c-28 0 -50 22 -50 50c0 27 22 50 50 50zM155 840c27 0 50 -23 50 -50c0 -28 -23 -50 -50 -50c-28 0 -50 22 -50 50c0 27 22 50 50 50zM130 0h-80v700h80v-700z" />
    <glyph glyph-name="Idotaccent" unicode="&#x130;" horiz-adv-x="180" 
d="M90 840c27 0 50 -23 50 -50c0 -28 -23 -50 -50 -50c-28 0 -50 22 -50 50c0 27 22 50 50 50zM130 0h-80v700h80v-700z" />
    <glyph glyph-name="Idotbelow" unicode="&#x1eca;" horiz-adv-x="180" 
d="M130 0h-80v700h80v-700zM90 -40c27 0 50 -23 50 -50c0 -28 -23 -50 -50 -50c-28 0 -50 22 -50 50c0 27 22 50 50 50z" />
    <glyph glyph-name="Igrave" unicode="&#xcc;" horiz-adv-x="180" 
d="M207 807l-44 -67l-191 127l44 67zM130 0h-80v700h80v-700z" />
    <glyph glyph-name="Ihookabove" unicode="&#x1ec8;" horiz-adv-x="180" 
d="M14 965h40c31 0 60 -11 81 -32c20 -20 31 -49 31 -80c0 -32 -11 -61 -31 -81c-21 -21 -50 -32 -81 -32h-40v80h40c21 0 32 11 32 33c0 21 -11 32 -32 32h-40v80zM130 0h-80v700h80v-700z" />
    <glyph glyph-name="Imacron" unicode="&#x12a;" horiz-adv-x="180" 
d="M192 740h-204v80h204v-80zM130 0h-80v700h80v-700z" />
    <glyph glyph-name="Iogonek" unicode="&#x12e;" horiz-adv-x="180" 
d="M135 -66l71 -37c-20 -39 -61 -63 -109 -63c-35 0 -66 12 -88 35c-23 22 -35 53 -35 88s12 66 35 88c11 12 25 21 41 27v628h80v-700h-33c-27 0 -43 -16 -43 -43s16 -43 43 -43c13 0 29 3 38 20z" />
    <glyph glyph-name="Itilde" unicode="&#x128;" horiz-adv-x="180" 
d="M12 901c22 4 45 1 65 -9c22 -12 39 -30 50 -55c8 -19 21 -17 25 -17c5 2 12 5 12 18v40h80v-40c0 -25 -8 -47 -22 -64c-14 -16 -33 -28 -54 -32c-21 -3 -41 -3 -65 9c-22 11 -39 30 -50 54c-8 19 -21 18 -25 18c-5 -2 -12 -6 -12 -18v-40h-80v40c0 24 8 46 22 64
c14 16 33 27 54 32zM130 0h-80v700h80v-700z" />
    <glyph glyph-name="J" unicode="J" horiz-adv-x="313" 
d="M263 700v-527c0 -49 -17 -93 -48 -125c-32 -31 -76 -48 -125 -48h-40v80h40c57 0 93 36 93 93v527h80z" />
    <glyph glyph-name="K" unicode="K" horiz-adv-x="523" 
d="M282 400l191 -400h-89l-153 321l-101 -159v-162h-80v700h80v-390l248 390h95z" />
    <glyph glyph-name="Kcommaaccent" unicode="&#x136;" horiz-adv-x="523" 
d="M282 400l191 -400h-89l-153 321l-101 -159v-162h-80v700h80v-390l248 390h95zM338 -40v-40c0 -74 -23 -141 -65 -191l-26 -31l-61 51l26 31c30 36 46 85 46 140v40h80z" />
    <glyph glyph-name="L" unicode="L" horiz-adv-x="468" 
d="M130 80h288v-80h-368v700h80v-620z" />
    <glyph glyph-name="Lacute" unicode="&#x139;" horiz-adv-x="468" 
d="M285 867l-191 -127l-44 67l191 127zM130 80h288v-80h-368v700h80v-620z" />
    <glyph glyph-name="Lcaron" unicode="&#x13d;" horiz-adv-x="468" 
d="M130 80h288v-80h-368v700h80v-620zM290 454h-80v246h80v-246z" />
    <glyph glyph-name="Lcommaaccent" unicode="&#x13b;" horiz-adv-x="468" 
d="M130 80h288v-80h-368v700h80v-620zM310 -40v-40c0 -74 -23 -141 -65 -191l-26 -31l-61 51l26 31c30 36 46 85 46 140v40h80z" />
    <glyph glyph-name="Ldot" unicode="&#x13f;" horiz-adv-x="468" 
d="M418 80v-80h-368v700h80v-620h288z" />
    <glyph glyph-name="Lslash" unicode="&#x141;" horiz-adv-x="519" 
d="M469 80v-80h-368v301l-84 -19l-17 78l101 22v318h80v-300l84 19l17 -78l-101 -22v-239h288z" />
    <glyph glyph-name="M" unicode="M" horiz-adv-x="771" 
d="M721 1h-82l-71 421l-183 -422l-182 422l-72 -421h-81l119 701l216 -500l216 500z" />
    <glyph glyph-name="N" unicode="N" 
d="M404 237v463h80v-700l-354 464v-464h-80v701z" />
    <glyph glyph-name="Nacute" unicode="&#x143;" 
d="M385 867l-191 -127l-44 67l191 127zM404 237v463h80v-700l-354 464v-464h-80v701z" />
    <glyph glyph-name="Ncaron" unicode="&#x147;" 
d="M407 879l-140 -139l-139 139l57 57l82 -83l83 83zM404 237v463h80v-700l-354 464v-464h-80v701z" />
    <glyph glyph-name="Ncommaaccent" unicode="&#x145;" 
d="M404 237v463h80v-700l-354 464v-464h-80v701zM343 -40v-40c0 -74 -23 -141 -65 -191l-26 -31l-61 51l26 31c30 36 46 85 46 140v40h80z" />
    <glyph glyph-name="Eng" unicode="&#x14a;" 
d="M404 237v463h80v-688c0 -88 -34 -162 -96 -209l-32 -25l-48 64l31 24c42 32 65 84 65 146v93l-274 359v-464h-80v701z" />
    <glyph glyph-name="Ntilde" unicode="&#xd1;" 
d="M189 901c22 4 45 1 65 -9c22 -12 39 -30 50 -55c8 -19 21 -17 25 -17c5 2 12 5 12 18v40h80v-40c0 -25 -8 -47 -22 -64c-14 -16 -33 -28 -54 -32c-21 -3 -41 -3 -65 9c-22 11 -39 30 -50 54c-8 19 -21 18 -25 18c-5 -2 -12 -6 -12 -18v-40h-80v40c0 24 8 46 22 64
c14 16 33 27 54 32zM404 237v463h80v-700l-354 464v-464h-80v701z" />
    <glyph glyph-name="O" unicode="O" horiz-adv-x="579" 
d="M289 700c35 0 68 -6 98 -19c29 -13 55 -31 76 -55c43 -48 66 -112 66 -187v-178c0 -74 -23 -139 -66 -187c-21 -24 -47 -42 -76 -55c-30 -13 -63 -19 -98 -19c-34 0 -67 6 -97 19c-29 13 -55 31 -77 55c-42 48 -65 113 -65 187v178c0 75 23 139 65 187c22 24 48 42 77 55
c30 13 63 19 97 19zM289 620c-96 0 -159 -71 -159 -181v-178c0 -110 63 -181 159 -181c97 0 160 71 160 181v178c0 110 -63 181 -160 181z" />
    <glyph glyph-name="Oacute" unicode="&#xd3;" horiz-adv-x="579" 
d="M407 867l-191 -127l-44 67l191 127zM289 700c35 0 68 -6 98 -19c29 -13 55 -31 76 -55c43 -48 66 -112 66 -187v-178c0 -74 -23 -139 -66 -187c-21 -24 -47 -42 -76 -55c-30 -13 -63 -19 -98 -19c-34 0 -67 6 -97 19c-29 13 -55 31 -77 55c-42 48 -65 113 -65 187v178
c0 75 23 139 65 187c22 24 48 42 77 55c30 13 63 19 97 19zM289 620c-96 0 -159 -71 -159 -181v-178c0 -110 63 -181 159 -181c97 0 160 71 160 181v178c0 110 -63 181 -160 181z" />
    <glyph glyph-name="Ocaron" unicode="&#x1d1;" horiz-adv-x="579" 
d="M429 879l-140 -139l-139 139l57 57l82 -83l83 83zM289 700c35 0 68 -6 98 -19c29 -13 55 -31 76 -55c43 -48 66 -112 66 -187v-178c0 -74 -23 -139 -66 -187c-21 -24 -47 -42 -76 -55c-30 -13 -63 -19 -98 -19c-34 0 -67 6 -97 19c-29 13 -55 31 -77 55
c-42 48 -65 113 -65 187v178c0 75 23 139 65 187c22 24 48 42 77 55c30 13 63 19 97 19zM289 620c-96 0 -159 -71 -159 -181v-178c0 -110 63 -181 159 -181c97 0 160 71 160 181v178c0 110 -63 181 -160 181z" />
    <glyph glyph-name="Ocircumflex" unicode="&#xd4;" horiz-adv-x="579" 
d="M289 823l-82 -83l-57 57l139 139l140 -139l-57 -57zM289 700c35 0 68 -6 98 -19c29 -13 55 -31 76 -55c43 -48 66 -112 66 -187v-178c0 -74 -23 -139 -66 -187c-21 -24 -47 -42 -76 -55c-30 -13 -63 -19 -98 -19c-34 0 -67 6 -97 19c-29 13 -55 31 -77 55
c-42 48 -65 113 -65 187v178c0 75 23 139 65 187c22 24 48 42 77 55c30 13 63 19 97 19zM289 620c-96 0 -159 -71 -159 -181v-178c0 -110 63 -181 159 -181c97 0 160 71 160 181v178c0 110 -63 181 -160 181z" />
    <glyph glyph-name="Ocircumflexacute" unicode="&#x1ed0;" horiz-adv-x="579" 
d="M406 1053l-191 -127l-44 67l191 127zM289 823l-82 -83l-57 57l139 139l140 -139l-57 -57zM289 700c35 0 68 -6 98 -19c29 -13 55 -31 76 -55c43 -48 66 -112 66 -187v-178c0 -74 -23 -139 -66 -187c-21 -24 -47 -42 -76 -55c-30 -13 -63 -19 -98 -19c-34 0 -67 6 -97 19
c-29 13 -55 31 -77 55c-42 48 -65 113 -65 187v178c0 75 23 139 65 187c22 24 48 42 77 55c30 13 63 19 97 19zM289 620c-96 0 -159 -71 -159 -181v-178c0 -110 63 -181 159 -181c97 0 160 71 160 181v178c0 110 -63 181 -160 181z" />
    <glyph glyph-name="Ocircumflexdotbelow" unicode="&#x1ed8;" horiz-adv-x="579" 
d="M289 823l-82 -83l-57 57l139 139l140 -139l-57 -57zM289 700c35 0 68 -6 98 -19c29 -13 55 -31 76 -55c43 -48 66 -112 66 -187v-178c0 -74 -23 -139 -66 -187c-21 -24 -47 -42 -76 -55c-30 -13 -63 -19 -98 -19c-34 0 -67 6 -97 19c-29 13 -55 31 -77 55
c-42 48 -65 113 -65 187v178c0 75 23 139 65 187c22 24 48 42 77 55c30 13 63 19 97 19zM289 620c-96 0 -159 -71 -159 -181v-178c0 -110 63 -181 159 -181c97 0 160 71 160 181v178c0 110 -63 181 -160 181zM290 -40c27 0 50 -23 50 -50c0 -28 -23 -50 -50 -50
c-28 0 -50 22 -50 50c0 27 22 50 50 50z" />
    <glyph glyph-name="Ocircumflexgrave" unicode="&#x1ed2;" horiz-adv-x="579" 
d="M406 993l-44 -67l-191 127l44 67zM289 823l-82 -83l-57 57l139 139l140 -139l-57 -57zM289 700c35 0 68 -6 98 -19c29 -13 55 -31 76 -55c43 -48 66 -112 66 -187v-178c0 -74 -23 -139 -66 -187c-21 -24 -47 -42 -76 -55c-30 -13 -63 -19 -98 -19c-34 0 -67 6 -97 19
c-29 13 -55 31 -77 55c-42 48 -65 113 -65 187v178c0 75 23 139 65 187c22 24 48 42 77 55c30 13 63 19 97 19zM289 620c-96 0 -159 -71 -159 -181v-178c0 -110 63 -181 159 -181c97 0 160 71 160 181v178c0 110 -63 181 -160 181z" />
    <glyph glyph-name="Ocircumflexhookabove" unicode="&#x1ed4;" horiz-adv-x="579" 
d="M227 1181h40c31 0 60 -11 81 -32c20 -20 31 -49 31 -80c0 -32 -11 -61 -31 -81c-21 -21 -50 -32 -81 -32h-40v80h40c21 0 32 11 32 33c0 21 -11 32 -32 32h-40v80zM289 823l-82 -83l-57 57l139 139l140 -139l-57 -57zM289 700c35 0 68 -6 98 -19c29 -13 55 -31 76 -55
c43 -48 66 -112 66 -187v-178c0 -74 -23 -139 -66 -187c-21 -24 -47 -42 -76 -55c-30 -13 -63 -19 -98 -19c-34 0 -67 6 -97 19c-29 13 -55 31 -77 55c-42 48 -65 113 -65 187v178c0 75 23 139 65 187c22 24 48 42 77 55c30 13 63 19 97 19zM289 620
c-96 0 -159 -71 -159 -181v-178c0 -110 63 -181 159 -181c97 0 160 71 160 181v178c0 110 -63 181 -160 181z" />
    <glyph glyph-name="Ocircumflextilde" unicode="&#x1ed6;" horiz-adv-x="579" 
d="M212 1097c22 4 45 1 65 -9c22 -12 39 -30 50 -55c8 -19 21 -17 25 -17c5 2 12 5 12 18v40h80v-40c0 -25 -8 -47 -22 -64c-14 -16 -33 -28 -54 -32c-21 -3 -41 -3 -65 9c-22 11 -39 30 -50 54c-8 19 -21 18 -25 18c-5 -2 -12 -6 -12 -18v-40h-80v40c0 24 8 46 22 64
c14 16 33 27 54 32zM290 823l-82 -83l-57 57l139 139l140 -139l-57 -57zM289 700c35 0 68 -6 98 -19c29 -13 55 -31 76 -55c43 -48 66 -112 66 -187v-178c0 -74 -23 -139 -66 -187c-21 -24 -47 -42 -76 -55c-30 -13 -63 -19 -98 -19c-34 0 -67 6 -97 19
c-29 13 -55 31 -77 55c-42 48 -65 113 -65 187v178c0 75 23 139 65 187c22 24 48 42 77 55c30 13 63 19 97 19zM289 620c-96 0 -159 -71 -159 -181v-178c0 -110 63 -181 159 -181c97 0 160 71 160 181v178c0 110 -63 181 -160 181z" />
    <glyph glyph-name="Odieresis" unicode="&#xd6;" horiz-adv-x="579" 
d="M225 840c27 0 50 -23 50 -50c0 -28 -23 -50 -50 -50c-28 0 -50 22 -50 50c0 27 22 50 50 50zM355 840c27 0 50 -23 50 -50c0 -28 -23 -50 -50 -50c-28 0 -50 22 -50 50c0 27 22 50 50 50zM289 700c35 0 68 -6 98 -19c29 -13 55 -31 76 -55c43 -48 66 -112 66 -187v-178
c0 -74 -23 -139 -66 -187c-21 -24 -47 -42 -76 -55c-30 -13 -63 -19 -98 -19c-34 0 -67 6 -97 19c-29 13 -55 31 -77 55c-42 48 -65 113 -65 187v178c0 75 23 139 65 187c22 24 48 42 77 55c30 13 63 19 97 19zM289 620c-96 0 -159 -71 -159 -181v-178
c0 -110 63 -181 159 -181c97 0 160 71 160 181v178c0 110 -63 181 -160 181z" />
    <glyph glyph-name="Odotbelow" unicode="&#x1ecc;" horiz-adv-x="579" 
d="M289 700c35 0 68 -6 98 -19c29 -13 55 -31 76 -55c43 -48 66 -112 66 -187v-178c0 -74 -23 -139 -66 -187c-21 -24 -47 -42 -76 -55c-30 -13 -63 -19 -98 -19c-34 0 -67 6 -97 19c-29 13 -55 31 -77 55c-42 48 -65 113 -65 187v178c0 75 23 139 65 187c22 24 48 42 77 55
c30 13 63 19 97 19zM289 620c-96 0 -159 -71 -159 -181v-178c0 -110 63 -181 159 -181c97 0 160 71 160 181v178c0 110 -63 181 -160 181zM290 -40c27 0 50 -23 50 -50c0 -28 -23 -50 -50 -50c-28 0 -50 22 -50 50c0 27 22 50 50 50z" />
    <glyph glyph-name="Ograve" unicode="&#xd2;" horiz-adv-x="579" 
d="M407 807l-44 -67l-191 127l44 67zM289 700c35 0 68 -6 98 -19c29 -13 55 -31 76 -55c43 -48 66 -112 66 -187v-178c0 -74 -23 -139 -66 -187c-21 -24 -47 -42 -76 -55c-30 -13 -63 -19 -98 -19c-34 0 -67 6 -97 19c-29 13 -55 31 -77 55c-42 48 -65 113 -65 187v178
c0 75 23 139 65 187c22 24 48 42 77 55c30 13 63 19 97 19zM289 620c-96 0 -159 -71 -159 -181v-178c0 -110 63 -181 159 -181c97 0 160 71 160 181v178c0 110 -63 181 -160 181z" />
    <glyph glyph-name="Ohookabove" unicode="&#x1ece;" horiz-adv-x="579" 
d="M214 965h40c31 0 60 -11 81 -32c20 -20 31 -49 31 -80c0 -32 -11 -61 -31 -81c-21 -21 -50 -32 -81 -32h-40v80h40c21 0 32 11 32 33c0 21 -11 32 -32 32h-40v80zM289 700c35 0 68 -6 98 -19c29 -13 55 -31 76 -55c43 -48 66 -112 66 -187v-178c0 -74 -23 -139 -66 -187
c-21 -24 -47 -42 -76 -55c-30 -13 -63 -19 -98 -19c-34 0 -67 6 -97 19c-29 13 -55 31 -77 55c-42 48 -65 113 -65 187v178c0 75 23 139 65 187c22 24 48 42 77 55c30 13 63 19 97 19zM289 620c-96 0 -159 -71 -159 -181v-178c0 -110 63 -181 159 -181c97 0 160 71 160 181
v178c0 110 -63 181 -160 181z" />
    <glyph glyph-name="Ohorn" unicode="&#x1a0;" horiz-adv-x="653" 
d="M633 700v-102c0 -35 -13 -66 -35 -88c-18 -19 -43 -31 -71 -34c1 -12 2 -24 2 -37v-178c0 -74 -23 -139 -66 -187c-21 -24 -47 -42 -76 -55c-30 -13 -63 -19 -98 -19c-34 0 -67 6 -97 19c-29 13 -55 31 -77 55c-42 48 -65 113 -65 187v178c0 75 23 139 65 187
c22 24 48 42 77 55c30 13 63 19 97 19c35 0 68 -6 98 -19c29 -13 55 -31 76 -55c19 -21 34 -45 44 -71h3c27 0 43 16 43 43v102h80zM449 261v178c0 110 -63 181 -160 181c-96 0 -159 -71 -159 -181v-178c0 -110 63 -181 159 -181c97 0 160 71 160 181z" />
    <glyph glyph-name="Ohornacute" unicode="&#x1eda;" horiz-adv-x="653" 
d="M216 740l-44 67l191 127l44 -67zM633 700v-102c0 -35 -13 -66 -35 -88c-18 -19 -43 -31 -71 -34c1 -12 2 -24 2 -37v-178c0 -74 -23 -139 -66 -187c-21 -24 -47 -42 -76 -55c-30 -13 -63 -19 -98 -19c-34 0 -67 6 -97 19c-29 13 -55 31 -77 55c-42 48 -65 113 -65 187
v178c0 75 23 139 65 187c22 24 48 42 77 55c30 13 63 19 97 19c35 0 68 -6 98 -19c29 -13 55 -31 76 -55c19 -21 34 -45 44 -71h3c27 0 43 16 43 43v102h80zM449 261v178c0 110 -63 181 -160 181c-96 0 -159 -71 -159 -181v-178c0 -110 63 -181 159 -181
c97 0 160 71 160 181z" />
    <glyph glyph-name="Ohorndotbelow" unicode="&#x1ee2;" horiz-adv-x="653" 
d="M633 700v-102c0 -35 -13 -66 -35 -88c-18 -19 -43 -31 -71 -34c1 -12 2 -24 2 -37v-178c0 -74 -23 -139 -66 -187c-21 -24 -47 -42 -76 -55c-30 -13 -63 -19 -98 -19c-34 0 -67 6 -97 19c-29 13 -55 31 -77 55c-42 48 -65 113 -65 187v178c0 75 23 139 65 187
c22 24 48 42 77 55c30 13 63 19 97 19c35 0 68 -6 98 -19c29 -13 55 -31 76 -55c19 -21 34 -45 44 -71h3c27 0 43 16 43 43v102h80zM449 261v178c0 110 -63 181 -160 181c-96 0 -159 -71 -159 -181v-178c0 -110 63 -181 159 -181c97 0 160 71 160 181zM290 -40
c27 0 50 -23 50 -50c0 -28 -23 -50 -50 -50c-28 0 -50 22 -50 50c0 27 22 50 50 50z" />
    <glyph glyph-name="Ohorngrave" unicode="&#x1edc;" horiz-adv-x="653" 
d="M363 740l-191 127l44 67l191 -127zM633 700v-102c0 -35 -13 -66 -35 -88c-18 -19 -43 -31 -71 -34c1 -12 2 -24 2 -37v-178c0 -74 -23 -139 -66 -187c-21 -24 -47 -42 -76 -55c-30 -13 -63 -19 -98 -19c-34 0 -67 6 -97 19c-29 13 -55 31 -77 55c-42 48 -65 113 -65 187
v178c0 75 23 139 65 187c22 24 48 42 77 55c30 13 63 19 97 19c35 0 68 -6 98 -19c29 -13 55 -31 76 -55c19 -21 34 -45 44 -71h3c27 0 43 16 43 43v102h80zM449 261v178c0 110 -63 181 -160 181c-96 0 -159 -71 -159 -181v-178c0 -110 63 -181 159 -181
c97 0 160 71 160 181z" />
    <glyph glyph-name="Ohornhookabove" unicode="&#x1ede;" horiz-adv-x="653" 
d="M335 772c-21 -21 -50 -32 -81 -32h-40v80h40c21 0 32 11 32 33c0 21 -11 32 -32 32h-40v80h40c31 0 60 -11 81 -32c20 -20 31 -49 31 -80c0 -32 -11 -61 -31 -81zM633 700v-102c0 -35 -13 -66 -35 -88c-18 -19 -43 -31 -71 -34c1 -12 2 -24 2 -37v-178
c0 -74 -23 -139 -66 -187c-21 -24 -47 -42 -76 -55c-30 -13 -63 -19 -98 -19c-34 0 -67 6 -97 19c-29 13 -55 31 -77 55c-42 48 -65 113 -65 187v178c0 75 23 139 65 187c22 24 48 42 77 55c30 13 63 19 97 19c35 0 68 -6 98 -19c29 -13 55 -31 76 -55c19 -21 34 -45 44 -71
h3c27 0 43 16 43 43v102h80zM449 261v178c0 110 -63 181 -160 181c-96 0 -159 -71 -159 -181v-178c0 -110 63 -181 159 -181c97 0 160 71 160 181z" />
    <glyph glyph-name="Ohorntilde" unicode="&#x1ee0;" horiz-adv-x="653" 
d="M216 765h-80v40c0 24 8 46 22 64c14 16 33 27 54 32c22 4 45 1 65 -9c22 -12 39 -30 50 -55c8 -19 21 -17 25 -17c5 2 12 5 12 18v40h80v-40c0 -25 -8 -47 -22 -64c-14 -16 -33 -28 -54 -32c-21 -3 -41 -3 -65 9c-22 11 -39 30 -50 54c-8 19 -21 18 -25 18
c-5 -2 -12 -6 -12 -18v-40zM633 700v-102c0 -35 -13 -66 -35 -88c-18 -19 -43 -31 -71 -34c1 -12 2 -24 2 -37v-178c0 -74 -23 -139 -66 -187c-21 -24 -47 -42 -76 -55c-30 -13 -63 -19 -98 -19c-34 0 -67 6 -97 19c-29 13 -55 31 -77 55c-42 48 -65 113 -65 187v178
c0 75 23 139 65 187c22 24 48 42 77 55c30 13 63 19 97 19c35 0 68 -6 98 -19c29 -13 55 -31 76 -55c19 -21 34 -45 44 -71h3c27 0 43 16 43 43v102h80zM449 261v178c0 110 -63 181 -160 181c-96 0 -159 -71 -159 -181v-178c0 -110 63 -181 159 -181c97 0 160 71 160 181z
" />
    <glyph glyph-name="Ohungarumlaut" unicode="&#x150;" horiz-adv-x="579" 
d="M304 887l-110 -147l-64 48l110 147zM449 887l-110 -147l-64 48l110 147zM289 700c35 0 68 -6 98 -19c29 -13 55 -31 76 -55c43 -48 66 -112 66 -187v-178c0 -74 -23 -139 -66 -187c-21 -24 -47 -42 -76 -55c-30 -13 -63 -19 -98 -19c-34 0 -67 6 -97 19
c-29 13 -55 31 -77 55c-42 48 -65 113 -65 187v178c0 75 23 139 65 187c22 24 48 42 77 55c30 13 63 19 97 19zM289 620c-96 0 -159 -71 -159 -181v-178c0 -110 63 -181 159 -181c97 0 160 71 160 181v178c0 110 -63 181 -160 181z" />
    <glyph glyph-name="Omacron" unicode="&#x14c;" horiz-adv-x="579" 
d="M392 740h-204v80h204v-80zM289 700c35 0 68 -6 98 -19c29 -13 55 -31 76 -55c43 -48 66 -112 66 -187v-178c0 -74 -23 -139 -66 -187c-21 -24 -47 -42 -76 -55c-30 -13 -63 -19 -98 -19c-34 0 -67 6 -97 19c-29 13 -55 31 -77 55c-42 48 -65 113 -65 187v178
c0 75 23 139 65 187c22 24 48 42 77 55c30 13 63 19 97 19zM289 620c-96 0 -159 -71 -159 -181v-178c0 -110 63 -181 159 -181c97 0 160 71 160 181v178c0 110 -63 181 -160 181z" />
    <glyph glyph-name="Oslash" unicode="&#xd8;" horiz-adv-x="579" 
d="M488 658l-19 -39c39 -47 60 -108 60 -180v-178c0 -74 -23 -139 -66 -187c-21 -24 -47 -42 -76 -55c-30 -13 -63 -19 -98 -19c-34 0 -67 6 -97 19l-18 9l-11 -22l-72 36l19 38c-39 47 -60 110 -60 181v178c0 75 23 139 65 187c22 24 48 42 77 55c30 13 63 19 97 19
c35 0 68 -6 98 -19l19 -9l11 22zM130 439v-178c0 -38 7 -71 21 -99l219 438c-23 13 -50 20 -81 20c-96 0 -159 -71 -159 -181zM449 261v178c0 38 -7 71 -21 98l-218 -437c23 -13 49 -20 79 -20c97 0 160 71 160 181z" />
    <glyph glyph-name="Otilde" unicode="&#xd5;" horiz-adv-x="579" 
d="M212 901c22 4 45 1 65 -9c22 -12 39 -30 50 -55c8 -19 21 -17 25 -17c5 2 12 5 12 18v40h80v-40c0 -25 -8 -47 -22 -64c-14 -16 -33 -28 -54 -32c-21 -3 -41 -3 -65 9c-22 11 -39 30 -50 54c-8 19 -21 18 -25 18c-5 -2 -12 -6 -12 -18v-40h-80v40c0 24 8 46 22 64
c14 16 33 27 54 32zM289 700c35 0 68 -6 98 -19c29 -13 55 -31 76 -55c43 -48 66 -112 66 -187v-178c0 -74 -23 -139 -66 -187c-21 -24 -47 -42 -76 -55c-30 -13 -63 -19 -98 -19c-34 0 -67 6 -97 19c-29 13 -55 31 -77 55c-42 48 -65 113 -65 187v178c0 75 23 139 65 187
c22 24 48 42 77 55c30 13 63 19 97 19zM289 620c-96 0 -159 -71 -159 -181v-178c0 -110 63 -181 159 -181c97 0 160 71 160 181v178c0 110 -63 181 -160 181z" />
    <glyph glyph-name="OE" unicode="&#x152;" horiz-adv-x="845" 
d="M529 390h266v-80h-266v-230h266v-80h-346v60c-18 -17 -39 -31 -62 -41c-30 -13 -63 -19 -98 -19c-34 0 -67 6 -97 19c-29 13 -55 31 -77 55c-42 48 -65 113 -65 187v178c0 75 23 139 65 187c22 24 48 42 77 55c30 13 63 19 97 19c35 0 68 -6 98 -19c23 -10 44 -24 62 -41
v60h346v-80h-266v-230zM289 80c97 0 160 71 160 181v178c0 110 -63 181 -160 181c-96 0 -159 -71 -159 -181v-178c0 -110 63 -181 159 -181z" />
    <glyph glyph-name="P" unicode="P" 
d="M50 700h217c128 0 217 -89 217 -217s-89 -217 -217 -217h-137v-266h-80v700zM130 620v-274h137c41 0 76 13 100 37c25 24 37 59 37 100s-12 76 -37 100c-24 24 -59 37 -100 37h-137z" />
    <glyph glyph-name="Thorn" unicode="&#xde;" horiz-adv-x="579" 
d="M130 612h137c38 0 73 -7 105 -19s60 -31 84 -54c23 -24 42 -52 54 -84s19 -67 19 -105c0 -37 -7 -73 -19 -105s-31 -60 -54 -84c-24 -23 -52 -41 -84 -54c-32 -12 -67 -18 -105 -18h-137v-89h-80v700h80v-88zM130 532v-363h137c110 0 182 71 182 181s-72 182 -182 182
h-137z" />
    <glyph glyph-name="Q" unicode="Q" horiz-adv-x="579" 
d="M289 700c35 0 68 -7 98 -20c29 -12 55 -31 76 -55c43 -47 66 -112 66 -187v-177c0 -75 -23 -140 -66 -187c-21 -24 -47 -43 -76 -55c-10 -4 -19 -8 -29 -10l75 -114l-66 -44l-100 149c-26 2 -51 9 -75 19c-29 12 -55 31 -77 55c-42 47 -65 112 -65 187v177
c0 75 23 140 65 187c22 24 48 43 77 55c30 13 63 20 97 20zM289 620c-96 0 -159 -72 -159 -182v-177c0 -110 63 -182 159 -182c97 0 160 72 160 182v177c0 110 -63 182 -160 182z" />
    <glyph glyph-name="R" unicode="R" 
d="M50 700h217c128 0 217 -89 217 -217c0 -100 -54 -176 -139 -205l139 -278h-89l-133 266h-132v-266h-80v700zM130 620v-274h137c41 0 76 13 100 37c25 24 37 59 37 100s-12 76 -37 100c-24 24 -59 37 -100 37h-137z" />
    <glyph glyph-name="Racute" unicode="&#x154;" 
d="M385 867l-191 -127l-44 67l191 127zM50 700h217c128 0 217 -89 217 -217c0 -100 -54 -176 -139 -205l139 -278h-89l-133 266h-132v-266h-80v700zM130 620v-274h137c41 0 76 13 100 37c25 24 37 59 37 100s-12 76 -37 100c-24 24 -59 37 -100 37h-137z" />
    <glyph glyph-name="Rcaron" unicode="&#x158;" 
d="M407 879l-140 -139l-139 139l57 57l82 -83l83 83zM50 700h217c128 0 217 -89 217 -217c0 -100 -54 -176 -139 -205l139 -278h-89l-133 266h-132v-266h-80v700zM130 620v-274h137c41 0 76 13 100 37c25 24 37 59 37 100s-12 76 -37 100c-24 24 -59 37 -100 37h-137z" />
    <glyph glyph-name="Rcommaaccent" unicode="&#x156;" 
d="M50 700h217c128 0 217 -89 217 -217c0 -100 -54 -176 -139 -205l139 -278h-89l-133 266h-132v-266h-80v700zM130 620v-274h137c41 0 76 13 100 37c25 24 37 59 37 100s-12 76 -37 100c-24 24 -59 37 -100 37h-137zM343 -40v-40c0 -74 -23 -141 -65 -191l-26 -31l-61 51
l26 31c30 36 46 85 46 140v40h80z" />
    <glyph glyph-name="S" unicode="S" 
d="M267 700c128 0 217 -80 217 -195h-80c0 34 -12 62 -35 82c-24 22 -60 33 -102 33s-77 -11 -102 -33c-23 -20 -35 -48 -35 -82c0 -33 12 -62 35 -82c25 -22 60 -33 102 -33c128 0 217 -80 217 -195s-89 -195 -217 -195s-217 80 -217 195h80c0 -34 12 -62 35 -82
c25 -22 60 -33 102 -33s78 11 102 33c23 20 35 48 35 82s-12 62 -35 82c-24 22 -60 33 -102 33c-128 0 -217 80 -217 195s89 195 217 195z" />
    <glyph glyph-name="Sacute" unicode="&#x15a;" 
d="M385 867l-191 -127l-44 67l191 127zM267 700c128 0 217 -80 217 -195h-80c0 34 -12 62 -35 82c-24 22 -60 33 -102 33s-77 -11 -102 -33c-23 -20 -35 -48 -35 -82c0 -33 12 -62 35 -82c25 -22 60 -33 102 -33c128 0 217 -80 217 -195s-89 -195 -217 -195
s-217 80 -217 195h80c0 -34 12 -62 35 -82c25 -22 60 -33 102 -33s78 11 102 33c23 20 35 48 35 82s-12 62 -35 82c-24 22 -60 33 -102 33c-128 0 -217 80 -217 195s89 195 217 195z" />
    <glyph glyph-name="Scaron" unicode="&#x160;" 
d="M407 879l-140 -139l-139 139l57 57l82 -83l83 83zM267 700c128 0 217 -80 217 -195h-80c0 34 -12 62 -35 82c-24 22 -60 33 -102 33s-77 -11 -102 -33c-23 -20 -35 -48 -35 -82c0 -33 12 -62 35 -82c25 -22 60 -33 102 -33c128 0 217 -80 217 -195s-89 -195 -217 -195
s-217 80 -217 195h80c0 -34 12 -62 35 -82c25 -22 60 -33 102 -33s78 11 102 33c23 20 35 48 35 82s-12 62 -35 82c-24 22 -60 33 -102 33c-128 0 -217 80 -217 195s89 195 217 195z" />
    <glyph glyph-name="Scedilla" unicode="&#x15e;" 
d="M267 390c128 0 217 -80 217 -195c0 -104 -73 -179 -181 -193v-2c15 -6 29 -14 40 -26c21 -20 32 -49 32 -80c0 -32 -11 -61 -32 -81c-20 -21 -49 -32 -80 -32c-23 0 -45 6 -63 17c-18 12 -33 29 -41 49l74 31c6 -14 19 -17 30 -17c21 0 32 11 32 33c0 21 -11 32 -32 32
h-40v77c-104 17 -173 91 -173 192h80c0 -34 12 -62 35 -82c25 -22 60 -33 102 -33s78 11 102 33c23 20 35 48 35 82s-12 62 -35 82c-24 22 -60 33 -102 33c-128 0 -217 80 -217 195s89 195 217 195s217 -80 217 -195h-80c0 34 -12 62 -35 82c-24 22 -60 33 -102 33
s-77 -11 -102 -33c-23 -20 -35 -48 -35 -82c0 -33 12 -62 35 -82c25 -22 60 -33 102 -33z" />
    <glyph glyph-name="Scommaaccent" unicode="&#x218;" 
d="M267 700c128 0 217 -80 217 -195h-80c0 34 -12 62 -35 82c-24 22 -60 33 -102 33s-77 -11 -102 -33c-23 -20 -35 -48 -35 -82c0 -33 12 -62 35 -82c25 -22 60 -33 102 -33c128 0 217 -80 217 -195s-89 -195 -217 -195s-217 80 -217 195h80c0 -34 12 -62 35 -82
c25 -22 60 -33 102 -33s78 11 102 33c23 20 35 48 35 82s-12 62 -35 82c-24 22 -60 33 -102 33c-128 0 -217 80 -217 195s89 195 217 195zM343 -40v-40c0 -74 -23 -141 -65 -191l-26 -31l-61 51l26 31c30 36 46 85 46 140v40h80z" />
    <glyph glyph-name="T" unicode="T" horiz-adv-x="512" 
d="M462 620h-166v-620h-80v620h-166v80h412v-80z" />
    <glyph glyph-name="Tbar" unicode="&#x166;" horiz-adv-x="512" 
d="M296 620v-230h62v-80h-62v-310h-80v310h-62v80h62v230h-166v80h412v-80h-166z" />
    <glyph glyph-name="Tcaron" unicode="&#x164;" horiz-adv-x="512" 
d="M396 879l-140 -139l-139 139l57 57l82 -83l83 83zM462 620h-166v-620h-80v620h-166v80h412v-80z" />
    <glyph glyph-name="Tcedilla" unicode="&#x162;" horiz-adv-x="512" 
d="M296 620v-620c15 -6 29 -14 40 -26c21 -20 32 -49 32 -80c0 -32 -11 -61 -32 -81c-20 -21 -49 -32 -80 -32c-23 0 -45 6 -63 17c-18 12 -33 29 -41 49l74 31c6 -14 19 -17 30 -17c21 0 32 11 32 33c0 21 -11 32 -32 32h-40v694h-166v80h412v-80h-166z" />
    <glyph glyph-name="uni021A" unicode="&#x21a;" horiz-adv-x="512" 
d="M462 620h-166v-620h-80v620h-166v80h412v-80zM296 -40v-40c0 -74 -23 -141 -65 -191l-26 -31l-61 51l26 31c30 36 46 85 46 140v40h80z" />
    <glyph glyph-name="U" unicode="U" horiz-adv-x="535" 
d="M485 700v-461c0 -68 -21 -127 -59 -171c-20 -22 -43 -39 -70 -50c-27 -12 -57 -18 -88 -18c-32 0 -62 6 -89 18c-27 11 -50 28 -70 50c-38 44 -59 103 -59 171v461h80v-461c0 -48 14 -89 39 -117c24 -28 58 -42 99 -42c40 0 74 14 98 42c25 28 39 69 39 117v461h80z" />
    <glyph glyph-name="Uacute" unicode="&#xda;" horiz-adv-x="535" 
d="M385 867l-191 -127l-44 67l191 127zM485 700v-461c0 -68 -21 -127 -59 -171c-20 -22 -43 -39 -70 -50c-27 -12 -57 -18 -88 -18c-32 0 -62 6 -89 18c-27 11 -50 28 -70 50c-38 44 -59 103 -59 171v461h80v-461c0 -48 14 -89 39 -117c24 -28 58 -42 99 -42
c40 0 74 14 98 42c25 28 39 69 39 117v461h80z" />
    <glyph glyph-name="Ucaron" unicode="&#x1d3;" horiz-adv-x="535" 
d="M407 879l-140 -139l-139 139l57 57l82 -83l83 83zM485 700v-461c0 -68 -21 -127 -59 -171c-20 -22 -43 -39 -70 -50c-27 -12 -57 -18 -88 -18c-32 0 -62 6 -89 18c-27 11 -50 28 -70 50c-38 44 -59 103 -59 171v461h80v-461c0 -48 14 -89 39 -117c24 -28 58 -42 99 -42
c40 0 74 14 98 42c25 28 39 69 39 117v461h80z" />
    <glyph glyph-name="Ucircumflex" unicode="&#xdb;" horiz-adv-x="535" 
d="M267 823l-82 -83l-57 57l139 139l140 -139l-57 -57zM485 700v-461c0 -68 -21 -127 -59 -171c-20 -22 -43 -39 -70 -50c-27 -12 -57 -18 -88 -18c-32 0 -62 6 -89 18c-27 11 -50 28 -70 50c-38 44 -59 103 -59 171v461h80v-461c0 -48 14 -89 39 -117c24 -28 58 -42 99 -42
c40 0 74 14 98 42c25 28 39 69 39 117v461h80z" />
    <glyph glyph-name="Udieresis" unicode="&#xdc;" horiz-adv-x="535" 
d="M203 840c27 0 50 -23 50 -50c0 -28 -23 -50 -50 -50c-28 0 -50 22 -50 50c0 27 22 50 50 50zM333 840c27 0 50 -23 50 -50c0 -28 -23 -50 -50 -50c-28 0 -50 22 -50 50c0 27 22 50 50 50zM485 700v-461c0 -68 -21 -127 -59 -171c-20 -22 -43 -39 -70 -50
c-27 -12 -57 -18 -88 -18c-32 0 -62 6 -89 18c-27 11 -50 28 -70 50c-38 44 -59 103 -59 171v461h80v-461c0 -48 14 -89 39 -117c24 -28 58 -42 99 -42c40 0 74 14 98 42c25 28 39 69 39 117v461h80z" />
    <glyph glyph-name="Udieresisacute" unicode="&#x1d7;" horiz-adv-x="535" 
d="M385 987l-191 -127l-44 67l191 127zM203 840c27 0 50 -23 50 -50c0 -28 -23 -50 -50 -50c-28 0 -50 22 -50 50c0 27 22 50 50 50zM333 840c27 0 50 -23 50 -50c0 -28 -23 -50 -50 -50c-28 0 -50 22 -50 50c0 27 22 50 50 50zM485 700v-461c0 -68 -21 -127 -59 -171
c-20 -22 -43 -39 -70 -50c-27 -12 -57 -18 -88 -18c-32 0 -62 6 -89 18c-27 11 -50 28 -70 50c-38 44 -59 103 -59 171v461h80v-461c0 -48 14 -89 39 -117c24 -28 58 -42 99 -42c40 0 74 14 98 42c25 28 39 69 39 117v461h80z" />
    <glyph glyph-name="Udieresiscaron" unicode="&#x1d9;" horiz-adv-x="535" 
d="M407 979l-140 -139l-139 139l57 57l82 -83l83 83zM202 840c27 0 50 -23 50 -50c0 -28 -23 -50 -50 -50c-28 0 -50 22 -50 50c0 27 22 50 50 50zM332 840c27 0 50 -23 50 -50c0 -28 -23 -50 -50 -50c-28 0 -50 22 -50 50c0 27 22 50 50 50zM485 700v-461
c0 -68 -21 -127 -59 -171c-20 -22 -43 -39 -70 -50c-27 -12 -57 -18 -88 -18c-32 0 -62 6 -89 18c-27 11 -50 28 -70 50c-38 44 -59 103 -59 171v461h80v-461c0 -48 14 -89 39 -117c24 -28 58 -42 99 -42c40 0 74 14 98 42c25 28 39 69 39 117v461h80z" />
    <glyph glyph-name="Udieresisgrave" unicode="&#x1db;" horiz-adv-x="535" 
d="M385 927l-44 -67l-191 127l44 67zM203 840c27 0 50 -23 50 -50c0 -28 -23 -50 -50 -50c-28 0 -50 22 -50 50c0 27 22 50 50 50zM333 840c27 0 50 -23 50 -50c0 -28 -23 -50 -50 -50c-28 0 -50 22 -50 50c0 27 22 50 50 50zM485 700v-461c0 -68 -21 -127 -59 -171
c-20 -22 -43 -39 -70 -50c-27 -12 -57 -18 -88 -18c-32 0 -62 6 -89 18c-27 11 -50 28 -70 50c-38 44 -59 103 -59 171v461h80v-461c0 -48 14 -89 39 -117c24 -28 58 -42 99 -42c40 0 74 14 98 42c25 28 39 69 39 117v461h80z" />
    <glyph glyph-name="Udieresismacron" unicode="&#x1d5;" horiz-adv-x="535" 
d="M370 870h-204v80h204v-80zM203 840c27 0 50 -23 50 -50c0 -28 -23 -50 -50 -50c-28 0 -50 22 -50 50c0 27 22 50 50 50zM333 840c27 0 50 -23 50 -50c0 -28 -23 -50 -50 -50c-28 0 -50 22 -50 50c0 27 22 50 50 50zM485 700v-461c0 -68 -21 -127 -59 -171
c-20 -22 -43 -39 -70 -50c-27 -12 -57 -18 -88 -18c-32 0 -62 6 -89 18c-27 11 -50 28 -70 50c-38 44 -59 103 -59 171v461h80v-461c0 -48 14 -89 39 -117c24 -28 58 -42 99 -42c40 0 74 14 98 42c25 28 39 69 39 117v461h80z" />
    <glyph glyph-name="Udotbelow" unicode="&#x1ee4;" horiz-adv-x="535" 
d="M485 700v-461c0 -68 -21 -127 -59 -171c-20 -22 -43 -39 -70 -50c-27 -12 -57 -18 -88 -18c-32 0 -62 6 -89 18c-27 11 -50 28 -70 50c-38 44 -59 103 -59 171v461h80v-461c0 -48 14 -89 39 -117c24 -28 58 -42 99 -42c40 0 74 14 98 42c25 28 39 69 39 117v461h80z
M268 -40c27 0 50 -23 50 -50c0 -28 -23 -50 -50 -50c-28 0 -50 22 -50 50c0 27 22 50 50 50z" />
    <glyph glyph-name="Ugrave" unicode="&#xd9;" horiz-adv-x="535" 
d="M385 807l-44 -67l-191 127l44 67zM485 700v-461c0 -68 -21 -127 -59 -171c-20 -22 -43 -39 -70 -50c-27 -12 -57 -18 -88 -18c-32 0 -62 6 -89 18c-27 11 -50 28 -70 50c-38 44 -59 103 -59 171v461h80v-461c0 -48 14 -89 39 -117c24 -28 58 -42 99 -42c40 0 74 14 98 42
c25 28 39 69 39 117v461h80z" />
    <glyph glyph-name="Uhookabove" unicode="&#x1ee6;" horiz-adv-x="535" 
d="M192 965h40c31 0 60 -11 81 -32c20 -20 31 -49 31 -80c0 -32 -11 -61 -31 -81c-21 -21 -50 -32 -81 -32h-40v80h40c21 0 32 11 32 33c0 21 -11 32 -32 32h-40v80zM485 700v-461c0 -68 -21 -127 -59 -171c-20 -22 -43 -39 -70 -50c-27 -12 -57 -18 -88 -18
c-32 0 -62 6 -89 18c-27 11 -50 28 -70 50c-38 44 -59 103 -59 171v461h80v-461c0 -48 14 -89 39 -117c24 -28 58 -42 99 -42c40 0 74 14 98 42c25 28 39 69 39 117v461h80z" />
    <glyph glyph-name="Uhorn" unicode="&#x1af;" horiz-adv-x="639" 
d="M629 700v-102c0 -35 -13 -66 -35 -88c-22 -23 -54 -35 -88 -35h-21v-236c0 -68 -21 -127 -59 -171c-20 -22 -43 -39 -70 -50c-27 -12 -57 -18 -88 -18c-32 0 -62 6 -89 18c-27 11 -50 28 -70 50c-38 44 -59 103 -59 171v461h80v-461c0 -48 14 -89 39 -117
c24 -28 58 -42 99 -42c40 0 74 14 98 42c25 28 39 69 39 117v461h80v-145h21c27 0 43 16 43 43v102h80z" />
    <glyph glyph-name="Uhornacute" unicode="&#x1ee8;" horiz-adv-x="639" 
d="M194 740l-44 67l191 127l44 -67zM629 700v-102c0 -35 -13 -66 -35 -88c-22 -23 -54 -35 -88 -35h-21v-236c0 -68 -21 -127 -59 -171c-20 -22 -43 -39 -70 -50c-27 -12 -57 -18 -88 -18c-32 0 -62 6 -89 18c-27 11 -50 28 -70 50c-38 44 -59 103 -59 171v461h80v-461
c0 -48 14 -89 39 -117c24 -28 58 -42 99 -42c40 0 74 14 98 42c25 28 39 69 39 117v461h80v-145h21c27 0 43 16 43 43v102h80z" />
    <glyph glyph-name="Uhorndotbelow" unicode="&#x1ef0;" horiz-adv-x="639" 
d="M629 700v-102c0 -35 -13 -66 -35 -88c-22 -23 -54 -35 -88 -35h-21v-236c0 -68 -21 -127 -59 -171c-20 -22 -43 -39 -70 -50c-27 -12 -57 -18 -88 -18c-32 0 -62 6 -89 18c-27 11 -50 28 -70 50c-38 44 -59 103 -59 171v461h80v-461c0 -48 14 -89 39 -117
c24 -28 58 -42 99 -42c40 0 74 14 98 42c25 28 39 69 39 117v461h80v-145h21c27 0 43 16 43 43v102h80zM268 -40c27 0 50 -23 50 -50c0 -28 -23 -50 -50 -50c-28 0 -50 22 -50 50c0 27 22 50 50 50z" />
    <glyph glyph-name="Uhorngrave" unicode="&#x1eea;" horiz-adv-x="639" 
d="M341 740l-191 127l44 67l191 -127zM629 700v-102c0 -35 -13 -66 -35 -88c-22 -23 -54 -35 -88 -35h-21v-236c0 -68 -21 -127 -59 -171c-20 -22 -43 -39 -70 -50c-27 -12 -57 -18 -88 -18c-32 0 -62 6 -89 18c-27 11 -50 28 -70 50c-38 44 -59 103 -59 171v461h80v-461
c0 -48 14 -89 39 -117c24 -28 58 -42 99 -42c40 0 74 14 98 42c25 28 39 69 39 117v461h80v-145h21c27 0 43 16 43 43v102h80z" />
    <glyph glyph-name="Uhornhookabove" unicode="&#x1eec;" horiz-adv-x="639" 
d="M313 772c-21 -21 -50 -32 -81 -32h-40v80h40c21 0 32 11 32 33c0 21 -11 32 -32 32h-40v80h40c31 0 60 -11 81 -32c20 -20 31 -49 31 -80c0 -32 -11 -61 -31 -81zM629 700v-102c0 -35 -13 -66 -35 -88c-22 -23 -54 -35 -88 -35h-21v-236c0 -68 -21 -127 -59 -171
c-20 -22 -43 -39 -70 -50c-27 -12 -57 -18 -88 -18c-32 0 -62 6 -89 18c-27 11 -50 28 -70 50c-38 44 -59 103 -59 171v461h80v-461c0 -48 14 -89 39 -117c24 -28 58 -42 99 -42c40 0 74 14 98 42c25 28 39 69 39 117v461h80v-145h21c27 0 43 16 43 43v102h80z" />
    <glyph glyph-name="Uhorntilde" unicode="&#x1eee;" horiz-adv-x="639" 
d="M194 765h-80v40c0 24 8 46 22 64c14 16 33 27 54 32c22 4 45 1 65 -9c22 -12 39 -30 50 -55c8 -19 21 -17 25 -17c5 2 12 5 12 18v40h80v-40c0 -25 -8 -47 -22 -64c-14 -16 -33 -28 -54 -32c-21 -3 -41 -3 -65 9c-22 11 -39 30 -50 54c-8 19 -21 18 -25 18
c-5 -2 -12 -6 -12 -18v-40zM629 700v-102c0 -35 -13 -66 -35 -88c-22 -23 -54 -35 -88 -35h-21v-236c0 -68 -21 -127 -59 -171c-20 -22 -43 -39 -70 -50c-27 -12 -57 -18 -88 -18c-32 0 -62 6 -89 18c-27 11 -50 28 -70 50c-38 44 -59 103 -59 171v461h80v-461
c0 -48 14 -89 39 -117c24 -28 58 -42 99 -42c40 0 74 14 98 42c25 28 39 69 39 117v461h80v-145h21c27 0 43 16 43 43v102h80z" />
    <glyph glyph-name="Uhungarumlaut" unicode="&#x170;" horiz-adv-x="535" 
d="M282 887l-110 -147l-64 48l110 147zM427 887l-110 -147l-64 48l110 147zM485 700v-461c0 -68 -21 -127 -59 -171c-20 -22 -43 -39 -70 -50c-27 -12 -57 -18 -88 -18c-32 0 -62 6 -89 18c-27 11 -50 28 -70 50c-38 44 -59 103 -59 171v461h80v-461c0 -48 14 -89 39 -117
c24 -28 58 -42 99 -42c40 0 74 14 98 42c25 28 39 69 39 117v461h80z" />
    <glyph glyph-name="Umacron" unicode="&#x16a;" horiz-adv-x="535" 
d="M370 740h-204v80h204v-80zM485 700v-461c0 -68 -21 -127 -59 -171c-20 -22 -43 -39 -70 -50c-27 -12 -57 -18 -88 -18c-32 0 -62 6 -89 18c-27 11 -50 28 -70 50c-38 44 -59 103 -59 171v461h80v-461c0 -48 14 -89 39 -117c24 -28 58 -42 99 -42c40 0 74 14 98 42
c25 28 39 69 39 117v461h80z" />
    <glyph glyph-name="Uogonek" unicode="&#x172;" horiz-adv-x="535" 
d="M485 700v-461c0 -68 -21 -127 -59 -171c-20 -22 -43 -39 -70 -50c-24 -11 -51 -17 -79 -18c-21 -3 -33 -19 -33 -42c0 -27 16 -43 43 -43c13 0 29 3 38 20l71 -37c-20 -39 -61 -63 -109 -63c-35 0 -66 12 -88 35c-23 22 -35 53 -35 88c0 22 5 43 14 60
c-26 11 -49 28 -69 50c-38 44 -59 103 -59 171v461h80v-461c0 -48 14 -89 39 -117c24 -28 58 -42 99 -42h2c5 1 11 1 16 1c32 4 60 17 80 41c25 28 39 69 39 117v461h80z" />
    <glyph glyph-name="Uring" unicode="&#x16e;" horiz-adv-x="535" 
d="M268 965c31 0 60 -11 80 -32c21 -20 32 -49 32 -80c0 -32 -11 -61 -32 -81c-20 -21 -49 -32 -80 -32c-32 0 -61 11 -81 32c-21 20 -32 49 -32 81c0 31 11 60 32 80c20 21 49 32 81 32zM268 885c-22 0 -33 -11 -33 -32c0 -22 11 -33 33 -33c21 0 32 11 32 33
c0 21 -11 32 -32 32zM485 700v-461c0 -68 -21 -127 -59 -171c-20 -22 -43 -39 -70 -50c-27 -12 -57 -18 -88 -18c-32 0 -62 6 -89 18c-27 11 -50 28 -70 50c-38 44 -59 103 -59 171v461h80v-461c0 -48 14 -89 39 -117c24 -28 58 -42 99 -42c40 0 74 14 98 42
c25 28 39 69 39 117v461h80z" />
    <glyph glyph-name="Utilde" unicode="&#x168;" horiz-adv-x="535" 
d="M190 901c22 4 45 1 65 -9c22 -12 39 -30 50 -55c8 -19 21 -17 25 -17c5 2 12 5 12 18v40h80v-40c0 -25 -8 -47 -22 -64c-14 -16 -33 -28 -54 -32c-21 -3 -41 -3 -65 9c-22 11 -39 30 -50 54c-8 19 -21 18 -25 18c-5 -2 -12 -6 -12 -18v-40h-80v40c0 24 8 46 22 64
c14 16 33 27 54 32zM485 700v-461c0 -68 -21 -127 -59 -171c-20 -22 -43 -39 -70 -50c-27 -12 -57 -18 -88 -18c-32 0 -62 6 -89 18c-27 11 -50 28 -70 50c-38 44 -59 103 -59 171v461h80v-461c0 -48 14 -89 39 -117c24 -28 58 -42 99 -42c40 0 74 14 98 42
c25 28 39 69 39 117v461h80z" />
    <glyph glyph-name="V" unicode="V" horiz-adv-x="565" 
d="M283 -1l-233 701h84l149 -447l148 447h84z" />
    <glyph glyph-name="W" unicode="W" horiz-adv-x="871" 
d="M607 251l131 449h83l-203 -701l-183 478l-182 -478l-203 701h83l130 -449l172 450z" />
    <glyph glyph-name="Wacute" unicode="&#x1e82;" horiz-adv-x="871" 
d="M553 867l-191 -127l-44 67l191 127zM607 251l131 449h83l-203 -701l-183 478l-182 -478l-203 701h83l130 -449l172 450z" />
    <glyph glyph-name="Wcircumflex" unicode="&#x174;" horiz-adv-x="871" 
d="M435 823l-82 -83l-57 57l139 139l140 -139l-57 -57zM607 251l131 449h83l-203 -701l-183 478l-182 -478l-203 701h83l130 -449l172 450z" />
    <glyph glyph-name="Wdieresis" unicode="&#x1e84;" horiz-adv-x="871" 
d="M371 840c27 0 50 -23 50 -50c0 -28 -23 -50 -50 -50c-28 0 -50 22 -50 50c0 27 22 50 50 50zM501 840c27 0 50 -23 50 -50c0 -28 -23 -50 -50 -50c-28 0 -50 22 -50 50c0 27 22 50 50 50zM607 251l131 449h83l-203 -701l-183 478l-182 -478l-203 701h83l130 -449l172 450
z" />
    <glyph glyph-name="Wgrave" unicode="&#x1e80;" horiz-adv-x="871" 
d="M553 807l-44 -67l-191 127l44 67zM607 251l131 449h83l-203 -701l-183 478l-182 -478l-203 701h83l130 -449l172 450z" />
    <glyph glyph-name="X" unicode="X" horiz-adv-x="592" 
d="M342 350l200 -350h-92l-154 269l-154 -269h-92l200 350l-200 350h92l154 -269l154 269h92z" />
    <glyph glyph-name="Y" unicode="Y" horiz-adv-x="584" 
d="M332 296v-296h-80v296l-202 404h89l153 -305l152 305h90z" />
    <glyph glyph-name="Yacute" unicode="&#xdd;" horiz-adv-x="584" 
d="M410 867l-191 -127l-44 67l191 127zM332 296v-296h-80v296l-202 404h89l153 -305l152 305h90z" />
    <glyph glyph-name="Ycircumflex" unicode="&#x176;" horiz-adv-x="584" 
d="M292 823l-82 -83l-57 57l139 139l140 -139l-57 -57zM332 296v-296h-80v296l-202 404h89l153 -305l152 305h90z" />
    <glyph glyph-name="Ydieresis" unicode="&#x178;" horiz-adv-x="584" 
d="M227 840c27 0 50 -23 50 -50c0 -28 -23 -50 -50 -50c-28 0 -50 22 -50 50c0 27 22 50 50 50zM357 840c27 0 50 -23 50 -50c0 -28 -23 -50 -50 -50c-28 0 -50 22 -50 50c0 27 22 50 50 50zM332 296v-296h-80v296l-202 404h89l153 -305l152 305h90z" />
    <glyph glyph-name="Ydotbelow" unicode="&#x1ef4;" horiz-adv-x="584" 
d="M332 296v-296h-80v296l-202 404h89l153 -305l152 305h90zM303 -40c27 0 50 -23 50 -50c0 -28 -23 -50 -50 -50c-28 0 -50 22 -50 50c0 27 22 50 50 50z" />
    <glyph glyph-name="Ygrave" unicode="&#x1ef2;" horiz-adv-x="584" 
d="M410 807l-44 -67l-191 127l44 67zM332 296v-296h-80v296l-202 404h89l153 -305l152 305h90z" />
    <glyph glyph-name="Yhookabove" unicode="&#x1ef6;" horiz-adv-x="584" 
d="M216 965h40c31 0 60 -11 81 -32c20 -20 31 -49 31 -80c0 -32 -11 -61 -31 -81c-21 -21 -50 -32 -81 -32h-40v80h40c21 0 32 11 32 33c0 21 -11 32 -32 32h-40v80zM332 296v-296h-80v296l-202 404h89l153 -305l152 305h90z" />
    <glyph glyph-name="Ytilde" unicode="&#x1ef8;" horiz-adv-x="584" 
d="M214 901c22 4 45 1 65 -9c22 -12 39 -30 50 -55c8 -19 21 -17 25 -17c5 2 12 5 12 18v40h80v-40c0 -25 -8 -47 -22 -64c-14 -16 -33 -28 -54 -32c-21 -3 -41 -3 -65 9c-22 11 -39 30 -50 54c-8 19 -21 18 -25 18c-5 -2 -12 -6 -12 -18v-40h-80v40c0 24 8 46 22 64
c14 16 33 27 54 32zM332 296v-296h-80v296l-202 404h89l153 -305l152 305h90z" />
    <glyph glyph-name="Z" unicode="Z" horiz-adv-x="540" 
d="M179 80h286v-80h-415l310 620h-285v80h415z" />
    <glyph glyph-name="Zacute" unicode="&#x179;" horiz-adv-x="540" 
d="M388 867l-191 -127l-44 67l191 127zM179 80h286v-80h-415l310 620h-285v80h415z" />
    <glyph glyph-name="Zcaron" unicode="&#x17d;" horiz-adv-x="540" 
d="M410 879l-140 -139l-139 139l57 57l82 -83l83 83zM179 80h286v-80h-415l310 620h-285v80h415z" />
    <glyph glyph-name="Zdotaccent" unicode="&#x17b;" horiz-adv-x="540" 
d="M270 840c27 0 50 -23 50 -50c0 -28 -23 -50 -50 -50c-28 0 -50 22 -50 50c0 27 22 50 50 50zM179 80h286v-80h-415l310 620h-285v80h415z" />
    <glyph glyph-name="a" unicode="a" 
d="M245 523c69 0 128 -20 171 -59c22 -20 39 -43 51 -70s17 -57 17 -88v-306h-80v49c-42 -32 -96 -49 -159 -49c-54 0 -101 13 -135 38c-39 27 -60 67 -60 113c0 45 21 85 60 112c34 25 81 39 135 39h159v4c0 40 -14 74 -41 98c-29 26 -69 39 -118 39
c-46 0 -85 -12 -113 -35l-51 62c43 35 99 53 164 53zM404 222h-159c-36 0 -68 -9 -89 -24c-17 -12 -26 -28 -26 -47c0 -20 9 -36 26 -48c21 -15 53 -23 89 -23c49 0 89 13 118 39c27 24 41 58 41 98v5z" />
    <glyph glyph-name="aacute" unicode="&#xe1;" 
d="M385 690l-191 -127l-44 67l191 127zM245 523c69 0 128 -20 171 -59c22 -20 39 -43 51 -70s17 -57 17 -88v-306h-80v49c-42 -32 -96 -49 -159 -49c-54 0 -101 13 -135 38c-39 27 -60 67 -60 113c0 45 21 85 60 112c34 25 81 39 135 39h159v4c0 40 -14 74 -41 98
c-29 26 -69 39 -118 39c-46 0 -85 -12 -113 -35l-51 62c43 35 99 53 164 53zM404 222h-159c-36 0 -68 -9 -89 -24c-17 -12 -26 -28 -26 -47c0 -20 9 -36 26 -48c21 -15 53 -23 89 -23c49 0 89 13 118 39c27 24 41 58 41 98v5z" />
    <glyph glyph-name="abreve" unicode="&#x103;" 
d="M411 726v-40c0 -36 -15 -69 -43 -91c-26 -21 -61 -32 -100 -32c-40 0 -75 11 -100 32c-29 22 -44 55 -44 91v40h80v-40c0 -32 33 -43 64 -43c30 0 63 11 63 43v40h80zM245 523c69 0 128 -20 171 -59c22 -20 39 -43 51 -70s17 -57 17 -88v-306h-80v49
c-42 -32 -96 -49 -159 -49c-54 0 -101 13 -135 38c-39 27 -60 67 -60 113c0 45 21 85 60 112c34 25 81 39 135 39h159v4c0 40 -14 74 -41 98c-29 26 -69 39 -118 39c-46 0 -85 -12 -113 -35l-51 62c43 35 99 53 164 53zM404 222h-159c-36 0 -68 -9 -89 -24
c-17 -12 -26 -28 -26 -47c0 -20 9 -36 26 -48c21 -15 53 -23 89 -23c49 0 89 13 118 39c27 24 41 58 41 98v5z" />
    <glyph glyph-name="abreveacute" unicode="&#x1eaf;" 
d="M443 843l-191 -127l-44 67l191 127zM411 726v-40c0 -36 -15 -69 -43 -91c-26 -21 -61 -32 -100 -32c-40 0 -75 11 -100 32c-29 22 -44 55 -44 91v40h80v-40c0 -32 33 -43 64 -43c30 0 63 11 63 43v40h80zM245 523c69 0 128 -20 171 -59c22 -20 39 -43 51 -70
s17 -57 17 -88v-306h-80v49c-42 -32 -96 -49 -159 -49c-54 0 -101 13 -135 38c-39 27 -60 67 -60 113c0 45 21 85 60 112c34 25 81 39 135 39h159v4c0 40 -14 74 -41 98c-29 26 -69 39 -118 39c-46 0 -85 -12 -113 -35l-51 62c43 35 99 53 164 53zM404 222h-159
c-36 0 -68 -9 -89 -24c-17 -12 -26 -28 -26 -47c0 -20 9 -36 26 -48c21 -15 53 -23 89 -23c49 0 89 13 118 39c27 24 41 58 41 98v5z" />
    <glyph glyph-name="abrevedotbelow" unicode="&#x1eb7;" 
d="M411 726v-40c0 -36 -15 -69 -43 -91c-26 -21 -61 -32 -100 -32c-40 0 -75 11 -100 32c-29 22 -44 55 -44 91v40h80v-40c0 -32 33 -43 64 -43c30 0 63 11 63 43v40h80zM245 523c69 0 128 -20 171 -59c22 -20 39 -43 51 -70s17 -57 17 -88v-306h-80v49
c-42 -32 -96 -49 -159 -49c-54 0 -101 13 -135 38c-39 27 -60 67 -60 113c0 45 21 85 60 112c34 25 81 39 135 39h159v4c0 40 -14 74 -41 98c-29 26 -69 39 -118 39c-46 0 -85 -12 -113 -35l-51 62c43 35 99 53 164 53zM404 222h-159c-36 0 -68 -9 -89 -24
c-17 -12 -26 -28 -26 -47c0 -20 9 -36 26 -48c21 -15 53 -23 89 -23c49 0 89 13 118 39c27 24 41 58 41 98v5zM267 -40c27 0 50 -23 50 -50c0 -28 -23 -50 -50 -50c-28 0 -50 22 -50 50c0 27 22 50 50 50z" />
    <glyph glyph-name="abrevegrave" unicode="&#x1eb1;" 
d="M327 783l-44 -67l-191 127l44 67zM411 726v-40c0 -36 -15 -69 -43 -91c-26 -21 -61 -32 -100 -32c-40 0 -75 11 -100 32c-29 22 -44 55 -44 91v40h80v-40c0 -32 33 -43 64 -43c30 0 63 11 63 43v40h80zM245 523c69 0 128 -20 171 -59c22 -20 39 -43 51 -70s17 -57 17 -88
v-306h-80v49c-42 -32 -96 -49 -159 -49c-54 0 -101 13 -135 38c-39 27 -60 67 -60 113c0 45 21 85 60 112c34 25 81 39 135 39h159v4c0 40 -14 74 -41 98c-29 26 -69 39 -118 39c-46 0 -85 -12 -113 -35l-51 62c43 35 99 53 164 53zM404 222h-159c-36 0 -68 -9 -89 -24
c-17 -12 -26 -28 -26 -47c0 -20 9 -36 26 -48c21 -15 53 -23 89 -23c49 0 89 13 118 39c27 24 41 58 41 98v5z" />
    <glyph glyph-name="abrevehookabove" unicode="&#x1eb3;" 
d="M222 961h40c31 0 60 -11 81 -32c20 -20 31 -49 31 -80c0 -32 -11 -61 -31 -81c-21 -21 -50 -32 -81 -32h-40v80h40c21 0 32 11 32 33c0 21 -11 32 -32 32h-40v80zM411 726v-40c0 -36 -15 -69 -43 -91c-26 -21 -61 -32 -100 -32c-40 0 -75 11 -100 32
c-29 22 -44 55 -44 91v40h80v-40c0 -32 33 -43 64 -43c30 0 63 11 63 43v40h80zM245 523c69 0 128 -20 171 -59c22 -20 39 -43 51 -70s17 -57 17 -88v-306h-80v49c-42 -32 -96 -49 -159 -49c-54 0 -101 13 -135 38c-39 27 -60 67 -60 113c0 45 21 85 60 112
c34 25 81 39 135 39h159v4c0 40 -14 74 -41 98c-29 26 -69 39 -118 39c-46 0 -85 -12 -113 -35l-51 62c43 35 99 53 164 53zM404 222h-159c-36 0 -68 -9 -89 -24c-17 -12 -26 -28 -26 -47c0 -20 9 -36 26 -48c21 -15 53 -23 89 -23c49 0 89 13 118 39c27 24 41 58 41 98v5z
" />
    <glyph glyph-name="abrevetilde" unicode="&#x1eb5;" 
d="M189 907c22 4 45 1 65 -9c22 -12 39 -30 50 -55c8 -19 21 -17 25 -17c5 2 12 5 12 18v40h80v-40c0 -25 -8 -47 -22 -64c-14 -16 -33 -28 -54 -32c-21 -3 -41 -3 -65 9c-22 11 -39 30 -50 54c-8 19 -21 18 -25 18c-5 -2 -12 -6 -12 -18v-40h-80v40c0 24 8 46 22 64
c14 16 33 27 54 32zM411 726v-40c0 -36 -15 -69 -43 -91c-26 -21 -61 -32 -100 -32c-40 0 -75 11 -100 32c-29 22 -44 55 -44 91v40h80v-40c0 -32 33 -43 64 -43c30 0 63 11 63 43v40h80zM245 523c69 0 128 -20 171 -59c22 -20 39 -43 51 -70s17 -57 17 -88v-306h-80v49
c-42 -32 -96 -49 -159 -49c-54 0 -101 13 -135 38c-39 27 -60 67 -60 113c0 45 21 85 60 112c34 25 81 39 135 39h159v4c0 40 -14 74 -41 98c-29 26 -69 39 -118 39c-46 0 -85 -12 -113 -35l-51 62c43 35 99 53 164 53zM404 222h-159c-36 0 -68 -9 -89 -24
c-17 -12 -26 -28 -26 -47c0 -20 9 -36 26 -48c21 -15 53 -23 89 -23c49 0 89 13 118 39c27 24 41 58 41 98v5z" />
    <glyph glyph-name="acaron" unicode="&#x1ce;" 
d="M407 702l-140 -139l-139 139l57 57l82 -83l83 83zM245 523c69 0 128 -20 171 -59c22 -20 39 -43 51 -70s17 -57 17 -88v-306h-80v49c-42 -32 -96 -49 -159 -49c-54 0 -101 13 -135 38c-39 27 -60 67 -60 113c0 45 21 85 60 112c34 25 81 39 135 39h159v4
c0 40 -14 74 -41 98c-29 26 -69 39 -118 39c-46 0 -85 -12 -113 -35l-51 62c43 35 99 53 164 53zM404 222h-159c-36 0 -68 -9 -89 -24c-17 -12 -26 -28 -26 -47c0 -20 9 -36 26 -48c21 -15 53 -23 89 -23c49 0 89 13 118 39c27 24 41 58 41 98v5z" />
    <glyph glyph-name="acircumflex" unicode="&#xe2;" 
d="M267 646l-82 -83l-57 57l139 139l140 -139l-57 -57zM245 523c69 0 128 -20 171 -59c22 -20 39 -43 51 -70s17 -57 17 -88v-306h-80v49c-42 -32 -96 -49 -159 -49c-54 0 -101 13 -135 38c-39 27 -60 67 -60 113c0 45 21 85 60 112c34 25 81 39 135 39h159v4
c0 40 -14 74 -41 98c-29 26 -69 39 -118 39c-46 0 -85 -12 -113 -35l-51 62c43 35 99 53 164 53zM404 222h-159c-36 0 -68 -9 -89 -24c-17 -12 -26 -28 -26 -47c0 -20 9 -36 26 -48c21 -15 53 -23 89 -23c49 0 89 13 118 39c27 24 41 58 41 98v5z" />
    <glyph glyph-name="acircumflexacute" unicode="&#x1ea5;" 
d="M384 876l-191 -127l-44 67l191 127zM267 646l-82 -83l-57 57l139 139l140 -139l-57 -57zM245 523c69 0 128 -20 171 -59c22 -20 39 -43 51 -70s17 -57 17 -88v-306h-80v49c-42 -32 -96 -49 -159 -49c-54 0 -101 13 -135 38c-39 27 -60 67 -60 113c0 45 21 85 60 112
c34 25 81 39 135 39h159v4c0 40 -14 74 -41 98c-29 26 -69 39 -118 39c-46 0 -85 -12 -113 -35l-51 62c43 35 99 53 164 53zM404 222h-159c-36 0 -68 -9 -89 -24c-17 -12 -26 -28 -26 -47c0 -20 9 -36 26 -48c21 -15 53 -23 89 -23c49 0 89 13 118 39c27 24 41 58 41 98v5z
" />
    <glyph glyph-name="acircumflexdotbelow" unicode="&#x1ead;" 
d="M267 646l-82 -83l-57 57l139 139l140 -139l-57 -57zM245 523c69 0 128 -20 171 -59c22 -20 39 -43 51 -70s17 -57 17 -88v-306h-80v49c-42 -32 -96 -49 -159 -49c-54 0 -101 13 -135 38c-39 27 -60 67 -60 113c0 45 21 85 60 112c34 25 81 39 135 39h159v4
c0 40 -14 74 -41 98c-29 26 -69 39 -118 39c-46 0 -85 -12 -113 -35l-51 62c43 35 99 53 164 53zM404 222h-159c-36 0 -68 -9 -89 -24c-17 -12 -26 -28 -26 -47c0 -20 9 -36 26 -48c21 -15 53 -23 89 -23c49 0 89 13 118 39c27 24 41 58 41 98v5zM267 -40
c27 0 50 -23 50 -50c0 -28 -23 -50 -50 -50c-28 0 -50 22 -50 50c0 27 22 50 50 50z" />
    <glyph glyph-name="acircumflexgrave" unicode="&#x1ea7;" 
d="M384 816l-44 -67l-191 127l44 67zM267 646l-82 -83l-57 57l139 139l140 -139l-57 -57zM245 523c69 0 128 -20 171 -59c22 -20 39 -43 51 -70s17 -57 17 -88v-306h-80v49c-42 -32 -96 -49 -159 -49c-54 0 -101 13 -135 38c-39 27 -60 67 -60 113c0 45 21 85 60 112
c34 25 81 39 135 39h159v4c0 40 -14 74 -41 98c-29 26 -69 39 -118 39c-46 0 -85 -12 -113 -35l-51 62c43 35 99 53 164 53zM404 222h-159c-36 0 -68 -9 -89 -24c-17 -12 -26 -28 -26 -47c0 -20 9 -36 26 -48c21 -15 53 -23 89 -23c49 0 89 13 118 39c27 24 41 58 41 98v5z
" />
    <glyph glyph-name="acircumflexhookabove" unicode="&#x1ea9;" 
d="M205 1004h40c31 0 60 -11 81 -32c20 -20 31 -49 31 -80c0 -32 -11 -61 -31 -81c-21 -21 -50 -32 -81 -32h-40v80h40c21 0 32 11 32 33c0 21 -11 32 -32 32h-40v80zM267 646l-82 -83l-57 57l139 139l140 -139l-57 -57zM245 523c69 0 128 -20 171 -59c22 -20 39 -43 51 -70
s17 -57 17 -88v-306h-80v49c-42 -32 -96 -49 -159 -49c-54 0 -101 13 -135 38c-39 27 -60 67 -60 113c0 45 21 85 60 112c34 25 81 39 135 39h159v4c0 40 -14 74 -41 98c-29 26 -69 39 -118 39c-46 0 -85 -12 -113 -35l-51 62c43 35 99 53 164 53zM404 222h-159
c-36 0 -68 -9 -89 -24c-17 -12 -26 -28 -26 -47c0 -20 9 -36 26 -48c21 -15 53 -23 89 -23c49 0 89 13 118 39c27 24 41 58 41 98v5z" />
    <glyph glyph-name="acircumflextilde" unicode="&#x1eab;" 
d="M189 920c22 4 45 1 65 -9c22 -12 39 -30 50 -55c8 -19 21 -17 25 -17c5 2 12 5 12 18v40h80v-40c0 -25 -8 -47 -22 -64c-14 -16 -33 -28 -54 -32c-21 -3 -41 -3 -65 9c-22 11 -39 30 -50 54c-8 19 -21 18 -25 18c-5 -2 -12 -6 -12 -18v-40h-80v40c0 24 8 46 22 64
c14 16 33 27 54 32zM267 646l-82 -83l-57 57l139 139l140 -139l-57 -57zM245 523c69 0 128 -20 171 -59c22 -20 39 -43 51 -70s17 -57 17 -88v-306h-80v49c-42 -32 -96 -49 -159 -49c-54 0 -101 13 -135 38c-39 27 -60 67 -60 113c0 45 21 85 60 112c34 25 81 39 135 39h159
v4c0 40 -14 74 -41 98c-29 26 -69 39 -118 39c-46 0 -85 -12 -113 -35l-51 62c43 35 99 53 164 53zM404 222h-159c-36 0 -68 -9 -89 -24c-17 -12 -26 -28 -26 -47c0 -20 9 -36 26 -48c21 -15 53 -23 89 -23c49 0 89 13 118 39c27 24 41 58 41 98v5z" />
    <glyph glyph-name="adieresis" unicode="&#xe4;" 
d="M202 663c27 0 50 -23 50 -50c0 -28 -23 -50 -50 -50c-28 0 -50 22 -50 50c0 27 22 50 50 50zM332 663c27 0 50 -23 50 -50c0 -28 -23 -50 -50 -50c-28 0 -50 22 -50 50c0 27 22 50 50 50zM245 523c69 0 128 -20 171 -59c22 -20 39 -43 51 -70s17 -57 17 -88v-306h-80v49
c-42 -32 -96 -49 -159 -49c-54 0 -101 13 -135 38c-39 27 -60 67 -60 113c0 45 21 85 60 112c34 25 81 39 135 39h159v4c0 40 -14 74 -41 98c-29 26 -69 39 -118 39c-46 0 -85 -12 -113 -35l-51 62c43 35 99 53 164 53zM404 222h-159c-36 0 -68 -9 -89 -24
c-17 -12 -26 -28 -26 -47c0 -20 9 -36 26 -48c21 -15 53 -23 89 -23c49 0 89 13 118 39c27 24 41 58 41 98v5z" />
    <glyph glyph-name="adotbelow" unicode="&#x1ea1;" 
d="M245 523c69 0 128 -20 171 -59c22 -20 39 -43 51 -70s17 -57 17 -88v-306h-80v49c-42 -32 -96 -49 -159 -49c-54 0 -101 13 -135 38c-39 27 -60 67 -60 113c0 45 21 85 60 112c34 25 81 39 135 39h159v4c0 40 -14 74 -41 98c-29 26 -69 39 -118 39
c-46 0 -85 -12 -113 -35l-51 62c43 35 99 53 164 53zM404 222h-159c-36 0 -68 -9 -89 -24c-17 -12 -26 -28 -26 -47c0 -20 9 -36 26 -48c21 -15 53 -23 89 -23c49 0 89 13 118 39c27 24 41 58 41 98v5zM267 -40c27 0 50 -23 50 -50c0 -28 -23 -50 -50 -50
c-28 0 -50 22 -50 50c0 27 22 50 50 50z" />
    <glyph glyph-name="agrave" unicode="&#xe0;" 
d="M385 630l-44 -67l-191 127l44 67zM245 523c69 0 128 -20 171 -59c22 -20 39 -43 51 -70s17 -57 17 -88v-306h-80v49c-42 -32 -96 -49 -159 -49c-54 0 -101 13 -135 38c-39 27 -60 67 -60 113c0 45 21 85 60 112c34 25 81 39 135 39h159v4c0 40 -14 74 -41 98
c-29 26 -69 39 -118 39c-46 0 -85 -12 -113 -35l-51 62c43 35 99 53 164 53zM404 222h-159c-36 0 -68 -9 -89 -24c-17 -12 -26 -28 -26 -47c0 -20 9 -36 26 -48c21 -15 53 -23 89 -23c49 0 89 13 118 39c27 24 41 58 41 98v5z" />
    <glyph glyph-name="ahookabove" unicode="&#x1ea3;" 
d="M191 788h40c31 0 60 -11 81 -32c20 -20 31 -49 31 -80c0 -32 -11 -61 -31 -81c-21 -21 -50 -32 -81 -32h-40v80h40c21 0 32 11 32 33c0 21 -11 32 -32 32h-40v80zM245 523c69 0 128 -20 171 -59c22 -20 39 -43 51 -70s17 -57 17 -88v-306h-80v49
c-42 -32 -96 -49 -159 -49c-54 0 -101 13 -135 38c-39 27 -60 67 -60 113c0 45 21 85 60 112c34 25 81 39 135 39h159v4c0 40 -14 74 -41 98c-29 26 -69 39 -118 39c-46 0 -85 -12 -113 -35l-51 62c43 35 99 53 164 53zM404 222h-159c-36 0 -68 -9 -89 -24
c-17 -12 -26 -28 -26 -47c0 -20 9 -36 26 -48c21 -15 53 -23 89 -23c49 0 89 13 118 39c27 24 41 58 41 98v5z" />
    <glyph glyph-name="amacron" unicode="&#x101;" 
d="M369 563h-204v80h204v-80zM245 523c69 0 128 -20 171 -59c22 -20 39 -43 51 -70s17 -57 17 -88v-306h-80v49c-42 -32 -96 -49 -159 -49c-54 0 -101 13 -135 38c-39 27 -60 67 -60 113c0 45 21 85 60 112c34 25 81 39 135 39h159v4c0 40 -14 74 -41 98
c-29 26 -69 39 -118 39c-46 0 -85 -12 -113 -35l-51 62c43 35 99 53 164 53zM404 222h-159c-36 0 -68 -9 -89 -24c-17 -12 -26 -28 -26 -47c0 -20 9 -36 26 -48c21 -15 53 -23 89 -23c49 0 89 13 118 39c27 24 41 58 41 98v5z" />
    <glyph glyph-name="aogonek" unicode="&#x105;" 
d="M442 -66l71 -37c-20 -39 -61 -63 -109 -63c-35 0 -66 12 -88 35c-23 22 -35 53 -35 88c0 16 3 32 8 46c-14 -2 -29 -3 -44 -3c-54 0 -101 13 -135 38c-39 27 -60 67 -60 113c0 45 21 85 60 112c34 25 81 39 135 39h159v4c0 40 -14 74 -41 98c-29 26 -69 39 -118 39
c-46 0 -85 -12 -113 -35l-51 62c43 35 99 53 164 53c69 0 128 -20 171 -59c22 -20 39 -43 51 -70s17 -57 17 -88v-306h-80c-27 0 -43 -16 -43 -43s16 -43 43 -43c13 0 29 3 38 20zM156 103c21 -15 53 -23 89 -23c49 0 89 13 118 39c27 24 41 58 41 98v5h-159
c-36 0 -68 -9 -89 -24c-17 -12 -26 -28 -26 -47c0 -20 9 -36 26 -48z" />
    <glyph glyph-name="aring" unicode="&#xe5;" 
d="M268 788c31 0 60 -11 80 -32c21 -20 32 -49 32 -80c0 -32 -11 -61 -32 -81c-20 -21 -49 -32 -80 -32c-32 0 -61 11 -81 32c-21 20 -32 49 -32 81c0 31 11 60 32 80c20 21 49 32 81 32zM268 708c-22 0 -33 -11 -33 -32c0 -22 11 -33 33 -33c21 0 32 11 32 33
c0 21 -11 32 -32 32zM245 523c69 0 128 -20 171 -59c22 -20 39 -43 51 -70s17 -57 17 -88v-306h-80v49c-42 -32 -96 -49 -159 -49c-54 0 -101 13 -135 38c-39 27 -60 67 -60 113c0 45 21 85 60 112c34 25 81 39 135 39h159v4c0 40 -14 74 -41 98c-29 26 -69 39 -118 39
c-46 0 -85 -12 -113 -35l-51 62c43 35 99 53 164 53zM404 222h-159c-36 0 -68 -9 -89 -24c-17 -12 -26 -28 -26 -47c0 -20 9 -36 26 -48c21 -15 53 -23 89 -23c49 0 89 13 118 39c27 24 41 58 41 98v5z" />
    <glyph glyph-name="atilde" unicode="&#xe3;" 
d="M189 724c22 4 45 1 65 -9c22 -12 39 -30 50 -55c8 -19 21 -17 25 -17c5 2 12 5 12 18v40h80v-40c0 -25 -8 -47 -22 -64c-14 -16 -33 -28 -54 -32c-21 -3 -41 -3 -65 9c-22 11 -39 30 -50 54c-8 19 -21 18 -25 18c-5 -2 -12 -6 -12 -18v-40h-80v40c0 24 8 46 22 64
c14 16 33 27 54 32zM245 523c69 0 128 -20 171 -59c22 -20 39 -43 51 -70s17 -57 17 -88v-306h-80v49c-42 -32 -96 -49 -159 -49c-54 0 -101 13 -135 38c-39 27 -60 67 -60 113c0 45 21 85 60 112c34 25 81 39 135 39h159v4c0 40 -14 74 -41 98c-29 26 -69 39 -118 39
c-46 0 -85 -12 -113 -35l-51 62c43 35 99 53 164 53zM404 222h-159c-36 0 -68 -9 -89 -24c-17 -12 -26 -28 -26 -47c0 -20 9 -36 26 -48c21 -15 53 -23 89 -23c49 0 89 13 118 39c27 24 41 58 41 98v5z" />
    <glyph glyph-name="ae" unicode="&#xe6;" horiz-adv-x="889" 
d="M622 523c127 0 217 -89 217 -217v-84h-355v-5c0 -41 13 -75 38 -100c24 -24 58 -37 100 -37c39 0 72 12 96 34l54 -59c-39 -36 -91 -55 -150 -55c-78 0 -142 33 -179 88c-8 -11 -17 -20 -27 -29c-43 -39 -103 -59 -171 -59c-54 0 -101 13 -135 38c-39 27 -60 67 -60 113
c0 45 21 85 60 112c34 25 81 39 135 39h159v4c0 40 -14 74 -41 98c-29 26 -69 39 -118 39c-46 0 -85 -12 -114 -35l-50 62c43 35 99 53 164 53c68 0 128 -20 171 -59c10 -9 19 -18 27 -29c37 55 101 88 179 88zM622 443c-42 0 -76 -13 -100 -37c-25 -25 -38 -59 -38 -100v-4
h275v4c0 41 -13 75 -37 100c-25 24 -59 37 -100 37zM404 222h-159c-36 0 -68 -9 -89 -24c-17 -12 -26 -28 -26 -47c0 -20 9 -36 26 -48c21 -15 53 -23 89 -23c49 0 89 13 118 39c27 24 41 58 41 98v5z" />
    <glyph glyph-name="b" unicode="b" 
d="M130 700v-221c36 28 83 44 137 44c128 0 217 -89 217 -217v-89c0 -128 -89 -217 -217 -217c-54 0 -101 16 -137 44v-44h-80v700h80zM267 443c-41 0 -75 -13 -100 -37c-24 -25 -37 -59 -37 -100v-89c0 -41 13 -75 37 -100c25 -24 59 -37 100 -37s76 13 100 37
c25 25 37 59 37 100v89c0 41 -12 75 -37 100c-24 24 -59 37 -100 37z" />
    <glyph glyph-name="c" unicode="c" horiz-adv-x="510" 
d="M267 523c43 0 82 -10 115 -29s60 -47 78 -81l-71 -37c-11 21 -26 37 -47 49s-46 18 -75 18c-41 0 -75 -13 -100 -37c-24 -25 -37 -59 -37 -100v-89c0 -41 13 -75 37 -100c25 -24 59 -37 100 -37c29 0 54 6 75 18s36 28 47 49l71 -37c-18 -34 -45 -62 -78 -81
s-72 -29 -115 -29c-128 0 -217 89 -217 217v89c0 128 89 217 217 217z" />
    <glyph glyph-name="cacute" unicode="&#x107;" horiz-adv-x="510" 
d="M373 690l-191 -127l-44 67l191 127zM267 523c43 0 82 -10 115 -29s60 -47 78 -81l-71 -37c-11 21 -26 37 -47 49s-46 18 -75 18c-41 0 -75 -13 -100 -37c-24 -25 -37 -59 -37 -100v-89c0 -41 13 -75 37 -100c25 -24 59 -37 100 -37c29 0 54 6 75 18s36 28 47 49l71 -37
c-18 -34 -45 -62 -78 -81s-72 -29 -115 -29c-128 0 -217 89 -217 217v89c0 128 89 217 217 217z" />
    <glyph glyph-name="ccaron" unicode="&#x10d;" horiz-adv-x="510" 
d="M395 702l-140 -139l-139 139l57 57l82 -83l83 83zM267 523c43 0 82 -10 115 -29s60 -47 78 -81l-71 -37c-11 21 -26 37 -47 49s-46 18 -75 18c-41 0 -75 -13 -100 -37c-24 -25 -37 -59 -37 -100v-89c0 -41 13 -75 37 -100c25 -24 59 -37 100 -37c29 0 54 6 75 18
s36 28 47 49l71 -37c-18 -34 -45 -62 -78 -81s-72 -29 -115 -29c-128 0 -217 89 -217 217v89c0 128 89 217 217 217z" />
    <glyph glyph-name="ccedilla" unicode="&#xe7;" horiz-adv-x="510" 
d="M342 98c21 12 36 28 47 49l71 -37c-18 -34 -45 -62 -78 -81c-27 -15 -57 -25 -91 -28v-1c15 -6 29 -14 40 -26c21 -20 32 -49 32 -80c0 -32 -11 -61 -32 -81c-20 -21 -49 -32 -80 -32c-23 0 -45 6 -63 17c-18 12 -33 29 -41 49l74 31c6 -14 19 -17 30 -17
c21 0 32 11 32 33c0 21 -11 32 -32 32h-40v80c-97 22 -161 103 -161 211v89c0 128 89 217 217 217c43 0 82 -10 115 -29s60 -47 78 -81l-71 -37c-11 21 -26 37 -47 49s-46 18 -75 18c-41 0 -75 -13 -100 -37c-24 -25 -37 -59 -37 -100v-89c0 -41 13 -75 37 -100
c25 -24 59 -37 100 -37c29 0 54 6 75 18z" />
    <glyph glyph-name="cdotaccent" unicode="&#x10b;" horiz-adv-x="510" 
d="M255 663c27 0 50 -23 50 -50c0 -28 -23 -50 -50 -50c-28 0 -50 22 -50 50c0 27 22 50 50 50zM267 523c43 0 82 -10 115 -29s60 -47 78 -81l-71 -37c-11 21 -26 37 -47 49s-46 18 -75 18c-41 0 -75 -13 -100 -37c-24 -25 -37 -59 -37 -100v-89c0 -41 13 -75 37 -100
c25 -24 59 -37 100 -37c29 0 54 6 75 18s36 28 47 49l71 -37c-18 -34 -45 -62 -78 -81s-72 -29 -115 -29c-128 0 -217 89 -217 217v89c0 128 89 217 217 217z" />
    <glyph glyph-name="d" unicode="d" 
d="M484 0h-80v44c-36 -28 -83 -44 -137 -44c-128 0 -217 89 -217 217v89c0 128 89 217 217 217c54 0 101 -16 137 -44v221h80v-700zM267 443c-41 0 -76 -13 -100 -37c-25 -25 -37 -59 -37 -100v-89c0 -41 12 -75 37 -100c24 -24 59 -37 100 -37s75 13 100 37
c24 25 37 59 37 100v89c0 41 -13 75 -37 100c-25 24 -59 37 -100 37z" />
    <glyph glyph-name="eth" unicode="&#xf0;" horiz-adv-x="548" 
d="M498 687l-106 -53c12 -16 24 -32 33 -49c40 -68 59 -147 59 -235v-133c0 -128 -89 -217 -217 -217s-217 89 -217 217v45c0 127 89 217 217 217c50 0 93 -14 128 -37c-8 37 -21 72 -39 103c-11 19 -23 36 -37 52l-158 -79l-36 71l128 64c-9 6 -18 11 -28 16l-35 18l36 71
l35 -18c26 -13 50 -28 72 -46l129 64zM267 399c-41 0 -75 -13 -100 -37c-24 -25 -37 -59 -37 -100v-45c0 -41 13 -75 37 -100c25 -24 59 -37 100 -37s76 13 100 37c25 25 37 59 37 100v45c0 41 -12 75 -37 100c-24 24 -59 37 -100 37z" />
    <glyph glyph-name="dcaron" unicode="&#x10f;" horiz-adv-x="624" 
d="M484 0h-80v44c-36 -28 -83 -44 -137 -44c-128 0 -217 89 -217 217v89c0 128 89 217 217 217c54 0 101 -16 137 -44v221h80v-700zM614 454h-80v246h80v-246zM267 443c-41 0 -76 -13 -100 -37c-25 -25 -37 -59 -37 -100v-89c0 -41 12 -75 37 -100c24 -24 59 -37 100 -37
s75 13 100 37c24 25 37 59 37 100v89c0 41 -13 75 -37 100c-25 24 -59 37 -100 37z" />
    <glyph glyph-name="dcroat" unicode="&#x111;" 
d="M484 700v-700h-80v44c-36 -28 -83 -44 -137 -44c-128 0 -217 89 -217 217v89c0 128 89 217 217 217c54 0 101 -16 137 -44v93h-164v80h164v48h80zM404 217v89c0 41 -13 75 -37 100c-25 24 -59 37 -100 37s-76 -13 -100 -37c-25 -25 -37 -59 -37 -100v-89
c0 -41 12 -75 37 -100c24 -24 59 -37 100 -37s75 13 100 37c24 25 37 59 37 100z" />
    <glyph glyph-name="e" unicode="e" 
d="M267 523c128 0 217 -89 217 -217v-84h-354v-5c0 -41 13 -75 37 -100c25 -24 59 -37 100 -37c39 0 73 12 97 34l54 -59c-39 -36 -91 -55 -151 -55c-128 0 -217 89 -217 217v89c0 128 89 217 217 217zM267 443c-41 0 -75 -13 -100 -37c-24 -25 -37 -59 -37 -100v-4h274v4
c0 41 -12 75 -37 100c-24 24 -59 37 -100 37z" />
    <glyph glyph-name="eacute" unicode="&#xe9;" 
d="M385 690l-191 -127l-44 67l191 127zM267 523c128 0 217 -89 217 -217v-84h-354v-5c0 -41 13 -75 37 -100c25 -24 59 -37 100 -37c39 0 73 12 97 34l54 -59c-39 -36 -91 -55 -151 -55c-128 0 -217 89 -217 217v89c0 128 89 217 217 217zM267 443c-41 0 -75 -13 -100 -37
c-24 -25 -37 -59 -37 -100v-4h274v4c0 41 -12 75 -37 100c-24 24 -59 37 -100 37z" />
    <glyph glyph-name="ecaron" unicode="&#x11b;" 
d="M407 702l-140 -139l-139 139l57 57l82 -83l83 83zM267 523c128 0 217 -89 217 -217v-84h-354v-5c0 -41 13 -75 37 -100c25 -24 59 -37 100 -37c39 0 73 12 97 34l54 -59c-39 -36 -91 -55 -151 -55c-128 0 -217 89 -217 217v89c0 128 89 217 217 217zM267 443
c-41 0 -75 -13 -100 -37c-24 -25 -37 -59 -37 -100v-4h274v4c0 41 -12 75 -37 100c-24 24 -59 37 -100 37z" />
    <glyph glyph-name="ecircumflex" unicode="&#xea;" 
d="M267 646l-82 -83l-57 57l139 139l140 -139l-57 -57zM267 523c128 0 217 -89 217 -217v-84h-354v-5c0 -41 13 -75 37 -100c25 -24 59 -37 100 -37c39 0 73 12 97 34l54 -59c-39 -36 -91 -55 -151 -55c-128 0 -217 89 -217 217v89c0 128 89 217 217 217zM267 443
c-41 0 -75 -13 -100 -37c-24 -25 -37 -59 -37 -100v-4h274v4c0 41 -12 75 -37 100c-24 24 -59 37 -100 37z" />
    <glyph glyph-name="ecircumflexacute" unicode="&#x1ebf;" 
d="M384 876l-191 -127l-44 67l191 127zM267 646l-82 -83l-57 57l139 139l140 -139l-57 -57zM267 523c128 0 217 -89 217 -217v-84h-354v-5c0 -41 13 -75 37 -100c25 -24 59 -37 100 -37c39 0 73 12 97 34l54 -59c-39 -36 -91 -55 -151 -55c-128 0 -217 89 -217 217v89
c0 128 89 217 217 217zM267 443c-41 0 -75 -13 -100 -37c-24 -25 -37 -59 -37 -100v-4h274v4c0 41 -12 75 -37 100c-24 24 -59 37 -100 37z" />
    <glyph glyph-name="ecircumflexdotbelow" unicode="&#x1ec7;" 
d="M267 646l-82 -83l-57 57l139 139l140 -139l-57 -57zM267 523c128 0 217 -89 217 -217v-84h-354v-5c0 -41 13 -75 37 -100c25 -24 59 -37 100 -37c39 0 73 12 97 34l54 -59c-39 -36 -91 -55 -151 -55c-128 0 -217 89 -217 217v89c0 128 89 217 217 217zM267 443
c-41 0 -75 -13 -100 -37c-24 -25 -37 -59 -37 -100v-4h274v4c0 41 -12 75 -37 100c-24 24 -59 37 -100 37zM267 -40c27 0 50 -23 50 -50c0 -28 -23 -50 -50 -50c-28 0 -50 22 -50 50c0 27 22 50 50 50z" />
    <glyph glyph-name="ecircumflexgrave" unicode="&#x1ec1;" 
d="M384 816l-44 -67l-191 127l44 67zM267 646l-82 -83l-57 57l139 139l140 -139l-57 -57zM267 523c128 0 217 -89 217 -217v-84h-354v-5c0 -41 13 -75 37 -100c25 -24 59 -37 100 -37c39 0 73 12 97 34l54 -59c-39 -36 -91 -55 -151 -55c-128 0 -217 89 -217 217v89
c0 128 89 217 217 217zM267 443c-41 0 -75 -13 -100 -37c-24 -25 -37 -59 -37 -100v-4h274v4c0 41 -12 75 -37 100c-24 24 -59 37 -100 37z" />
    <glyph glyph-name="ecircumflexhookabove" unicode="&#x1ec3;" 
d="M205 1004h40c31 0 60 -11 81 -32c20 -20 31 -49 31 -80c0 -32 -11 -61 -31 -81c-21 -21 -50 -32 -81 -32h-40v80h40c21 0 32 11 32 33c0 21 -11 32 -32 32h-40v80zM267 646l-82 -83l-57 57l139 139l140 -139l-57 -57zM267 523c128 0 217 -89 217 -217v-84h-354v-5
c0 -41 13 -75 37 -100c25 -24 59 -37 100 -37c39 0 73 12 97 34l54 -59c-39 -36 -91 -55 -151 -55c-128 0 -217 89 -217 217v89c0 128 89 217 217 217zM267 443c-41 0 -75 -13 -100 -37c-24 -25 -37 -59 -37 -100v-4h274v4c0 41 -12 75 -37 100c-24 24 -59 37 -100 37z" />
    <glyph glyph-name="ecircumflextilde" unicode="&#x1ec5;" 
d="M189 920c22 4 45 1 65 -9c22 -12 39 -30 50 -55c8 -19 21 -17 25 -17c5 2 12 5 12 18v40h80v-40c0 -25 -8 -47 -22 -64c-14 -16 -33 -28 -54 -32c-21 -3 -41 -3 -65 9c-22 11 -39 30 -50 54c-8 19 -21 18 -25 18c-5 -2 -12 -6 -12 -18v-40h-80v40c0 24 8 46 22 64
c14 16 33 27 54 32zM267 646l-82 -83l-57 57l139 139l140 -139l-57 -57zM267 523c128 0 217 -89 217 -217v-84h-354v-5c0 -41 13 -75 37 -100c25 -24 59 -37 100 -37c39 0 73 12 97 34l54 -59c-39 -36 -91 -55 -151 -55c-128 0 -217 89 -217 217v89c0 128 89 217 217 217z
M267 443c-41 0 -75 -13 -100 -37c-24 -25 -37 -59 -37 -100v-4h274v4c0 41 -12 75 -37 100c-24 24 -59 37 -100 37z" />
    <glyph glyph-name="edieresis" unicode="&#xeb;" 
d="M202 663c27 0 50 -23 50 -50c0 -28 -23 -50 -50 -50c-28 0 -50 22 -50 50c0 27 22 50 50 50zM332 663c27 0 50 -23 50 -50c0 -28 -23 -50 -50 -50c-28 0 -50 22 -50 50c0 27 22 50 50 50zM267 523c128 0 217 -89 217 -217v-84h-354v-5c0 -41 13 -75 37 -100
c25 -24 59 -37 100 -37c39 0 73 12 97 34l54 -59c-39 -36 -91 -55 -151 -55c-128 0 -217 89 -217 217v89c0 128 89 217 217 217zM267 443c-41 0 -75 -13 -100 -37c-24 -25 -37 -59 -37 -100v-4h274v4c0 41 -12 75 -37 100c-24 24 -59 37 -100 37z" />
    <glyph glyph-name="edotaccent" unicode="&#x117;" 
d="M267 663c27 0 50 -23 50 -50c0 -28 -23 -50 -50 -50c-28 0 -50 22 -50 50c0 27 22 50 50 50zM267 523c128 0 217 -89 217 -217v-84h-354v-5c0 -41 13 -75 37 -100c25 -24 59 -37 100 -37c39 0 73 12 97 34l54 -59c-39 -36 -91 -55 -151 -55c-128 0 -217 89 -217 217v89
c0 128 89 217 217 217zM267 443c-41 0 -75 -13 -100 -37c-24 -25 -37 -59 -37 -100v-4h274v4c0 41 -12 75 -37 100c-24 24 -59 37 -100 37z" />
    <glyph glyph-name="edotbelow" unicode="&#x1eb9;" 
d="M267 523c128 0 217 -89 217 -217v-84h-354v-5c0 -41 13 -75 37 -100c25 -24 59 -37 100 -37c39 0 73 12 97 34l54 -59c-39 -36 -91 -55 -151 -55c-128 0 -217 89 -217 217v89c0 128 89 217 217 217zM267 443c-41 0 -75 -13 -100 -37c-24 -25 -37 -59 -37 -100v-4h274v4
c0 41 -12 75 -37 100c-24 24 -59 37 -100 37zM267 -40c27 0 50 -23 50 -50c0 -28 -23 -50 -50 -50c-28 0 -50 22 -50 50c0 27 22 50 50 50z" />
    <glyph glyph-name="egrave" unicode="&#xe8;" 
d="M385 630l-44 -67l-191 127l44 67zM267 523c128 0 217 -89 217 -217v-84h-354v-5c0 -41 13 -75 37 -100c25 -24 59 -37 100 -37c39 0 73 12 97 34l54 -59c-39 -36 -91 -55 -151 -55c-128 0 -217 89 -217 217v89c0 128 89 217 217 217zM267 443c-41 0 -75 -13 -100 -37
c-24 -25 -37 -59 -37 -100v-4h274v4c0 41 -12 75 -37 100c-24 24 -59 37 -100 37z" />
    <glyph glyph-name="ehookabove" unicode="&#x1ebb;" 
d="M191 788h40c31 0 60 -11 81 -32c20 -20 31 -49 31 -80c0 -32 -11 -61 -31 -81c-21 -21 -50 -32 -81 -32h-40v80h40c21 0 32 11 32 33c0 21 -11 32 -32 32h-40v80zM267 523c128 0 217 -89 217 -217v-84h-354v-5c0 -41 13 -75 37 -100c25 -24 59 -37 100 -37
c39 0 73 12 97 34l54 -59c-39 -36 -91 -55 -151 -55c-128 0 -217 89 -217 217v89c0 128 89 217 217 217zM267 443c-41 0 -75 -13 -100 -37c-24 -25 -37 -59 -37 -100v-4h274v4c0 41 -12 75 -37 100c-24 24 -59 37 -100 37z" />
    <glyph glyph-name="emacron" unicode="&#x113;" 
d="M369 563h-204v80h204v-80zM267 523c128 0 217 -89 217 -217v-84h-354v-5c0 -41 13 -75 37 -100c25 -24 59 -37 100 -37c39 0 73 12 97 34l54 -59c-39 -36 -91 -55 -151 -55c-128 0 -217 89 -217 217v89c0 128 89 217 217 217zM267 443c-41 0 -75 -13 -100 -37
c-24 -25 -37 -59 -37 -100v-4h274v4c0 41 -12 75 -37 100c-24 24 -59 37 -100 37z" />
    <glyph glyph-name="eogonek" unicode="&#x119;" 
d="M130 222v-5c0 -41 13 -75 37 -100c25 -24 59 -37 100 -37h3c5 1 11 1 16 1c31 3 58 15 78 33l54 -59c-37 -34 -85 -53 -141 -55c-21 -3 -33 -19 -33 -42c0 -27 16 -43 43 -43c13 0 29 3 38 20l71 -37c-20 -39 -61 -63 -109 -63c-35 0 -66 12 -88 35c-23 22 -35 53 -35 88
c0 21 4 41 13 59c-78 31 -127 105 -127 200v89c0 128 89 217 217 217s217 -89 217 -217v-84h-354zM130 302h274v4c0 41 -12 75 -37 100c-24 24 -59 37 -100 37s-75 -13 -100 -37c-24 -25 -37 -59 -37 -100v-4z" />
    <glyph glyph-name="etilde" unicode="&#x1ebd;" 
d="M189 724c22 4 45 1 65 -9c22 -12 39 -30 50 -55c8 -19 21 -17 25 -17c5 2 12 5 12 18v40h80v-40c0 -25 -8 -47 -22 -64c-14 -16 -33 -28 -54 -32c-21 -3 -41 -3 -65 9c-22 11 -39 30 -50 54c-8 19 -21 18 -25 18c-5 -2 -12 -6 -12 -18v-40h-80v40c0 24 8 46 22 64
c14 16 33 27 54 32zM267 523c128 0 217 -89 217 -217v-84h-354v-5c0 -41 13 -75 37 -100c25 -24 59 -37 100 -37c39 0 73 12 97 34l54 -59c-39 -36 -91 -55 -151 -55c-128 0 -217 89 -217 217v89c0 128 89 217 217 217zM267 443c-41 0 -75 -13 -100 -37
c-24 -25 -37 -59 -37 -100v-4h274v4c0 41 -12 75 -37 100c-24 24 -59 37 -100 37z" />
    <glyph glyph-name="f" unicode="f" horiz-adv-x="313" 
d="M263 620h-84c-31 0 -49 -18 -49 -48v-49h133v-80h-133v-443h-80v572c0 36 13 69 36 92s56 36 93 36h84v-80z" />
    <glyph glyph-name="g" unicode="g" 
d="M484 523v-528c0 -128 -89 -217 -217 -217c-43 0 -81 10 -115 29c-33 19 -60 47 -78 81l72 37c10 -21 26 -37 46 -49c21 -12 47 -18 75 -18c41 0 76 13 100 37c25 25 37 59 37 100v48c-36 -28 -83 -43 -137 -43c-128 0 -217 89 -217 217v88c0 128 89 218 217 218
c54 0 101 -16 137 -44v44h80zM267 443c-41 0 -75 -13 -100 -38c-24 -24 -37 -59 -37 -100v-88c0 -41 13 -76 37 -100c25 -25 59 -37 100 -37s76 12 100 37c25 24 37 59 37 100v88c0 41 -12 76 -37 100c-24 25 -59 38 -100 38z" />
    <glyph glyph-name="gbreve" unicode="&#x11f;" 
d="M411 726v-40c0 -36 -15 -69 -43 -91c-26 -21 -61 -32 -100 -32c-40 0 -75 11 -100 32c-29 22 -44 55 -44 91v40h80v-40c0 -32 33 -43 64 -43c30 0 63 11 63 43v40h80zM484 523v-528c0 -128 -89 -217 -217 -217c-43 0 -81 10 -115 29c-33 19 -60 47 -78 81l72 37
c10 -21 26 -37 46 -49c21 -12 47 -18 75 -18c41 0 76 13 100 37c25 25 37 59 37 100v48c-36 -28 -83 -43 -137 -43c-128 0 -217 89 -217 217v88c0 128 89 218 217 218c54 0 101 -16 137 -44v44h80zM267 443c-41 0 -75 -13 -100 -38c-24 -24 -37 -59 -37 -100v-88
c0 -41 13 -76 37 -100c25 -25 59 -37 100 -37s76 12 100 37c25 24 37 59 37 100v88c0 41 -12 76 -37 100c-24 25 -59 38 -100 38z" />
    <glyph glyph-name="gcommaaccent" unicode="&#x123;" 
d="M191 563v40c0 74 23 141 65 191l26 31l61 -51l-26 -31c-30 -36 -46 -85 -46 -140v-40h-80zM484 523v-528c0 -128 -89 -217 -217 -217c-43 0 -81 10 -115 29c-33 19 -60 47 -78 81l72 37c10 -21 26 -37 46 -49c21 -12 47 -18 75 -18c41 0 76 13 100 37c25 25 37 59 37 100
v48c-36 -28 -83 -43 -137 -43c-128 0 -217 89 -217 217v88c0 128 89 218 217 218c54 0 101 -16 137 -44v44h80zM267 443c-41 0 -75 -13 -100 -38c-24 -24 -37 -59 -37 -100v-88c0 -41 13 -76 37 -100c25 -25 59 -37 100 -37s76 12 100 37c25 24 37 59 37 100v88
c0 41 -12 76 -37 100c-24 25 -59 38 -100 38z" />
    <glyph glyph-name="gdotaccent" unicode="&#x121;" 
d="M267 663c27 0 50 -23 50 -50c0 -28 -23 -50 -50 -50c-28 0 -50 22 -50 50c0 27 22 50 50 50zM484 523v-528c0 -128 -89 -217 -217 -217c-43 0 -81 10 -115 29c-33 19 -60 47 -78 81l72 37c10 -21 26 -37 46 -49c21 -12 47 -18 75 -18c41 0 76 13 100 37
c25 25 37 59 37 100v48c-36 -28 -83 -43 -137 -43c-128 0 -217 89 -217 217v88c0 128 89 218 217 218c54 0 101 -16 137 -44v44h80zM267 443c-41 0 -75 -13 -100 -38c-24 -24 -37 -59 -37 -100v-88c0 -41 13 -76 37 -100c25 -25 59 -37 100 -37s76 12 100 37
c25 24 37 59 37 100v88c0 41 -12 76 -37 100c-24 25 -59 38 -100 38z" />
    <glyph glyph-name="h" unicode="h" 
d="M130 700v-221c36 28 83 44 137 44c128 0 217 -89 217 -217v-306h-80v306c0 41 -12 75 -37 100c-24 24 -59 37 -100 37s-75 -13 -100 -37c-24 -25 -37 -59 -37 -100v-306h-80v700h80z" />
    <glyph glyph-name="hbar" unicode="&#x127;" 
d="M267 523c128 0 217 -89 217 -217v-306h-80v306c0 41 -12 75 -37 100c-24 24 -59 37 -100 37s-75 -13 -100 -37c-24 -25 -37 -59 -37 -100v-306h-80v700h80v-48h164v-80h-164v-93c36 28 83 44 137 44z" />
    <glyph glyph-name="i" unicode="i" horiz-adv-x="200" 
d="M100 700c28 0 50 -22 50 -50c0 -25 -22 -50 -50 -50c-25 0 -50 25 -50 50c0 28 25 50 50 50zM140 0h-80v523h80v-523z" />
    <glyph glyph-name="dotlessi" unicode="&#x131;" horiz-adv-x="180" 
d="M130 0h-80v523h80v-523z" />
    <glyph glyph-name="iacute" unicode="&#xed;" horiz-adv-x="180" 
d="M207 690l-191 -127l-44 67l191 127zM130 0h-80v523h80v-523z" />
    <glyph glyph-name="icaron" unicode="&#x1d0;" horiz-adv-x="279" 
d="M279 702l-140 -139l-139 139l57 57l82 -83l83 83zM180 0h-80v523h80v-523z" />
    <glyph glyph-name="icircumflex" unicode="&#xee;" horiz-adv-x="279" 
d="M139 646l-82 -83l-57 57l139 139l140 -139l-57 -57zM180 0h-80v523h80v-523z" />
    <glyph glyph-name="idieresis" unicode="&#xef;" horiz-adv-x="230" 
d="M50 663c27 0 50 -23 50 -50c0 -28 -23 -50 -50 -50c-28 0 -50 22 -50 50c0 27 22 50 50 50zM180 663c27 0 50 -23 50 -50c0 -28 -23 -50 -50 -50c-28 0 -50 22 -50 50c0 27 22 50 50 50zM155 0h-80v523h80v-523z" />
    <glyph glyph-name="i.loclTRK" horiz-adv-x="200" 
d="M100 700c28 0 50 -22 50 -50c0 -25 -22 -50 -50 -50c-25 0 -50 25 -50 50c0 28 25 50 50 50zM140 0h-80v523h80v-523z" />
    <glyph glyph-name="idotbelow" unicode="&#x1ecb;" horiz-adv-x="200" 
d="M100 700c28 0 50 -22 50 -50c0 -25 -22 -50 -50 -50c-25 0 -50 25 -50 50c0 28 25 50 50 50zM140 0h-80v523h80v-523zM90 -40c27 0 50 -23 50 -50c0 -28 -23 -50 -50 -50c-28 0 -50 22 -50 50c0 27 22 50 50 50z" />
    <glyph glyph-name="igrave" unicode="&#xec;" horiz-adv-x="180" 
d="M207 630l-44 -67l-191 127l44 67zM130 0h-80v523h80v-523z" />
    <glyph glyph-name="ihookabove" unicode="&#x1ec9;" horiz-adv-x="180" 
d="M14 788h40c31 0 60 -11 81 -32c20 -20 31 -49 31 -80c0 -32 -11 -61 -31 -81c-21 -21 -50 -32 -81 -32h-40v80h40c21 0 32 11 32 33c0 21 -11 32 -32 32h-40v80zM130 0h-80v523h80v-523z" />
    <glyph glyph-name="ij" unicode="&#x133;" horiz-adv-x="360" 
d="M100 700c28 0 50 -22 50 -50c0 -25 -22 -50 -50 -50c-25 0 -50 25 -50 50c0 28 25 50 50 50zM270 700c28 0 50 -22 50 -50c0 -25 -22 -50 -50 -50c-25 0 -50 25 -50 50c0 28 25 50 50 50zM140 0h-80v523h80v-523zM310 523v-616c0 -37 -13 -70 -37 -93
c-23 -23 -56 -36 -92 -36h-40v80h40c31 0 49 18 49 49v616h80z" />
    <glyph glyph-name="imacron" unicode="&#x12b;" horiz-adv-x="180" 
d="M192 563h-204v80h204v-80zM130 0h-80v523h80v-523z" />
    <glyph glyph-name="iogonek" unicode="&#x12f;" horiz-adv-x="200" 
d="M100 600c-25 0 -50 25 -50 50c0 28 25 50 50 50c28 0 50 -22 50 -50c0 -25 -22 -50 -50 -50zM140 -66l71 -37c-20 -39 -61 -63 -109 -63c-35 0 -66 12 -88 35c-23 22 -35 53 -35 88s12 66 35 88c13 13 28 23 46 29v449h80v-523h-38c-27 0 -43 -16 -43 -43s16 -43 43 -43
c13 0 29 3 38 20z" />
    <glyph glyph-name="itilde" unicode="&#x129;" horiz-adv-x="308" 
d="M76 724c22 4 45 1 65 -9c22 -12 39 -30 50 -55c8 -19 21 -17 25 -17c5 2 12 5 12 18v40h80v-40c0 -25 -8 -47 -22 -64c-14 -16 -33 -28 -54 -32c-21 -3 -41 -3 -65 9c-22 11 -39 30 -50 54c-8 19 -21 18 -25 18c-5 -2 -12 -6 -12 -18v-40h-80v40c0 24 8 46 22 64
c14 16 33 27 54 32zM189 0h-80v523h80v-523z" />
    <glyph glyph-name="j" unicode="j" horiz-adv-x="229" 
d="M129 700c28 0 50 -22 50 -50c0 -25 -22 -50 -50 -50c-25 0 -50 25 -50 50c0 28 25 50 50 50zM169 523v-616c0 -37 -13 -70 -37 -93c-23 -23 -56 -36 -92 -36h-40v80h40c31 0 49 18 49 49v616h80z" />
    <glyph glyph-name="k" unicode="k" horiz-adv-x="486" 
d="M130 249l206 274h100l-164 -219l164 -304h-91l-126 233l-89 -118v-115h-80v700h80v-451z" />
    <glyph glyph-name="kcommaaccent" unicode="&#x137;" horiz-adv-x="486" 
d="M130 249l206 274h100l-164 -219l164 -304h-91l-126 233l-89 -118v-115h-80v700h80v-451zM325 -40v-40c0 -74 -23 -141 -65 -191l-26 -31l-61 51l26 31c30 36 46 85 46 140v40h80z" />
    <glyph glyph-name="l" unicode="l" horiz-adv-x="180" 
d="M130 0h-80v700h80v-700z" />
    <glyph glyph-name="lacute" unicode="&#x13a;" horiz-adv-x="180" 
d="M212 867l-191 -127l-44 67l191 127zM130 0h-80v700h80v-700z" />
    <glyph glyph-name="lcaron" unicode="&#x13e;" horiz-adv-x="280" 
d="M130 0h-80v700h80v-700zM270 454h-80v246h80v-246z" />
    <glyph glyph-name="lcommaaccent" unicode="&#x13c;" horiz-adv-x="180" 
d="M130 0h-80v700h80v-700zM130 -40v-40c0 -74 -23 -141 -65 -191l-26 -31l-61 51l26 31c30 36 46 85 46 140v40h80z" />
    <glyph glyph-name="ldot" unicode="&#x140;" horiz-adv-x="270" 
d="M130 0h-80v700h80v-700zM220 400c27 0 50 -23 50 -50c0 -28 -23 -50 -50 -50c-28 0 -50 22 -50 50c0 27 22 50 50 50z" />
    <glyph glyph-name="lslash" unicode="&#x142;" horiz-adv-x="282" 
d="M181 319v-319h-80v301l-84 -19l-17 78l101 22v318h80v-300l84 19l17 -78z" />
    <glyph glyph-name="m" unicode="m" horiz-adv-x="800" 
d="M555 523c115 0 195 -80 195 -195v-328h-80v328c0 35 -11 64 -31 84s-49 31 -84 31c-34 0 -64 -11 -84 -31s-31 -49 -31 -84v-328h-80v328c0 35 -11 64 -31 84s-49 31 -84 31s-64 -11 -84 -31s-31 -49 -31 -84v-328h-80v523h80v-33c31 21 71 33 115 33
c66 0 121 -27 155 -71c35 44 89 71 155 71z" />
    <glyph glyph-name="n" unicode="n" 
d="M267 523c128 0 217 -89 217 -217v-306h-80v306c0 41 -12 75 -37 100c-24 24 -59 37 -100 37s-75 -13 -100 -37c-24 -25 -37 -59 -37 -100v-306h-80v523h80v-44c36 28 83 44 137 44z" />
    <glyph glyph-name="nacute" unicode="&#x144;" 
d="M385 690l-191 -127l-44 67l191 127zM267 523c128 0 217 -89 217 -217v-306h-80v306c0 41 -12 75 -37 100c-24 24 -59 37 -100 37s-75 -13 -100 -37c-24 -25 -37 -59 -37 -100v-306h-80v523h80v-44c36 28 83 44 137 44z" />
    <glyph glyph-name="ncaron" unicode="&#x148;" 
d="M407 702l-140 -139l-139 139l57 57l82 -83l83 83zM267 523c128 0 217 -89 217 -217v-306h-80v306c0 41 -12 75 -37 100c-24 24 -59 37 -100 37s-75 -13 -100 -37c-24 -25 -37 -59 -37 -100v-306h-80v523h80v-44c36 28 83 44 137 44z" />
    <glyph glyph-name="ncommaaccent" unicode="&#x146;" 
d="M267 523c128 0 217 -89 217 -217v-306h-80v306c0 41 -12 75 -37 100c-24 24 -59 37 -100 37s-75 -13 -100 -37c-24 -25 -37 -59 -37 -100v-306h-80v523h80v-44c36 28 83 44 137 44zM343 -40v-40c0 -74 -23 -141 -65 -191l-26 -31l-61 51l26 31c30 36 46 85 46 140v40h80z
" />
    <glyph glyph-name="eng" unicode="&#x14b;" 
d="M267 523c128 0 217 -89 217 -217v-294c0 -88 -34 -162 -96 -209l-32 -25l-49 64l32 24c42 32 65 84 65 146v294c0 41 -12 75 -37 100c-24 24 -59 37 -100 37s-75 -13 -100 -37c-24 -25 -37 -59 -37 -100v-306h-80v523h80v-44c36 28 83 44 137 44z" />
    <glyph glyph-name="ntilde" unicode="&#xf1;" 
d="M189 724c22 4 45 1 65 -9c22 -12 39 -30 50 -55c8 -19 21 -17 25 -17c5 2 12 5 12 18v40h80v-40c0 -25 -8 -47 -22 -64c-14 -16 -33 -28 -54 -32c-21 -3 -41 -3 -65 9c-22 11 -39 30 -50 54c-8 19 -21 18 -25 18c-5 -2 -12 -6 -12 -18v-40h-80v40c0 24 8 46 22 64
c14 16 33 27 54 32zM267 523c128 0 217 -89 217 -217v-306h-80v306c0 41 -12 75 -37 100c-24 24 -59 37 -100 37s-75 -13 -100 -37c-24 -25 -37 -59 -37 -100v-306h-80v523h80v-44c36 28 83 44 137 44z" />
    <glyph glyph-name="o" unicode="o" 
d="M267 523c128 0 217 -89 217 -217v-89c0 -128 -89 -217 -217 -217s-217 89 -217 217v89c0 128 89 217 217 217zM267 443c-41 0 -75 -13 -100 -37c-24 -25 -37 -59 -37 -100v-89c0 -41 13 -75 37 -100c25 -24 59 -37 100 -37s76 13 100 37c25 25 37 59 37 100v89
c0 41 -12 75 -37 100c-24 24 -59 37 -100 37z" />
    <glyph glyph-name="oacute" unicode="&#xf3;" 
d="M385 690l-191 -127l-44 67l191 127zM267 523c128 0 217 -89 217 -217v-89c0 -128 -89 -217 -217 -217s-217 89 -217 217v89c0 128 89 217 217 217zM267 443c-41 0 -75 -13 -100 -37c-24 -25 -37 -59 -37 -100v-89c0 -41 13 -75 37 -100c25 -24 59 -37 100 -37
s76 13 100 37c25 25 37 59 37 100v89c0 41 -12 75 -37 100c-24 24 -59 37 -100 37z" />
    <glyph glyph-name="ocaron" unicode="&#x1d2;" 
d="M407 702l-140 -139l-139 139l57 57l82 -83l83 83zM267 523c128 0 217 -89 217 -217v-89c0 -128 -89 -217 -217 -217s-217 89 -217 217v89c0 128 89 217 217 217zM267 443c-41 0 -75 -13 -100 -37c-24 -25 -37 -59 -37 -100v-89c0 -41 13 -75 37 -100
c25 -24 59 -37 100 -37s76 13 100 37c25 25 37 59 37 100v89c0 41 -12 75 -37 100c-24 24 -59 37 -100 37z" />
    <glyph glyph-name="ocircumflex" unicode="&#xf4;" 
d="M267 646l-82 -83l-57 57l139 139l140 -139l-57 -57zM267 523c128 0 217 -89 217 -217v-89c0 -128 -89 -217 -217 -217s-217 89 -217 217v89c0 128 89 217 217 217zM267 443c-41 0 -75 -13 -100 -37c-24 -25 -37 -59 -37 -100v-89c0 -41 13 -75 37 -100
c25 -24 59 -37 100 -37s76 13 100 37c25 25 37 59 37 100v89c0 41 -12 75 -37 100c-24 24 -59 37 -100 37z" />
    <glyph glyph-name="ocircumflexacute" unicode="&#x1ed1;" 
d="M384 876l-191 -127l-44 67l191 127zM267 646l-82 -83l-57 57l139 139l140 -139l-57 -57zM267 523c128 0 217 -89 217 -217v-89c0 -128 -89 -217 -217 -217s-217 89 -217 217v89c0 128 89 217 217 217zM267 443c-41 0 -75 -13 -100 -37c-24 -25 -37 -59 -37 -100v-89
c0 -41 13 -75 37 -100c25 -24 59 -37 100 -37s76 13 100 37c25 25 37 59 37 100v89c0 41 -12 75 -37 100c-24 24 -59 37 -100 37z" />
    <glyph glyph-name="ocircumflexdotbelow" unicode="&#x1ed9;" 
d="M267 646l-82 -83l-57 57l139 139l140 -139l-57 -57zM267 523c128 0 217 -89 217 -217v-89c0 -128 -89 -217 -217 -217s-217 89 -217 217v89c0 128 89 217 217 217zM267 443c-41 0 -75 -13 -100 -37c-24 -25 -37 -59 -37 -100v-89c0 -41 13 -75 37 -100
c25 -24 59 -37 100 -37s76 13 100 37c25 25 37 59 37 100v89c0 41 -12 75 -37 100c-24 24 -59 37 -100 37zM267 -40c27 0 50 -23 50 -50c0 -28 -23 -50 -50 -50c-28 0 -50 22 -50 50c0 27 22 50 50 50z" />
    <glyph glyph-name="ocircumflexgrave" unicode="&#x1ed3;" 
d="M384 816l-44 -67l-191 127l44 67zM267 646l-82 -83l-57 57l139 139l140 -139l-57 -57zM267 523c128 0 217 -89 217 -217v-89c0 -128 -89 -217 -217 -217s-217 89 -217 217v89c0 128 89 217 217 217zM267 443c-41 0 -75 -13 -100 -37c-24 -25 -37 -59 -37 -100v-89
c0 -41 13 -75 37 -100c25 -24 59 -37 100 -37s76 13 100 37c25 25 37 59 37 100v89c0 41 -12 75 -37 100c-24 24 -59 37 -100 37z" />
    <glyph glyph-name="ocircumflexhookabove" unicode="&#x1ed5;" 
d="M205 1004h40c31 0 60 -11 81 -32c20 -20 31 -49 31 -80c0 -32 -11 -61 -31 -81c-21 -21 -50 -32 -81 -32h-40v80h40c21 0 32 11 32 33c0 21 -11 32 -32 32h-40v80zM267 646l-82 -83l-57 57l139 139l140 -139l-57 -57zM267 523c128 0 217 -89 217 -217v-89
c0 -128 -89 -217 -217 -217s-217 89 -217 217v89c0 128 89 217 217 217zM267 443c-41 0 -75 -13 -100 -37c-24 -25 -37 -59 -37 -100v-89c0 -41 13 -75 37 -100c25 -24 59 -37 100 -37s76 13 100 37c25 25 37 59 37 100v89c0 41 -12 75 -37 100c-24 24 -59 37 -100 37z" />
    <glyph glyph-name="ocircumflextilde" unicode="&#x1ed7;" 
d="M189 920c22 4 45 1 65 -9c22 -12 39 -30 50 -55c8 -19 21 -17 25 -17c5 2 12 5 12 18v40h80v-40c0 -25 -8 -47 -22 -64c-14 -16 -33 -28 -54 -32c-21 -3 -41 -3 -65 9c-22 11 -39 30 -50 54c-8 19 -21 18 -25 18c-5 -2 -12 -6 -12 -18v-40h-80v40c0 24 8 46 22 64
c14 16 33 27 54 32zM267 646l-82 -83l-57 57l139 139l140 -139l-57 -57zM267 523c128 0 217 -89 217 -217v-89c0 -128 -89 -217 -217 -217s-217 89 -217 217v89c0 128 89 217 217 217zM267 443c-41 0 -75 -13 -100 -37c-24 -25 -37 -59 -37 -100v-89c0 -41 13 -75 37 -100
c25 -24 59 -37 100 -37s76 13 100 37c25 25 37 59 37 100v89c0 41 -12 75 -37 100c-24 24 -59 37 -100 37z" />
    <glyph glyph-name="odieresis" unicode="&#xf6;" 
d="M202 663c27 0 50 -23 50 -50c0 -28 -23 -50 -50 -50c-28 0 -50 22 -50 50c0 27 22 50 50 50zM332 663c27 0 50 -23 50 -50c0 -28 -23 -50 -50 -50c-28 0 -50 22 -50 50c0 27 22 50 50 50zM267 523c128 0 217 -89 217 -217v-89c0 -128 -89 -217 -217 -217
s-217 89 -217 217v89c0 128 89 217 217 217zM267 443c-41 0 -75 -13 -100 -37c-24 -25 -37 -59 -37 -100v-89c0 -41 13 -75 37 -100c25 -24 59 -37 100 -37s76 13 100 37c25 25 37 59 37 100v89c0 41 -12 75 -37 100c-24 24 -59 37 -100 37z" />
    <glyph glyph-name="odotbelow" unicode="&#x1ecd;" 
d="M267 523c128 0 217 -89 217 -217v-89c0 -128 -89 -217 -217 -217s-217 89 -217 217v89c0 128 89 217 217 217zM267 443c-41 0 -75 -13 -100 -37c-24 -25 -37 -59 -37 -100v-89c0 -41 13 -75 37 -100c25 -24 59 -37 100 -37s76 13 100 37c25 25 37 59 37 100v89
c0 41 -12 75 -37 100c-24 24 -59 37 -100 37zM267 -40c27 0 50 -23 50 -50c0 -28 -23 -50 -50 -50c-28 0 -50 22 -50 50c0 27 22 50 50 50z" />
    <glyph glyph-name="ograve" unicode="&#xf2;" 
d="M385 630l-44 -67l-191 127l44 67zM267 523c128 0 217 -89 217 -217v-89c0 -128 -89 -217 -217 -217s-217 89 -217 217v89c0 128 89 217 217 217zM267 443c-41 0 -75 -13 -100 -37c-24 -25 -37 -59 -37 -100v-89c0 -41 13 -75 37 -100c25 -24 59 -37 100 -37s76 13 100 37
c25 25 37 59 37 100v89c0 41 -12 75 -37 100c-24 24 -59 37 -100 37z" />
    <glyph glyph-name="ohookabove" unicode="&#x1ecf;" 
d="M191 788h40c31 0 60 -11 81 -32c20 -20 31 -49 31 -80c0 -32 -11 -61 -31 -81c-21 -21 -50 -32 -81 -32h-40v80h40c21 0 32 11 32 33c0 21 -11 32 -32 32h-40v80zM267 523c128 0 217 -89 217 -217v-89c0 -128 -89 -217 -217 -217s-217 89 -217 217v89
c0 128 89 217 217 217zM267 443c-41 0 -75 -13 -100 -37c-24 -25 -37 -59 -37 -100v-89c0 -41 13 -75 37 -100c25 -24 59 -37 100 -37s76 13 100 37c25 25 37 59 37 100v89c0 41 -12 75 -37 100c-24 24 -59 37 -100 37z" />
    <glyph glyph-name="ohorn" unicode="&#x1a1;" horiz-adv-x="628" 
d="M608 523v-102c0 -35 -13 -66 -35 -88c-22 -23 -54 -35 -88 -35h-1v-81c0 -128 -89 -217 -217 -217s-217 89 -217 217v89c0 128 89 217 217 217c102 0 180 -57 207 -145h11c27 0 43 16 43 43v102h80zM404 217v89c0 41 -12 75 -37 100c-24 24 -59 37 -100 37
s-75 -13 -100 -37c-24 -25 -37 -59 -37 -100v-89c0 -41 13 -75 37 -100c25 -24 59 -37 100 -37s76 13 100 37c25 25 37 59 37 100z" />
    <glyph glyph-name="ohornacute" unicode="&#x1edb;" horiz-adv-x="628" 
d="M194 563l-44 67l191 127l44 -67zM608 523v-102c0 -35 -13 -66 -35 -88c-22 -23 -54 -35 -88 -35h-1v-81c0 -128 -89 -217 -217 -217s-217 89 -217 217v89c0 128 89 217 217 217c102 0 180 -57 207 -145h11c27 0 43 16 43 43v102h80zM404 217v89c0 41 -12 75 -37 100
c-24 24 -59 37 -100 37s-75 -13 -100 -37c-24 -25 -37 -59 -37 -100v-89c0 -41 13 -75 37 -100c25 -24 59 -37 100 -37s76 13 100 37c25 25 37 59 37 100z" />
    <glyph glyph-name="ohorndotbelow" unicode="&#x1ee3;" horiz-adv-x="628" 
d="M608 523v-102c0 -35 -13 -66 -35 -88c-22 -23 -54 -35 -88 -35h-1v-81c0 -128 -89 -217 -217 -217s-217 89 -217 217v89c0 128 89 217 217 217c102 0 180 -57 207 -145h11c27 0 43 16 43 43v102h80zM404 217v89c0 41 -12 75 -37 100c-24 24 -59 37 -100 37
s-75 -13 -100 -37c-24 -25 -37 -59 -37 -100v-89c0 -41 13 -75 37 -100c25 -24 59 -37 100 -37s76 13 100 37c25 25 37 59 37 100zM267 -40c27 0 50 -23 50 -50c0 -28 -23 -50 -50 -50c-28 0 -50 22 -50 50c0 27 22 50 50 50z" />
    <glyph glyph-name="ohorngrave" unicode="&#x1edd;" horiz-adv-x="628" 
d="M341 563l-191 127l44 67l191 -127zM608 523v-102c0 -35 -13 -66 -35 -88c-22 -23 -54 -35 -88 -35h-1v-81c0 -128 -89 -217 -217 -217s-217 89 -217 217v89c0 128 89 217 217 217c102 0 180 -57 207 -145h11c27 0 43 16 43 43v102h80zM404 217v89c0 41 -12 75 -37 100
c-24 24 -59 37 -100 37s-75 -13 -100 -37c-24 -25 -37 -59 -37 -100v-89c0 -41 13 -75 37 -100c25 -24 59 -37 100 -37s76 13 100 37c25 25 37 59 37 100z" />
    <glyph glyph-name="ohornhookabove" unicode="&#x1edf;" horiz-adv-x="628" 
d="M312 595c-21 -21 -50 -32 -81 -32h-40v80h40c21 0 32 11 32 33c0 21 -11 32 -32 32h-40v80h40c31 0 60 -11 81 -32c20 -20 31 -49 31 -80c0 -32 -11 -61 -31 -81zM608 523v-102c0 -35 -13 -66 -35 -88c-22 -23 -54 -35 -88 -35h-1v-81c0 -128 -89 -217 -217 -217
s-217 89 -217 217v89c0 128 89 217 217 217c102 0 180 -57 207 -145h11c27 0 43 16 43 43v102h80zM404 217v89c0 41 -12 75 -37 100c-24 24 -59 37 -100 37s-75 -13 -100 -37c-24 -25 -37 -59 -37 -100v-89c0 -41 13 -75 37 -100c25 -24 59 -37 100 -37s76 13 100 37
c25 25 37 59 37 100z" />
    <glyph glyph-name="ohorntilde" unicode="&#x1ee1;" horiz-adv-x="628" 
d="M193 588h-80v40c0 24 8 46 22 64c14 16 33 27 54 32c22 4 45 1 65 -9c22 -12 39 -30 50 -55c8 -19 21 -17 25 -17c5 2 12 5 12 18v40h80v-40c0 -25 -8 -47 -22 -64c-14 -16 -33 -28 -54 -32c-21 -3 -41 -3 -65 9c-22 11 -39 30 -50 54c-8 19 -21 18 -25 18
c-5 -2 -12 -6 -12 -18v-40zM608 523v-102c0 -35 -13 -66 -35 -88c-22 -23 -54 -35 -88 -35h-1v-81c0 -128 -89 -217 -217 -217s-217 89 -217 217v89c0 128 89 217 217 217c102 0 180 -57 207 -145h11c27 0 43 16 43 43v102h80zM404 217v89c0 41 -12 75 -37 100
c-24 24 -59 37 -100 37s-75 -13 -100 -37c-24 -25 -37 -59 -37 -100v-89c0 -41 13 -75 37 -100c25 -24 59 -37 100 -37s76 13 100 37c25 25 37 59 37 100z" />
    <glyph glyph-name="ohungarumlaut" unicode="&#x151;" 
d="M282 710l-110 -147l-64 48l110 147zM427 710l-110 -147l-64 48l110 147zM267 523c128 0 217 -89 217 -217v-89c0 -128 -89 -217 -217 -217s-217 89 -217 217v89c0 128 89 217 217 217zM267 443c-41 0 -75 -13 -100 -37c-24 -25 -37 -59 -37 -100v-89
c0 -41 13 -75 37 -100c25 -24 59 -37 100 -37s76 13 100 37c25 25 37 59 37 100v89c0 41 -12 75 -37 100c-24 24 -59 37 -100 37z" />
    <glyph glyph-name="omacron" unicode="&#x14d;" 
d="M369 563h-204v80h204v-80zM267 523c128 0 217 -89 217 -217v-89c0 -128 -89 -217 -217 -217s-217 89 -217 217v89c0 128 89 217 217 217zM267 443c-41 0 -75 -13 -100 -37c-24 -25 -37 -59 -37 -100v-89c0 -41 13 -75 37 -100c25 -24 59 -37 100 -37s76 13 100 37
c25 25 37 59 37 100v89c0 41 -12 75 -37 100c-24 24 -59 37 -100 37z" />
    <glyph glyph-name="oslash" unicode="&#xf8;" 
d="M446 482l-16 -26c34 -38 54 -90 54 -150v-89c0 -128 -89 -217 -217 -217c-36 0 -69 7 -97 20l-13 -21l-69 42l16 26c-34 38 -54 90 -54 150v89c0 128 89 217 217 217c36 0 69 -7 98 -20l13 21zM130 306v-89c0 -29 6 -54 18 -75l176 291c-17 7 -36 10 -57 10
c-41 0 -75 -13 -100 -37c-24 -25 -37 -59 -37 -100zM404 217v89c0 29 -6 54 -18 75l-175 -292c17 -6 35 -9 56 -9c41 0 76 13 100 37c25 25 37 59 37 100z" />
    <glyph glyph-name="otilde" unicode="&#xf5;" 
d="M189 724c22 4 45 1 65 -9c22 -12 39 -30 50 -55c8 -19 21 -17 25 -17c5 2 12 5 12 18v40h80v-40c0 -25 -8 -47 -22 -64c-14 -16 -33 -28 -54 -32c-21 -3 -41 -3 -65 9c-22 11 -39 30 -50 54c-8 19 -21 18 -25 18c-5 -2 -12 -6 -12 -18v-40h-80v40c0 24 8 46 22 64
c14 16 33 27 54 32zM267 523c128 0 217 -89 217 -217v-89c0 -128 -89 -217 -217 -217s-217 89 -217 217v89c0 128 89 217 217 217zM267 443c-41 0 -75 -13 -100 -37c-24 -25 -37 -59 -37 -100v-89c0 -41 13 -75 37 -100c25 -24 59 -37 100 -37s76 13 100 37
c25 25 37 59 37 100v89c0 41 -12 75 -37 100c-24 24 -59 37 -100 37z" />
    <glyph glyph-name="oe" unicode="&#x153;" horiz-adv-x="888" 
d="M484 222v-5c0 -41 13 -75 37 -100c25 -24 59 -37 100 -37c39 0 73 12 97 34l54 -59c-39 -36 -91 -55 -151 -55c-76 0 -139 32 -177 85c-38 -53 -101 -85 -177 -85c-128 0 -217 89 -217 217v89c0 128 89 217 217 217c76 0 139 -32 177 -85c38 53 101 85 177 85
c128 0 217 -89 217 -217v-84h-354zM367 117c25 25 37 59 37 100v89c0 41 -12 75 -37 100c-24 24 -59 37 -100 37s-75 -13 -100 -37c-24 -25 -37 -59 -37 -100v-89c0 -41 13 -75 37 -100c25 -24 59 -37 100 -37s76 13 100 37zM521 406c-24 -25 -37 -59 -37 -100v-4h274v4
c0 41 -12 75 -37 100c-24 24 -59 37 -100 37s-75 -13 -100 -37z" />
    <glyph glyph-name="p" unicode="p" 
d="M267 523c128 0 217 -90 217 -218v-88c0 -128 -89 -217 -217 -217c-54 0 -101 15 -137 43v-265h-80v745h80v-44c36 28 83 44 137 44zM267 443c-41 0 -75 -13 -100 -38c-24 -24 -37 -59 -37 -100v-88c0 -41 13 -76 37 -100c25 -25 59 -37 100 -37s76 12 100 37
c25 24 37 59 37 100v88c0 41 -12 76 -37 100c-24 25 -59 38 -100 38z" />
    <glyph glyph-name="thorn" unicode="&#xfe;" horiz-adv-x="535" 
d="M130 701v-222c37 28 84 44 138 44c128 0 217 -89 217 -217v-89c0 -128 -89 -217 -217 -217c-54 0 -101 16 -138 44v-266h-80v923h80zM268 443c-41 0 -76 -13 -100 -37c-25 -24 -38 -59 -38 -100v-89c0 -41 13 -76 38 -100c24 -24 59 -37 100 -37s76 13 100 37
s37 59 37 100v89c0 41 -13 76 -37 100s-59 37 -100 37z" />
    <glyph glyph-name="q" unicode="q" 
d="M484 -222h-80v265c-36 -28 -83 -43 -137 -43c-128 0 -217 89 -217 217v88c0 128 89 218 217 218c54 0 101 -16 137 -44v44h80v-745zM267 443c-41 0 -76 -13 -100 -38c-25 -24 -37 -59 -37 -100v-88c0 -41 12 -76 37 -100c24 -25 59 -37 100 -37s75 12 100 37
c24 24 37 59 37 100v88c0 41 -13 76 -37 100c-25 25 -59 38 -100 38z" />
    <glyph glyph-name="r" unicode="r" horiz-adv-x="357" 
d="M307 443h-40c-41 0 -75 -13 -100 -37c-24 -25 -37 -59 -37 -100v-306h-80v523h80v-44c36 28 83 44 137 44h40v-80z" />
    <glyph glyph-name="racute" unicode="&#x155;" horiz-adv-x="357" 
d="M296 690l-191 -127l-44 67l191 127zM307 443h-40c-41 0 -75 -13 -100 -37c-24 -25 -37 -59 -37 -100v-306h-80v523h80v-44c36 28 83 44 137 44h40v-80z" />
    <glyph glyph-name="rcaron" unicode="&#x159;" horiz-adv-x="357" 
d="M318 702l-140 -139l-139 139l57 57l82 -83l83 83zM307 443h-40c-41 0 -75 -13 -100 -37c-24 -25 -37 -59 -37 -100v-306h-80v523h80v-44c36 28 83 44 137 44h40v-80z" />
    <glyph glyph-name="rcommaaccent" unicode="&#x157;" horiz-adv-x="357" 
d="M307 443h-40c-41 0 -75 -13 -100 -37c-24 -25 -37 -59 -37 -100v-306h-80v523h80v-44c36 28 83 44 137 44h40v-80zM130 -40v-40c0 -74 -23 -141 -65 -191l-26 -31l-61 51l26 31c30 36 46 85 46 140v40h80z" />
    <glyph glyph-name="s" unicode="s" 
d="M267 523c112 0 194 -45 213 -118l-77 -21c-9 35 -64 59 -136 59c-81 0 -137 -29 -137 -71c0 -41 56 -70 137 -70c60 0 111 -13 150 -37c43 -27 67 -68 67 -114c0 -47 -24 -87 -67 -114c-39 -24 -90 -37 -150 -37c-112 0 -194 45 -213 118l78 21c9 -35 63 -59 135 -59
c81 0 137 29 137 71c0 41 -56 71 -137 71c-59 0 -111 12 -149 36c-44 27 -68 68 -68 114c0 47 24 87 68 114c38 24 90 37 149 37z" />
    <glyph glyph-name="sacute" unicode="&#x15b;" 
d="M385 690l-191 -127l-44 67l191 127zM267 523c112 0 194 -45 213 -118l-77 -21c-9 35 -64 59 -136 59c-81 0 -137 -29 -137 -71c0 -41 56 -70 137 -70c60 0 111 -13 150 -37c43 -27 67 -68 67 -114c0 -47 -24 -87 -67 -114c-39 -24 -90 -37 -150 -37
c-112 0 -194 45 -213 118l78 21c9 -35 63 -59 135 -59c81 0 137 29 137 71c0 41 -56 71 -137 71c-59 0 -111 12 -149 36c-44 27 -68 68 -68 114c0 47 24 87 68 114c38 24 90 37 149 37z" />
    <glyph glyph-name="scaron" unicode="&#x161;" 
d="M407 702l-140 -139l-139 139l57 57l82 -83l83 83zM267 523c112 0 194 -45 213 -118l-77 -21c-9 35 -64 59 -136 59c-81 0 -137 -29 -137 -71c0 -41 56 -70 137 -70c60 0 111 -13 150 -37c43 -27 67 -68 67 -114c0 -47 -24 -87 -67 -114c-39 -24 -90 -37 -150 -37
c-112 0 -194 45 -213 118l78 21c9 -35 63 -59 135 -59c81 0 137 29 137 71c0 41 -56 71 -137 71c-59 0 -111 12 -149 36c-44 27 -68 68 -68 114c0 47 24 87 68 114c38 24 90 37 149 37z" />
    <glyph glyph-name="scedilla" unicode="&#x15f;" 
d="M417 265c43 -27 67 -68 67 -114c0 -47 -24 -87 -67 -114c-31 -19 -69 -31 -114 -35v-2c15 -6 29 -14 40 -26c21 -20 32 -49 32 -80c0 -32 -11 -61 -32 -81c-20 -21 -49 -32 -80 -32c-23 0 -45 6 -63 17c-18 12 -33 29 -41 49l74 31c6 -14 19 -17 30 -17c21 0 32 11 32 33
c0 21 -11 32 -32 32h-40v76c-89 11 -153 53 -169 116l78 21c9 -35 63 -59 135 -59c81 0 137 29 137 71c0 41 -56 71 -137 71c-59 0 -111 12 -149 36c-44 27 -68 68 -68 114c0 47 24 87 68 114c38 24 90 37 149 37c112 0 194 -45 213 -118l-77 -21c-9 35 -64 59 -136 59
c-81 0 -137 -29 -137 -71c0 -41 56 -70 137 -70c60 0 111 -13 150 -37z" />
    <glyph glyph-name="scommaaccent" unicode="&#x219;" 
d="M267 523c112 0 194 -45 213 -118l-77 -21c-9 35 -64 59 -136 59c-81 0 -137 -29 -137 -71c0 -41 56 -70 137 -70c60 0 111 -13 150 -37c43 -27 67 -68 67 -114c0 -47 -24 -87 -67 -114c-39 -24 -90 -37 -150 -37c-112 0 -194 45 -213 118l78 21c9 -35 63 -59 135 -59
c81 0 137 29 137 71c0 41 -56 71 -137 71c-59 0 -111 12 -149 36c-44 27 -68 68 -68 114c0 47 24 87 68 114c38 24 90 37 149 37zM343 -40v-40c0 -74 -23 -141 -65 -191l-26 -31l-61 51l26 31c30 36 46 85 46 140v40h80z" />
    <glyph glyph-name="germandbls" unicode="&#xdf;" 
d="M245 700c115 0 195 -80 195 -195c0 -56 -19 -104 -52 -138c59 -32 96 -94 96 -172c0 -115 -80 -195 -195 -195h-44v80h44c35 0 64 11 84 31c21 20 31 49 31 84s-10 64 -31 84c-20 20 -49 31 -84 31h-44v80c35 0 64 11 84 31s31 50 31 84c0 35 -11 64 -31 84
s-49 31 -84 31s-64 -11 -84 -31s-31 -49 -31 -84v-505h-80v505c0 115 80 195 195 195z" />
    <glyph glyph-name="t" unicode="t" horiz-adv-x="313" 
d="M130 523h133v-80h-133v-270c0 -57 36 -93 93 -93h40v-80h-40c-49 0 -93 17 -125 48c-31 32 -48 76 -48 125v527h80v-177z" />
    <glyph glyph-name="tbar" unicode="&#x167;" horiz-adv-x="313" 
d="M130 443v-103h133v-80h-133v-87c0 -57 36 -93 93 -93h40v-80h-40c-49 0 -93 17 -125 48c-31 32 -48 76 -48 125v527h80v-177h133v-80h-133z" />
    <glyph glyph-name="tcaron" unicode="&#x165;" horiz-adv-x="313" 
d="M263 573h-80v246h80v-246zM130 523h133v-80h-133v-270c0 -57 36 -93 93 -93h40v-80h-40c-49 0 -93 17 -125 48c-31 32 -48 76 -48 125v527h80v-177z" />
    <glyph glyph-name="tcedilla" unicode="&#x163;" horiz-adv-x="313" 
d="M232 -26c21 -20 32 -49 32 -80c0 -32 -11 -61 -32 -81c-20 -21 -49 -32 -80 -32c-23 0 -45 6 -63 17c-18 12 -33 29 -41 49l74 31c6 -14 19 -17 30 -17c21 0 32 11 32 33c0 21 -11 32 -32 32h-40v110c-5 4 -10 8 -14 12c-31 32 -48 76 -48 125v527h80v-177h133v-80h-133
v-270c0 -57 36 -93 93 -93h40v-80h-40c-11 0 -21 1 -31 2v-2c15 -6 29 -14 40 -26z" />
    <glyph glyph-name="uni021B" unicode="&#x21b;" horiz-adv-x="313" 
d="M130 523h133v-80h-133v-270c0 -57 36 -93 93 -93h40v-80h-40c-49 0 -93 17 -125 48c-31 32 -48 76 -48 125v527h80v-177zM233 -40v-40c0 -74 -23 -141 -65 -191l-26 -31l-61 51l26 31c30 36 46 85 46 140v40h80z" />
    <glyph glyph-name="u" unicode="u" 
d="M484 0h-80v44c-36 -28 -83 -44 -137 -44c-128 0 -217 89 -217 217v306h80v-306c0 -41 13 -75 37 -100c24 -24 59 -37 100 -37s76 13 100 37c24 25 37 59 37 100v306h80v-523z" />
    <glyph glyph-name="uacute" unicode="&#xfa;" 
d="M385 690l-191 -127l-44 67l191 127zM484 0h-80v44c-36 -28 -83 -44 -137 -44c-128 0 -217 89 -217 217v306h80v-306c0 -41 13 -75 37 -100c24 -24 59 -37 100 -37s76 13 100 37c24 25 37 59 37 100v306h80v-523z" />
    <glyph glyph-name="ucaron" unicode="&#x1d4;" 
d="M407 702l-140 -139l-139 139l57 57l82 -83l83 83zM484 0h-80v44c-36 -28 -83 -44 -137 -44c-128 0 -217 89 -217 217v306h80v-306c0 -41 13 -75 37 -100c24 -24 59 -37 100 -37s76 13 100 37c24 25 37 59 37 100v306h80v-523z" />
    <glyph glyph-name="ucircumflex" unicode="&#xfb;" 
d="M267 646l-82 -83l-57 57l139 139l140 -139l-57 -57zM484 0h-80v44c-36 -28 -83 -44 -137 -44c-128 0 -217 89 -217 217v306h80v-306c0 -41 13 -75 37 -100c24 -24 59 -37 100 -37s76 13 100 37c24 25 37 59 37 100v306h80v-523z" />
    <glyph glyph-name="udieresis" unicode="&#xfc;" 
d="M202 663c27 0 50 -23 50 -50c0 -28 -23 -50 -50 -50c-28 0 -50 22 -50 50c0 27 22 50 50 50zM332 663c27 0 50 -23 50 -50c0 -28 -23 -50 -50 -50c-28 0 -50 22 -50 50c0 27 22 50 50 50zM484 0h-80v44c-36 -28 -83 -44 -137 -44c-128 0 -217 89 -217 217v306h80v-306
c0 -41 13 -75 37 -100c24 -24 59 -37 100 -37s76 13 100 37c24 25 37 59 37 100v306h80v-523z" />
    <glyph glyph-name="udieresisacute" unicode="&#x1d8;" 
d="M384 810l-191 -127l-44 67l191 127zM202 663c27 0 50 -23 50 -50c0 -28 -23 -50 -50 -50c-28 0 -50 22 -50 50c0 27 22 50 50 50zM332 663c27 0 50 -23 50 -50c0 -28 -23 -50 -50 -50c-28 0 -50 22 -50 50c0 27 22 50 50 50zM484 0h-80v44c-36 -28 -83 -44 -137 -44
c-128 0 -217 89 -217 217v306h80v-306c0 -41 13 -75 37 -100c24 -24 59 -37 100 -37s76 13 100 37c24 25 37 59 37 100v306h80v-523z" />
    <glyph glyph-name="udieresiscaron" unicode="&#x1da;" 
d="M407 802l-140 -139l-139 139l57 57l82 -83l83 83zM202 663c27 0 50 -23 50 -50c0 -28 -23 -50 -50 -50c-28 0 -50 22 -50 50c0 27 22 50 50 50zM332 663c27 0 50 -23 50 -50c0 -28 -23 -50 -50 -50c-28 0 -50 22 -50 50c0 27 22 50 50 50zM484 0h-80v44
c-36 -28 -83 -44 -137 -44c-128 0 -217 89 -217 217v306h80v-306c0 -41 13 -75 37 -100c24 -24 59 -37 100 -37s76 13 100 37c24 25 37 59 37 100v306h80v-523z" />
    <glyph glyph-name="udieresisgrave" unicode="&#x1dc;" 
d="M384 750l-44 -67l-191 127l44 67zM202 663c27 0 50 -23 50 -50c0 -28 -23 -50 -50 -50c-28 0 -50 22 -50 50c0 27 22 50 50 50zM332 663c27 0 50 -23 50 -50c0 -28 -23 -50 -50 -50c-28 0 -50 22 -50 50c0 27 22 50 50 50zM484 0h-80v44c-36 -28 -83 -44 -137 -44
c-128 0 -217 89 -217 217v306h80v-306c0 -41 13 -75 37 -100c24 -24 59 -37 100 -37s76 13 100 37c24 25 37 59 37 100v306h80v-523z" />
    <glyph glyph-name="udieresismacron" unicode="&#x1d6;" 
d="M369 693h-204v80h204v-80zM202 663c27 0 50 -23 50 -50c0 -28 -23 -50 -50 -50c-28 0 -50 22 -50 50c0 27 22 50 50 50zM332 663c27 0 50 -23 50 -50c0 -28 -23 -50 -50 -50c-28 0 -50 22 -50 50c0 27 22 50 50 50zM484 0h-80v44c-36 -28 -83 -44 -137 -44
c-128 0 -217 89 -217 217v306h80v-306c0 -41 13 -75 37 -100c24 -24 59 -37 100 -37s76 13 100 37c24 25 37 59 37 100v306h80v-523z" />
    <glyph glyph-name="udotbelow" unicode="&#x1ee5;" 
d="M484 0h-80v44c-36 -28 -83 -44 -137 -44c-128 0 -217 89 -217 217v306h80v-306c0 -41 13 -75 37 -100c24 -24 59 -37 100 -37s76 13 100 37c24 25 37 59 37 100v306h80v-523zM267 -40c27 0 50 -23 50 -50c0 -28 -23 -50 -50 -50c-28 0 -50 22 -50 50c0 27 22 50 50 50z
" />
    <glyph glyph-name="ugrave" unicode="&#xf9;" 
d="M385 630l-44 -67l-191 127l44 67zM484 0h-80v44c-36 -28 -83 -44 -137 -44c-128 0 -217 89 -217 217v306h80v-306c0 -41 13 -75 37 -100c24 -24 59 -37 100 -37s76 13 100 37c24 25 37 59 37 100v306h80v-523z" />
    <glyph glyph-name="uhookabove" unicode="&#x1ee7;" 
d="M191 788h40c31 0 60 -11 81 -32c20 -20 31 -49 31 -80c0 -32 -11 -61 -31 -81c-21 -21 -50 -32 -81 -32h-40v80h40c21 0 32 11 32 33c0 21 -11 32 -32 32h-40v80zM484 0h-80v44c-36 -28 -83 -44 -137 -44c-128 0 -217 89 -217 217v306h80v-306c0 -41 13 -75 37 -100
c24 -24 59 -37 100 -37s76 13 100 37c24 25 37 59 37 100v306h80v-523z" />
    <glyph glyph-name="uhorn" unicode="&#x1b0;" horiz-adv-x="638" 
d="M628 523v-102c0 -35 -13 -66 -35 -88c-22 -23 -54 -35 -88 -35h-21v-298h-80v44c-36 -28 -83 -44 -137 -44c-128 0 -217 89 -217 217v306h80v-306c0 -41 13 -75 37 -100c24 -24 59 -37 100 -37s76 13 100 37c24 25 37 59 37 100v306h80v-145h21c27 0 43 16 43 43v102h80z
" />
    <glyph glyph-name="uhornacute" unicode="&#x1ee9;" horiz-adv-x="638" 
d="M194 563l-44 67l191 127l44 -67zM628 523v-102c0 -35 -13 -66 -35 -88c-22 -23 -54 -35 -88 -35h-21v-298h-80v44c-36 -28 -83 -44 -137 -44c-128 0 -217 89 -217 217v306h80v-306c0 -41 13 -75 37 -100c24 -24 59 -37 100 -37s76 13 100 37c24 25 37 59 37 100v306h80
v-145h21c27 0 43 16 43 43v102h80z" />
    <glyph glyph-name="uhorndotbelow" unicode="&#x1ef1;" horiz-adv-x="638" 
d="M628 523v-102c0 -35 -13 -66 -35 -88c-22 -23 -54 -35 -88 -35h-21v-298h-80v44c-36 -28 -83 -44 -137 -44c-128 0 -217 89 -217 217v306h80v-306c0 -41 13 -75 37 -100c24 -24 59 -37 100 -37s76 13 100 37c24 25 37 59 37 100v306h80v-145h21c27 0 43 16 43 43v102h80z
M267 -40c27 0 50 -23 50 -50c0 -28 -23 -50 -50 -50c-28 0 -50 22 -50 50c0 27 22 50 50 50z" />
    <glyph glyph-name="uhorngrave" unicode="&#x1eeb;" horiz-adv-x="638" 
d="M341 563l-191 127l44 67l191 -127zM628 523v-102c0 -35 -13 -66 -35 -88c-22 -23 -54 -35 -88 -35h-21v-298h-80v44c-36 -28 -83 -44 -137 -44c-128 0 -217 89 -217 217v306h80v-306c0 -41 13 -75 37 -100c24 -24 59 -37 100 -37s76 13 100 37c24 25 37 59 37 100v306h80
v-145h21c27 0 43 16 43 43v102h80z" />
    <glyph glyph-name="uhornhookabove" unicode="&#x1eed;" horiz-adv-x="638" 
d="M312 595c-21 -21 -50 -32 -81 -32h-40v80h40c21 0 32 11 32 33c0 21 -11 32 -32 32h-40v80h40c31 0 60 -11 81 -32c20 -20 31 -49 31 -80c0 -32 -11 -61 -31 -81zM628 523v-102c0 -35 -13 -66 -35 -88c-22 -23 -54 -35 -88 -35h-21v-298h-80v44c-36 -28 -83 -44 -137 -44
c-128 0 -217 89 -217 217v306h80v-306c0 -41 13 -75 37 -100c24 -24 59 -37 100 -37s76 13 100 37c24 25 37 59 37 100v306h80v-145h21c27 0 43 16 43 43v102h80z" />
    <glyph glyph-name="uhorntilde" unicode="&#x1eef;" horiz-adv-x="638" 
d="M193 588h-80v40c0 24 8 46 22 64c14 16 33 27 54 32c22 4 45 1 65 -9c22 -12 39 -30 50 -55c8 -19 21 -17 25 -17c5 2 12 5 12 18v40h80v-40c0 -25 -8 -47 -22 -64c-14 -16 -33 -28 -54 -32c-21 -3 -41 -3 -65 9c-22 11 -39 30 -50 54c-8 19 -21 18 -25 18
c-5 -2 -12 -6 -12 -18v-40zM628 523v-102c0 -35 -13 -66 -35 -88c-22 -23 -54 -35 -88 -35h-21v-298h-80v44c-36 -28 -83 -44 -137 -44c-128 0 -217 89 -217 217v306h80v-306c0 -41 13 -75 37 -100c24 -24 59 -37 100 -37s76 13 100 37c24 25 37 59 37 100v306h80v-145h21
c27 0 43 16 43 43v102h80z" />
    <glyph glyph-name="uhungarumlaut" unicode="&#x171;" 
d="M282 710l-110 -147l-64 48l110 147zM427 710l-110 -147l-64 48l110 147zM484 0h-80v44c-36 -28 -83 -44 -137 -44c-128 0 -217 89 -217 217v306h80v-306c0 -41 13 -75 37 -100c24 -24 59 -37 100 -37s76 13 100 37c24 25 37 59 37 100v306h80v-523z" />
    <glyph glyph-name="umacron" unicode="&#x16b;" 
d="M369 563h-204v80h204v-80zM484 0h-80v44c-36 -28 -83 -44 -137 -44c-128 0 -217 89 -217 217v306h80v-306c0 -41 13 -75 37 -100c24 -24 59 -37 100 -37s76 13 100 37c24 25 37 59 37 100v306h80v-523z" />
    <glyph glyph-name="uogonek" unicode="&#x173;" 
d="M484 523v-523h-80v44c-34 -26 -77 -42 -127 -44c-21 -3 -33 -19 -33 -42c0 -27 16 -43 43 -43c13 0 29 3 38 20l71 -37c-20 -39 -61 -63 -109 -63c-35 0 -66 12 -88 35c-23 22 -35 53 -35 88c0 21 4 41 13 59c-78 31 -127 105 -127 200v306h80v-306c0 -41 13 -75 37 -100
c24 -24 59 -37 100 -37h3c5 1 11 1 16 1c33 3 61 16 81 36c24 25 37 59 37 100v306h80z" />
    <glyph glyph-name="uring" unicode="&#x16f;" 
d="M268 788c31 0 60 -11 80 -32c21 -20 32 -49 32 -80c0 -32 -11 -61 -32 -81c-20 -21 -49 -32 -80 -32c-32 0 -61 11 -81 32c-21 20 -32 49 -32 81c0 31 11 60 32 80c20 21 49 32 81 32zM268 708c-22 0 -33 -11 -33 -32c0 -22 11 -33 33 -33c21 0 32 11 32 33
c0 21 -11 32 -32 32zM484 0h-80v44c-36 -28 -83 -44 -137 -44c-128 0 -217 89 -217 217v306h80v-306c0 -41 13 -75 37 -100c24 -24 59 -37 100 -37s76 13 100 37c24 25 37 59 37 100v306h80v-523z" />
    <glyph glyph-name="utilde" unicode="&#x169;" 
d="M189 724c22 4 45 1 65 -9c22 -12 39 -30 50 -55c8 -19 21 -17 25 -17c5 2 12 5 12 18v40h80v-40c0 -25 -8 -47 -22 -64c-14 -16 -33 -28 -54 -32c-21 -3 -41 -3 -65 9c-22 11 -39 30 -50 54c-8 19 -21 18 -25 18c-5 -2 -12 -6 -12 -18v-40h-80v40c0 24 8 46 22 64
c14 16 33 27 54 32zM484 0h-80v44c-36 -28 -83 -44 -137 -44c-128 0 -217 89 -217 217v306h80v-306c0 -41 13 -75 37 -100c24 -24 59 -37 100 -37s76 13 100 37c24 25 37 59 37 100v306h80v-523z" />
    <glyph glyph-name="v" unicode="v" horiz-adv-x="540" 
d="M270 -1l-220 524h87l133 -317l133 317h87z" />
    <glyph glyph-name="w" unicode="w" horiz-adv-x="850" 
d="M578 197l135 326h87l-218 -524l-157 337l-157 -337l-218 524h87l135 -326l153 328z" />
    <glyph glyph-name="wacute" unicode="&#x1e83;" horiz-adv-x="850" 
d="M543 690l-191 -127l-44 67l191 127zM578 197l135 326h87l-218 -524l-157 337l-157 -337l-218 524h87l135 -326l153 328z" />
    <glyph glyph-name="wcircumflex" unicode="&#x175;" horiz-adv-x="850" 
d="M425 646l-82 -83l-57 57l139 139l140 -139l-57 -57zM578 197l135 326h87l-218 -524l-157 337l-157 -337l-218 524h87l135 -326l153 328z" />
    <glyph glyph-name="wdieresis" unicode="&#x1e85;" horiz-adv-x="850" 
d="M360 663c27 0 50 -23 50 -50c0 -28 -23 -50 -50 -50c-28 0 -50 22 -50 50c0 27 22 50 50 50zM490 663c27 0 50 -23 50 -50c0 -28 -23 -50 -50 -50c-28 0 -50 22 -50 50c0 27 22 50 50 50zM578 197l135 326h87l-218 -524l-157 337l-157 -337l-218 524h87l135 -326l153 328
z" />
    <glyph glyph-name="wgrave" unicode="&#x1e81;" horiz-adv-x="850" 
d="M543 630l-44 -67l-191 127l44 67zM578 197l135 326h87l-218 -524l-157 337l-157 -337l-218 524h87l135 -326l153 328z" />
    <glyph glyph-name="x" unicode="x" horiz-adv-x="535" 
d="M315 262l170 -262h-95l-122 188l-123 -188h-95l170 262l-170 261h95l123 -188l122 188h95z" />
    <glyph glyph-name="y" unicode="y" horiz-adv-x="541" 
d="M243 -222h-85l79 236l-187 509h85l142 -388l130 388h84z" />
    <glyph glyph-name="yacute" unicode="&#xfd;" horiz-adv-x="541" 
d="M388 690l-191 -127l-44 67l191 127zM243 -222h-85l79 236l-187 509h85l142 -388l130 388h84z" />
    <glyph glyph-name="ycircumflex" unicode="&#x177;" horiz-adv-x="541" 
d="M270 646l-82 -83l-57 57l139 139l140 -139l-57 -57zM243 -222h-85l79 236l-187 509h85l142 -388l130 388h84z" />
    <glyph glyph-name="ydieresis" unicode="&#xff;" horiz-adv-x="541" 
d="M206 663c27 0 50 -23 50 -50c0 -28 -23 -50 -50 -50c-28 0 -50 22 -50 50c0 27 22 50 50 50zM336 663c27 0 50 -23 50 -50c0 -28 -23 -50 -50 -50c-28 0 -50 22 -50 50c0 27 22 50 50 50zM243 -222h-85l79 236l-187 509h85l142 -388l130 388h84z" />
    <glyph glyph-name="ydotbelow" unicode="&#x1ef5;" horiz-adv-x="541" 
d="M243 -222h-85l79 236l-187 509h85l142 -388l130 388h84zM441 -40c27 0 50 -23 50 -50c0 -28 -23 -50 -50 -50c-28 0 -50 22 -50 50c0 27 22 50 50 50z" />
    <glyph glyph-name="ygrave" unicode="&#x1ef3;" horiz-adv-x="541" 
d="M388 630l-44 -67l-191 127l44 67zM243 -222h-85l79 236l-187 509h85l142 -388l130 388h84z" />
    <glyph glyph-name="yhookabove" unicode="&#x1ef7;" horiz-adv-x="541" 
d="M195 788h40c31 0 60 -11 81 -32c20 -20 31 -49 31 -80c0 -32 -11 -61 -31 -81c-21 -21 -50 -32 -81 -32h-40v80h40c21 0 32 11 32 33c0 21 -11 32 -32 32h-40v80zM243 -222h-85l79 236l-187 509h85l142 -388l130 388h84z" />
    <glyph glyph-name="ytilde" unicode="&#x1ef9;" horiz-adv-x="541" 
d="M193 724c22 4 45 1 65 -9c22 -12 39 -30 50 -55c8 -19 21 -17 25 -17c5 2 12 5 12 18v40h80v-40c0 -25 -8 -47 -22 -64c-14 -16 -33 -28 -54 -32c-21 -3 -41 -3 -65 9c-22 11 -39 30 -50 54c-8 19 -21 18 -25 18c-5 -2 -12 -6 -12 -18v-40h-80v40c0 24 8 46 22 64
c14 16 33 27 54 32zM243 -222h-85l79 236l-187 509h85l142 -388l130 388h84z" />
    <glyph glyph-name="z" unicode="z" horiz-adv-x="564" 
d="M204 80h273v-80h-427l310 443h-273v80h427z" />
    <glyph glyph-name="zacute" unicode="&#x17a;" horiz-adv-x="564" 
d="M400 690l-191 -127l-44 67l191 127zM204 80h273v-80h-427l310 443h-273v80h427z" />
    <glyph glyph-name="zcaron" unicode="&#x17e;" horiz-adv-x="564" 
d="M422 702l-140 -139l-139 139l57 57l82 -83l83 83zM204 80h273v-80h-427l310 443h-273v80h427z" />
    <glyph glyph-name="zdotaccent" unicode="&#x17c;" horiz-adv-x="564" 
d="M282 663c27 0 50 -23 50 -50c0 -28 -23 -50 -50 -50c-28 0 -50 22 -50 50c0 27 22 50 50 50zM204 80h273v-80h-427l310 443h-273v80h427z" />
    <glyph glyph-name="zero" unicode="0" horiz-adv-x="535" 
d="M268 700c127 0 217 -89 217 -217v-266c0 -128 -90 -217 -217 -217c-128 0 -218 89 -218 217v266c0 128 90 217 218 217zM268 620c-42 0 -76 -13 -100 -37c-25 -24 -38 -59 -38 -100v-266c0 -41 13 -75 38 -100c24 -24 58 -37 100 -37c41 0 75 13 100 37
c24 25 37 59 37 100v266c0 41 -13 76 -37 100c-25 24 -59 37 -100 37z" />
    <glyph glyph-name="one" unicode="1" horiz-adv-x="326" 
d="M276 0h-80v572l-111 -54l-35 72l226 110v-700z" />
    <glyph glyph-name="two" unicode="2" 
d="M267 700c128 0 217 -89 217 -217s-89 -217 -217 -217c-41 0 -75 -13 -100 -37c-24 -25 -37 -59 -37 -100v-49h354v-80h-434v129c0 127 89 217 217 217c41 0 76 13 100 37c25 24 37 59 37 100s-12 76 -37 100c-24 24 -59 37 -100 37s-75 -13 -100 -37
c-24 -24 -37 -59 -37 -100h-80c0 128 89 217 217 217z" />
    <glyph glyph-name="three" unicode="3" horiz-adv-x="529" 
d="M262 700c128 0 217 -80 217 -195c0 -66 -30 -120 -79 -155c49 -34 79 -89 79 -155c0 -115 -89 -195 -217 -195c-53 0 -101 15 -138 44c-38 30 -64 71 -74 121l78 16c14 -63 64 -101 134 -101c42 0 77 11 102 33c23 20 35 48 35 82s-12 62 -35 82c-25 22 -60 33 -102 33
h-62v80h62c42 0 77 11 102 33c23 20 35 49 35 82c0 34 -12 62 -35 82c-25 22 -60 33 -102 33c-70 0 -120 -38 -134 -101l-78 17c10 49 36 90 74 120c37 29 85 44 138 44z" />
    <glyph glyph-name="four" unicode="4" horiz-adv-x="529" 
d="M163 257h236v177h80v-434h-80v177h-349l183 523h85z" />
    <glyph glyph-name="five" unicode="5" horiz-adv-x="542" 
d="M469 620h-294l-31 -186h130c128 0 218 -89 218 -217s-90 -217 -218 -217c-53 0 -100 15 -138 44c-37 30 -63 71 -73 121l78 16c13 -63 63 -101 133 -101c42 0 76 13 100 37c25 25 38 59 38 100s-13 76 -38 100c-24 25 -58 37 -100 37h-224l58 346h361v-80z" />
    <glyph glyph-name="six" unicode="6" 
d="M267 700c43 0 82 -10 115 -29s60 -47 78 -81l-71 -37c-11 21 -26 37 -47 49s-46 18 -75 18c-41 0 -75 -13 -100 -37c-24 -24 -37 -59 -37 -100v-92c36 28 83 43 137 43c128 0 217 -89 217 -217s-89 -217 -217 -217s-217 89 -217 217v266c0 128 89 217 217 217zM267 354
c-41 0 -75 -12 -100 -37c-24 -24 -37 -59 -37 -100s13 -75 37 -100c25 -24 59 -37 100 -37s76 13 100 37c25 25 37 59 37 100s-12 76 -37 100c-24 25 -59 37 -100 37z" />
    <glyph glyph-name="seven" unicode="7" horiz-adv-x="507" 
d="M207 0h-85l221 620h-293v80h407z" />
    <glyph glyph-name="eight" unicode="8" 
d="M267 700c128 0 217 -80 217 -195c0 -66 -29 -120 -79 -155c50 -34 79 -89 79 -155c0 -115 -89 -195 -217 -195s-217 80 -217 195c0 66 30 121 79 155c-49 35 -79 89 -79 155c0 115 89 195 217 195zM267 620c-42 0 -77 -11 -102 -33c-23 -20 -35 -48 -35 -82
c0 -33 12 -62 35 -82c25 -22 60 -33 102 -33s78 11 102 33c23 20 35 49 35 82c0 34 -12 62 -35 82c-24 22 -60 33 -102 33zM267 310c-42 0 -77 -11 -102 -33c-23 -20 -35 -48 -35 -82s12 -62 35 -82c25 -22 60 -33 102 -33s78 11 102 33c23 20 35 48 35 82s-12 62 -35 82
c-24 22 -60 33 -102 33z" />
    <glyph glyph-name="nine" unicode="9" 
d="M267 700c128 0 217 -89 217 -217v-266c0 -128 -89 -217 -217 -217c-43 0 -82 10 -115 29s-60 47 -78 81l71 37c11 -21 26 -37 47 -49s46 -18 75 -18c41 0 75 13 100 37c24 24 37 59 37 100v92c-36 -28 -83 -43 -137 -43c-128 0 -217 89 -217 217s89 217 217 217zM267 620
c-41 0 -76 -13 -100 -37c-25 -25 -37 -59 -37 -100s12 -76 37 -100c24 -25 59 -37 100 -37s75 12 100 37c24 24 37 59 37 100s-13 75 -37 100c-25 24 -59 37 -100 37z" />
    <glyph glyph-name="fraction" unicode="&#x2044;" horiz-adv-x="610" 
d="M560 671l-442 -687l-68 43l442 688z" />
    <glyph glyph-name="onehalf" unicode="&#xbd;" horiz-adv-x="735" 
d="M566 671l-442 -687l-68 43l442 688zM130 330h-80v370h80v-370zM562 370c35 0 66 -12 88 -34c23 -23 35 -54 35 -89c0 -34 -12 -66 -35 -88c-22 -22 -53 -35 -88 -35c-27 0 -43 -15 -43 -43v-1h166v-80h-246v81c0 35 12 66 35 89c22 22 53 34 88 34c27 0 43 16 43 43
c0 28 -16 43 -43 43s-43 -15 -43 -43h-80c0 35 12 66 35 89c22 22 53 34 88 34z" />
    <glyph glyph-name="onequarter" unicode="&#xbc;" horiz-adv-x="717" 
d="M566 671l-442 -687l-68 43l442 688zM130 330h-80v370h80v-370zM515 163h72v83h80v-246h-80v83h-180l86 287h84z" />
    <glyph glyph-name="threequarters" unicode="&#xbe;" horiz-adv-x="832" 
d="M681 671l-442 -687l-68 43l442 688zM173 700c34 0 64 -10 86 -30c24 -20 37 -50 37 -82c0 -28 -10 -53 -27 -73c17 -20 27 -45 27 -72c0 -33 -13 -62 -37 -83c-22 -20 -52 -30 -86 -30s-64 10 -86 30c-24 21 -37 50 -37 83h80c0 -30 30 -33 43 -33s43 3 43 33
c0 29 -30 32 -43 32h-42v80h42c13 0 43 3 43 33c0 29 -30 32 -43 32s-43 -3 -43 -32h-80c0 32 13 62 37 82c22 20 52 30 86 30zM630 163h72v83h80v-246h-80v83h-180l86 287h84z" />
    <glyph glyph-name="oneeighth" unicode="&#x215b;" horiz-adv-x="738" 
d="M566 671l-442 -687l-68 43l442 688zM130 330h-80v370h80v-370zM565 370c34 0 64 -10 86 -30c24 -20 37 -50 37 -82c0 -28 -10 -53 -27 -73c17 -20 27 -45 27 -72c0 -33 -13 -62 -37 -83c-22 -20 -52 -30 -86 -30s-64 10 -86 30c-24 21 -37 50 -37 83c0 27 9 52 26 72
c-17 20 -26 45 -26 73c0 32 13 62 37 82c22 20 52 30 86 30zM565 290c-13 0 -43 -3 -43 -32c0 -30 30 -33 43 -33s43 3 43 33c0 29 -30 32 -43 32zM565 145c-13 0 -43 -3 -43 -32c0 -30 30 -33 43 -33s43 3 43 33c0 29 -30 32 -43 32z" />
    <glyph glyph-name="threeeighths" unicode="&#x215c;" horiz-adv-x="853" 
d="M681 671l-442 -687l-68 43l442 688zM173 700c34 0 64 -10 86 -30c24 -20 37 -50 37 -82c0 -28 -10 -53 -27 -73c17 -20 27 -45 27 -72c0 -33 -13 -62 -37 -83c-22 -20 -52 -30 -86 -30s-64 10 -86 30c-24 21 -37 50 -37 83h80c0 -30 30 -33 43 -33s43 3 43 33
c0 29 -30 32 -43 32h-42v80h42c13 0 43 3 43 33c0 29 -30 32 -43 32s-43 -3 -43 -32h-80c0 32 13 62 37 82c22 20 52 30 86 30zM680 370c34 0 64 -10 86 -30c24 -20 37 -50 37 -82c0 -28 -10 -53 -27 -73c17 -20 27 -45 27 -72c0 -33 -13 -62 -37 -83
c-22 -20 -52 -30 -86 -30s-64 10 -86 30c-24 21 -37 50 -37 83c0 27 9 52 26 72c-17 20 -26 45 -26 73c0 32 13 62 37 82c22 20 52 30 86 30zM680 290c-13 0 -43 -3 -43 -32c0 -30 30 -33 43 -33s43 3 43 33c0 29 -30 32 -43 32zM680 145c-13 0 -43 -3 -43 -32
c0 -30 30 -33 43 -33s43 3 43 33c0 29 -30 32 -43 32z" />
    <glyph glyph-name="fiveeighths" unicode="&#x215d;" horiz-adv-x="850" 
d="M678 671l-442 -687l-68 43l442 688zM296 620h-166v-44h43c35 0 66 -12 88 -35c23 -22 35 -53 35 -88s-12 -66 -35 -88c-22 -23 -53 -35 -88 -35s-66 12 -88 35c-23 22 -35 53 -35 88h80c0 -27 16 -43 43 -43s43 16 43 43s-16 43 -43 43h-123v204h246v-80zM677 370
c34 0 64 -10 86 -30c24 -20 37 -50 37 -82c0 -28 -10 -53 -27 -73c17 -20 27 -45 27 -72c0 -33 -13 -62 -37 -83c-22 -20 -52 -30 -86 -30s-64 10 -86 30c-24 21 -37 50 -37 83c0 27 9 52 26 72c-17 20 -26 45 -26 73c0 32 13 62 37 82c22 20 52 30 86 30zM677 290
c-13 0 -43 -3 -43 -32c0 -30 30 -33 43 -33s43 3 43 33c0 29 -30 32 -43 32zM677 145c-13 0 -43 -3 -43 -32c0 -30 30 -33 43 -33s43 3 43 33c0 29 -30 32 -43 32z" />
    <glyph glyph-name="seveneighths" unicode="&#x215e;" horiz-adv-x="766" 
d="M594 671l-442 -687l-68 43l442 688zM158 330h-87l124 290h-145v80h266zM593 370c34 0 64 -10 86 -30c24 -20 37 -50 37 -82c0 -28 -10 -53 -27 -73c17 -20 27 -45 27 -72c0 -33 -13 -62 -37 -83c-22 -20 -52 -30 -86 -30s-64 10 -86 30c-24 21 -37 50 -37 83
c0 27 9 52 26 72c-17 20 -26 45 -26 73c0 32 13 62 37 82c22 20 52 30 86 30zM593 290c-13 0 -43 -3 -43 -32c0 -30 30 -33 43 -33s43 3 43 33c0 29 -30 32 -43 32zM593 145c-13 0 -43 -3 -43 -32c0 -30 30 -33 43 -33s43 3 43 33c0 29 -30 32 -43 32z" />
    <glyph glyph-name="zero.dnom" horiz-adv-x="346" 
d="M173 370c35 0 66 -12 88 -34c23 -23 35 -54 35 -89v-124c0 -35 -12 -66 -35 -88c-22 -23 -53 -35 -88 -35s-66 12 -88 35c-23 22 -35 53 -35 88v124c0 35 12 66 35 89c22 22 53 34 88 34zM173 290c-27 0 -43 -15 -43 -43v-124c0 -27 16 -43 43 -43s43 16 43 43v124
c0 28 -16 43 -43 43z" />
    <glyph glyph-name="one.dnom" horiz-adv-x="180" 
d="M130 0h-80v370h80v-370z" />
    <glyph glyph-name="two.dnom" horiz-adv-x="346" 
d="M173 370c35 0 66 -12 88 -34c23 -23 35 -54 35 -89c0 -34 -12 -66 -35 -88c-22 -22 -53 -35 -88 -35c-27 0 -43 -15 -43 -43v-1h166v-80h-246v81c0 35 12 66 35 89c22 22 53 34 88 34c27 0 43 16 43 43c0 28 -16 43 -43 43s-43 -15 -43 -43h-80c0 35 12 66 35 89
c22 22 53 34 88 34z" />
    <glyph glyph-name="three.dnom" horiz-adv-x="346" 
d="M173 370c34 0 64 -10 86 -30c24 -20 37 -50 37 -82c0 -28 -10 -53 -27 -73c17 -20 27 -45 27 -72c0 -33 -13 -62 -37 -83c-22 -20 -52 -30 -86 -30s-64 10 -86 30c-24 21 -37 50 -37 83h80c0 -30 30 -33 43 -33s43 3 43 33c0 29 -30 32 -43 32h-42v80h42c13 0 43 3 43 33
c0 29 -30 32 -43 32s-43 -3 -43 -32h-80c0 32 13 62 37 82c22 20 52 30 86 30z" />
    <glyph glyph-name="four.dnom" horiz-adv-x="360" 
d="M158 163h72v83h80v-246h-80v83h-180l86 287h84z" />
    <glyph glyph-name="five.dnom" horiz-adv-x="346" 
d="M296 290h-166v-44h43c35 0 66 -12 88 -35c23 -22 35 -53 35 -88s-12 -66 -35 -88c-22 -23 -53 -35 -88 -35s-66 12 -88 35c-23 22 -35 53 -35 88h80c0 -27 16 -43 43 -43s43 16 43 43s-16 43 -43 43h-123v204h246v-80z" />
    <glyph glyph-name="six.dnom" horiz-adv-x="346" 
d="M173 370c34 0 64 -10 86 -30c24 -20 37 -50 37 -82h-80c0 29 -30 32 -43 32s-43 -3 -43 -32v-39c13 4 28 6 43 6c34 0 64 -10 86 -30c24 -20 37 -50 37 -82c0 -33 -13 -62 -37 -83c-22 -20 -52 -30 -86 -30s-64 10 -86 30c-24 21 -37 50 -37 83v145c0 32 13 62 37 82
c22 20 52 30 86 30zM173 145c-13 0 -43 -3 -43 -32c0 -30 30 -33 43 -33s43 3 43 33c0 29 -30 32 -43 32z" />
    <glyph glyph-name="seven.dnom" horiz-adv-x="366" 
d="M158 0h-87l124 290h-145v80h266z" />
    <glyph glyph-name="eight.dnom" horiz-adv-x="346" 
d="M173 370c34 0 64 -10 86 -30c24 -20 37 -50 37 -82c0 -28 -10 -53 -27 -73c17 -20 27 -45 27 -72c0 -33 -13 -62 -37 -83c-22 -20 -52 -30 -86 -30s-64 10 -86 30c-24 21 -37 50 -37 83c0 27 9 52 26 72c-17 20 -26 45 -26 73c0 32 13 62 37 82c22 20 52 30 86 30z
M173 290c-13 0 -43 -3 -43 -32c0 -30 30 -33 43 -33s43 3 43 33c0 29 -30 32 -43 32zM173 145c-13 0 -43 -3 -43 -32c0 -30 30 -33 43 -33s43 3 43 33c0 29 -30 32 -43 32z" />
    <glyph glyph-name="nine.dnom" horiz-adv-x="346" 
d="M173 370c34 0 64 -10 86 -30c24 -21 37 -50 37 -83v-145c0 -32 -13 -62 -37 -82c-22 -20 -52 -30 -86 -30s-64 10 -86 30c-24 20 -37 50 -37 82h80c0 -29 30 -32 43 -32s43 3 43 32v39c-13 -4 -28 -6 -43 -6c-34 0 -64 10 -86 30c-24 20 -37 50 -37 82c0 33 13 62 37 83
c22 20 52 30 86 30zM173 290c-13 0 -43 -3 -43 -33c0 -29 30 -32 43 -32s43 3 43 32c0 30 -30 33 -43 33z" />
    <glyph glyph-name="zero.numr" horiz-adv-x="346" 
d="M173 700c35 0 66 -12 88 -34c23 -23 35 -54 35 -89v-124c0 -35 -12 -66 -35 -88c-22 -23 -53 -35 -88 -35s-66 12 -88 35c-23 22 -35 53 -35 88v124c0 35 12 66 35 89c22 22 53 34 88 34zM173 620c-27 0 -43 -15 -43 -43v-124c0 -27 16 -43 43 -43s43 16 43 43v124
c0 28 -16 43 -43 43z" />
    <glyph glyph-name="one.numr" horiz-adv-x="180" 
d="M130 330h-80v370h80v-370z" />
    <glyph glyph-name="two.numr" horiz-adv-x="346" 
d="M173 700c35 0 66 -12 88 -34c23 -23 35 -54 35 -89c0 -34 -12 -66 -35 -88c-22 -22 -53 -35 -88 -35c-27 0 -43 -15 -43 -43v-1h166v-80h-246v81c0 35 12 66 35 89c22 22 53 34 88 34c27 0 43 16 43 43c0 28 -16 43 -43 43s-43 -15 -43 -43h-80c0 35 12 66 35 89
c22 22 53 34 88 34z" />
    <glyph glyph-name="three.numr" horiz-adv-x="346" 
d="M173 700c34 0 64 -10 86 -30c24 -20 37 -50 37 -82c0 -28 -10 -53 -27 -73c17 -20 27 -45 27 -72c0 -33 -13 -62 -37 -83c-22 -20 -52 -30 -86 -30s-64 10 -86 30c-24 21 -37 50 -37 83h80c0 -30 30 -33 43 -33s43 3 43 33c0 29 -30 32 -43 32h-42v80h42c13 0 43 3 43 33
c0 29 -30 32 -43 32s-43 -3 -43 -32h-80c0 32 13 62 37 82c22 20 52 30 86 30z" />
    <glyph glyph-name="four.numr" horiz-adv-x="360" 
d="M158 493h72v83h80v-246h-80v83h-180l86 287h84z" />
    <glyph glyph-name="five.numr" horiz-adv-x="346" 
d="M296 620h-166v-44h43c35 0 66 -12 88 -35c23 -22 35 -53 35 -88s-12 -66 -35 -88c-22 -23 -53 -35 -88 -35s-66 12 -88 35c-23 22 -35 53 -35 88h80c0 -27 16 -43 43 -43s43 16 43 43s-16 43 -43 43h-123v204h246v-80z" />
    <glyph glyph-name="six.numr" horiz-adv-x="346" 
d="M173 700c34 0 64 -10 86 -30c24 -20 37 -50 37 -82h-80c0 29 -30 32 -43 32s-43 -3 -43 -32v-39c13 4 28 6 43 6c34 0 64 -10 86 -30c24 -20 37 -50 37 -82c0 -33 -13 -62 -37 -83c-22 -20 -52 -30 -86 -30s-64 10 -86 30c-24 21 -37 50 -37 83v145c0 32 13 62 37 82
c22 20 52 30 86 30zM173 475c-13 0 -43 -3 -43 -32c0 -30 30 -33 43 -33s43 3 43 33c0 29 -30 32 -43 32z" />
    <glyph glyph-name="seven.numr" horiz-adv-x="366" 
d="M158 330h-87l124 290h-145v80h266z" />
    <glyph glyph-name="eight.numr" horiz-adv-x="346" 
d="M173 700c34 0 64 -10 86 -30c24 -20 37 -50 37 -82c0 -28 -10 -53 -27 -73c17 -20 27 -45 27 -72c0 -33 -13 -62 -37 -83c-22 -20 -52 -30 -86 -30s-64 10 -86 30c-24 21 -37 50 -37 83c0 27 9 52 26 72c-17 20 -26 45 -26 73c0 32 13 62 37 82c22 20 52 30 86 30z
M173 620c-13 0 -43 -3 -43 -32c0 -30 30 -33 43 -33s43 3 43 33c0 29 -30 32 -43 32zM173 475c-13 0 -43 -3 -43 -32c0 -30 30 -33 43 -33s43 3 43 33c0 29 -30 32 -43 32z" />
    <glyph glyph-name="nine.numr" horiz-adv-x="346" 
d="M173 700c34 0 64 -10 86 -30c24 -21 37 -50 37 -83v-145c0 -32 -13 -62 -37 -82c-22 -20 -52 -30 -86 -30s-64 10 -86 30c-24 20 -37 50 -37 82h80c0 -29 30 -32 43 -32s43 3 43 32v39c-13 -4 -28 -6 -43 -6c-34 0 -64 10 -86 30c-24 20 -37 50 -37 82c0 33 13 62 37 83
c22 20 52 30 86 30zM173 620c-13 0 -43 -3 -43 -33c0 -29 30 -32 43 -32s43 3 43 32c0 30 -30 33 -43 33z" />
    <glyph glyph-name="asterisk" unicode="*" horiz-adv-x="461" 
d="M270 584l101 58l40 -69l-101 -58l101 -58l-40 -69l-101 58v-116h-80v116l-100 -58l-40 69l100 58l-100 58l40 69l100 -58v116h80v-116z" />
    <glyph glyph-name="backslash" unicode="\" horiz-adv-x="419" 
d="M369 -123l-78 -19l-241 964l78 19z" />
    <glyph glyph-name="periodcentered" unicode="&#xb7;" horiz-adv-x="180" 
d="M90 390c21 0 40 -19 40 -40s-19 -40 -40 -40s-40 19 -40 40s19 40 40 40z" />
    <glyph glyph-name="bullet" unicode="&#x2022;" horiz-adv-x="439" 
d="M219 520c94 0 170 -76 170 -169c0 -94 -76 -170 -170 -170c-93 0 -169 76 -169 170c0 93 76 169 169 169z" />
    <glyph glyph-name="colon" unicode=":" horiz-adv-x="180" 
d="M90 390c21 0 40 -19 40 -40s-19 -40 -40 -40s-40 19 -40 40s19 40 40 40zM90 80c21 0 40 -19 40 -40s-19 -40 -40 -40s-40 19 -40 40s19 40 40 40z" />
    <glyph glyph-name="comma" unicode="," horiz-adv-x="206" 
d="M156 80v-40c0 -79 -24 -150 -69 -203l-26 -31l-61 51l26 31c32 39 50 92 50 152v40h80z" />
    <glyph glyph-name="ellipsis" unicode="&#x2026;" horiz-adv-x="500" 
d="M90 80c21 0 40 -19 40 -40s-19 -40 -40 -40s-40 19 -40 40s19 40 40 40zM250 80c21 0 40 -19 40 -40s-19 -40 -40 -40s-40 19 -40 40s19 40 40 40zM410 80c21 0 40 -19 40 -40s-19 -40 -40 -40s-40 19 -40 40s19 40 40 40z" />
    <glyph glyph-name="exclam" unicode="!" horiz-adv-x="180" 
d="M130 310h-80v390h80v-390zM90 80c21 0 40 -19 40 -40s-19 -40 -40 -40s-40 19 -40 40s19 40 40 40z" />
    <glyph glyph-name="exclamdown" unicode="&#xa1;" horiz-adv-x="180" 
d="M90 443c-21 0 -40 19 -40 40s19 40 40 40s40 -19 40 -40s-19 -40 -40 -40zM50 -177v390h80v-390h-80z" />
    <glyph glyph-name="numbersign" unicode="#" horiz-adv-x="667" 
d="M495 523h122v-80h-122v-186h122v-80h-122v-177h-80v177h-163v-177h-80v177h-122v80h122v186h-122v80h122v177h80v-177h163v177h80v-177zM252 443v-186h163v186h-163z" />
    <glyph glyph-name="period" unicode="." horiz-adv-x="180" 
d="M90 80c21 0 40 -19 40 -40s-19 -40 -40 -40s-40 19 -40 40s19 40 40 40z" />
    <glyph glyph-name="question" unicode="?" horiz-adv-x="446" 
d="M223 700c49 0 93 -17 124 -48c32 -31 49 -76 49 -125s-17 -93 -49 -124c-22 -23 -51 -38 -84 -45v-48h-80v124h40c57 0 93 36 93 93c0 58 -36 93 -93 93s-93 -35 -93 -93h-80c0 49 17 94 48 125c32 31 76 48 125 48zM223 80c21 0 40 -19 40 -40s-19 -40 -40 -40
s-40 19 -40 40s19 40 40 40z" />
    <glyph glyph-name="questiondown" unicode="&#xbf;" horiz-adv-x="446" 
d="M223 443c-21 0 -40 19 -40 40s19 40 40 40s40 -19 40 -40s-19 -40 -40 -40zM223 -177c-49 0 -93 17 -124 48c-32 31 -49 76 -49 125s17 93 49 124c22 23 51 38 84 45v48h80v-124h-40c-57 0 -93 -36 -93 -93c0 -58 36 -93 93 -93s93 35 93 93h80c0 -49 -17 -94 -48 -125
c-32 -31 -76 -48 -125 -48z" />
    <glyph glyph-name="quotedbl" unicode="&#x22;" horiz-adv-x="320" 
d="M130 443h-80v257h80v-257zM270 443h-80v257h80v-257z" />
    <glyph glyph-name="quotesingle" unicode="'" horiz-adv-x="180" 
d="M130 443h-80v257h80v-257z" />
    <glyph glyph-name="semicolon" unicode=";" horiz-adv-x="206" 
d="M116 390c21 0 40 -19 40 -40s-19 -40 -40 -40s-40 19 -40 40s19 40 40 40zM156 80v-40c0 -79 -24 -150 -69 -203l-26 -31l-61 51l26 31c32 39 50 92 50 152v40h80z" />
    <glyph glyph-name="slash" unicode="/" horiz-adv-x="419" 
d="M369 822l-241 -964l-78 19l241 964z" />
    <glyph glyph-name="underscore" unicode="_" 
d="M484 -80h-434v80h434v-80z" />
    <glyph glyph-name="braceleft" unicode="{" horiz-adv-x="323" 
d="M273 803l-23 -33c-21 -30 -31 -68 -31 -110v-222c0 -34 -12 -65 -33 -88c21 -23 33 -55 33 -89v-221c0 -43 10 -81 31 -111l23 -33l-66 -45l-23 33c-30 43 -45 97 -45 156v221c0 31 -18 49 -49 49h-40v80h40c31 0 49 17 49 48v222c0 58 15 112 45 155l23 33z" />
    <glyph glyph-name="braceright" unicode="}" horiz-adv-x="323" 
d="M116 848l23 -33c30 -43 45 -97 45 -155v-222c0 -31 18 -48 49 -48h40v-80h-40c-31 0 -49 -18 -49 -49v-221c0 -59 -15 -113 -45 -156l-23 -33l-66 45l23 33c21 30 31 68 31 111v221c0 34 12 66 33 89c-21 23 -33 54 -33 88v222c0 42 -10 80 -31 110l-23 33z" />
    <glyph glyph-name="bracketleft" unicode="[" horiz-adv-x="246" 
d="M196 753h-66v-806h66v-80h-146v966h146v-80z" />
    <glyph glyph-name="bracketright" unicode="]" horiz-adv-x="246" 
d="M196 833v-966h-146v80h66v806h-66v80h146z" />
    <glyph glyph-name="parenleft" unicode="(" horiz-adv-x="234" 
d="M184 803l-23 -33c-20 -30 -31 -68 -31 -110v-620c0 -43 11 -81 31 -111l23 -33l-66 -45l-23 33c-29 43 -45 97 -45 156v620c0 58 16 112 45 155l23 33z" />
    <glyph glyph-name="parenright" unicode=")" horiz-adv-x="234" 
d="M116 848l23 -33c29 -43 45 -97 45 -155v-620c0 -59 -16 -113 -45 -156l-23 -33l-66 45l23 33c20 30 31 68 31 111v620c0 42 -11 80 -31 110l-23 33z" />
    <glyph glyph-name="emdash" unicode="&#x2014;" horiz-adv-x="667" 
d="M617 222h-567v80h567v-80z" />
    <glyph glyph-name="endash" unicode="&#x2013;" 
d="M484 222h-434v80h434v-80z" />
    <glyph glyph-name="hyphen" unicode="-" horiz-adv-x="402" 
d="M352 222h-302v80h302v-80z" />
    <glyph glyph-name="guillemotleft" unicode="&#xab;" horiz-adv-x="540" 
d="M296 394l-133 -133l133 -132l-57 -57l-189 189l189 190zM490 394l-133 -133l133 -132l-57 -57l-189 189l189 190z" />
    <glyph glyph-name="guillemotright" unicode="&#xbb;" horiz-adv-x="540" 
d="M296 261l-189 -189l-57 57l133 132l-133 133l57 57zM490 261l-189 -189l-57 57l133 132l-133 133l57 57z" />
    <glyph glyph-name="guilsinglleft" unicode="&#x2039;" horiz-adv-x="346" 
d="M296 394l-133 -133l133 -132l-57 -57l-189 189l189 190z" />
    <glyph glyph-name="guilsinglright" unicode="&#x203a;" horiz-adv-x="346" 
d="M296 261l-189 -189l-57 57l133 132l-133 133l57 57z" />
    <glyph glyph-name="quotedblbase" unicode="&#x201e;" horiz-adv-x="356" 
d="M0 -143l26 31c32 39 50 92 50 152v40h80v-40c0 -79 -24 -150 -69 -203l-26 -31zM150 -143l26 31c32 39 50 92 50 152v40h80v-40c0 -79 -24 -150 -69 -203l-26 -31z" />
    <glyph glyph-name="quotedblleft" unicode="&#x201c;" horiz-adv-x="406" 
d="M206 700l-26 -31c-32 -39 -50 -92 -50 -152v-40h-80v40c0 79 24 150 69 203l26 31zM356 700l-26 -31c-32 -39 -50 -92 -50 -152v-40h-80v40c0 79 24 150 69 203l26 31z" />
    <glyph glyph-name="quotedblright" unicode="&#x201d;" horiz-adv-x="406" 
d="M50 477l26 31c32 39 50 92 50 152v40h80v-40c0 -79 -24 -150 -69 -203l-26 -31zM200 477l26 31c32 39 50 92 50 152v40h80v-40c0 -79 -24 -150 -69 -203l-26 -31z" />
    <glyph glyph-name="quoteleft" unicode="&#x2018;" horiz-adv-x="256" 
d="M206 700l-26 -31c-32 -39 -50 -92 -50 -152v-40h-80v40c0 79 24 150 69 203l26 31z" />
    <glyph glyph-name="quoteright" unicode="&#x2019;" horiz-adv-x="256" 
d="M50 477l26 31c32 39 50 92 50 152v40h80v-40c0 -79 -24 -150 -69 -203l-26 -31z" />
    <glyph glyph-name="quotesinglbase" unicode="&#x201a;" horiz-adv-x="206" 
d="M156 80v-40c0 -79 -24 -150 -69 -203l-26 -31l-61 51l26 31c32 39 50 92 50 152v40h80z" />
    <glyph glyph-name="space" unicode=" " horiz-adv-x="233" 
 />
    <glyph glyph-name="cent" unicode="&#xa2;" horiz-adv-x="510" 
d="M298 611v-90c31 -4 59 -13 85 -27c33 -19 60 -47 77 -82l-71 -36c-10 20 -26 37 -46 48c-14 8 -29 13 -45 16v-358c16 3 31 8 45 16c20 11 36 28 46 48l71 -36c-17 -34 -44 -62 -77 -81c-26 -15 -54 -24 -85 -28v-90h-80v93c-101 21 -168 102 -168 213v88
c0 111 67 193 168 213v93h80zM218 87v348c-20 -6 -37 -16 -50 -30c-25 -24 -38 -58 -38 -100v-88c0 -41 13 -76 38 -100c13 -14 30 -24 50 -30z" />
    <glyph glyph-name="currency" unicode="&#xa4;" horiz-adv-x="558" 
d="M508 522l-66 -65c42 -65 42 -149 0 -214l66 -65l-57 -57l-65 66c-64 -43 -151 -43 -214 0l-65 -66l-57 57l66 65c-43 65 -43 149 0 214l-66 65l57 57l65 -66c65 42 149 42 214 0l65 66zM360 431c-43 45 -119 45 -162 0h-1c-44 -45 -44 -118 0 -162l1 -1
c44 -44 117 -44 162 0v1c45 44 45 117 0 162z" />
    <glyph glyph-name="dollar" unicode="$" 
d="M307 788v-91c40 -6 76 -20 105 -42c40 -30 64 -73 71 -123l-80 -10c-3 28 -17 53 -40 70c-15 11 -34 20 -56 24v-229c106 -15 177 -90 177 -192c0 -103 -71 -178 -177 -193v-91h-80v91c-40 6 -75 20 -104 42c-40 30 -65 73 -71 123l79 11c4 -29 18 -53 40 -70
c15 -12 34 -20 56 -25v229c-106 15 -177 90 -177 193c0 102 71 177 177 192v91h80zM227 394v222c-24 -5 -45 -15 -62 -29c-23 -20 -35 -49 -35 -82c0 -34 12 -62 35 -82c17 -15 38 -25 62 -29zM307 306v-223c25 5 46 15 62 29c23 21 35 49 35 83c0 33 -12 62 -35 82
c-16 14 -37 24 -62 29z" />
    <glyph glyph-name="Euro" unicode="&#x20ac;" horiz-adv-x="490" 
d="M440 620h-40c-80 0 -148 -25 -196 -74c-20 -19 -35 -42 -47 -67h283v-80h-307c-2 -16 -3 -32 -3 -49s1 -33 3 -49h307v-80h-283c12 -25 27 -48 47 -67c48 -48 116 -74 196 -74h40v-80h-40c-50 0 -98 8 -141 25s-80 41 -112 72c-31 32 -55 69 -72 112s-25 91 -25 141
c0 51 8 98 25 141s41 81 72 112c32 31 69 56 112 72c43 17 91 25 141 25h40v-80z" />
    <glyph glyph-name="sterling" unicode="&#xa3;" horiz-adv-x="446" 
d="M396 620h-40c-67 0 -124 -21 -164 -61c-41 -41 -62 -98 -62 -165v-4h266v-80h-266v-230h266v-80h-346v394c0 44 7 86 22 123c14 38 36 71 63 98c28 28 60 49 98 63c37 15 79 22 123 22h40v-80z" />
    <glyph glyph-name="yen" unicode="&#xa5;" horiz-adv-x="584" 
d="M357 346h152v-80h-177v-75h177v-80h-177v-111h-80v111h-177v80h177v75h-177v80h152l-177 354h89l153 -305l152 305h90z" />
    <glyph glyph-name="approxequal" unicode="&#x2248;" horiz-adv-x="601" 
d="M155 494c33 7 69 5 100 -9c36 -14 64 -41 81 -76c20 -39 60 -49 91 -42c40 10 44 39 44 51v40h80v-40c0 -33 -11 -63 -32 -86c-19 -21 -44 -36 -74 -43c-29 -7 -66 -6 -100 9c-35 14 -63 40 -80 75c-20 40 -60 50 -91 43c-40 -10 -44 -39 -44 -51v-40h-80v40
c0 33 11 63 32 86c19 21 44 36 73 43zM155 234c33 7 69 5 100 -9c36 -14 64 -41 81 -76c20 -39 60 -49 91 -42c40 10 44 39 44 51v40h80v-40c0 -33 -11 -63 -32 -86c-19 -21 -44 -36 -74 -43c-29 -7 -66 -6 -100 9c-35 14 -63 40 -80 75c-20 40 -60 50 -91 43
c-40 -10 -44 -39 -44 -51v-40h-80v40c0 33 11 63 32 86c19 21 44 36 73 43z" />
    <glyph glyph-name="asciitilde" unicode="~" horiz-adv-x="601" 
d="M155 364c33 7 69 5 100 -9c36 -14 64 -41 81 -76c20 -39 60 -49 91 -42c40 10 44 39 44 51v40h80v-40c0 -33 -11 -63 -32 -86c-19 -21 -44 -36 -74 -43c-29 -7 -66 -6 -100 9c-35 14 -63 40 -80 75c-20 40 -60 50 -91 43c-40 -10 -44 -39 -44 -51v-40h-80v40
c0 33 11 63 32 86c19 21 44 36 73 43z" />
    <glyph glyph-name="divide" unicode="&#xf7;" 
d="M267 523c21 0 40 -19 40 -40s-19 -40 -40 -40s-40 19 -40 40s19 40 40 40zM484 222h-434v80h434v-80zM267 80c21 0 40 -19 40 -40s-19 -40 -40 -40s-40 19 -40 40s19 40 40 40z" />
    <glyph glyph-name="emptyset" unicode="&#x2205;" horiz-adv-x="623" 
d="M312 612c69 0 135 -27 184 -77c50 -49 77 -115 77 -184c0 -70 -27 -136 -77 -185c-49 -50 -115 -77 -184 -77c-70 0 -136 27 -185 77c-50 49 -77 115 -77 185c0 69 27 135 77 184c49 50 115 77 185 77zM158 254l250 250c-67 43 -162 38 -225 -25s-68 -158 -25 -225z
M465 447l-250 -250c70 -44 164 -36 225 25c63 63 68 158 25 225z" />
    <glyph glyph-name="equal" unicode="=" 
d="M484 332h-434v80h434v-80zM484 110h-434v80h434v-80z" />
    <glyph glyph-name="greater" unicode="&#x3e;" horiz-adv-x="460" 
d="M410 261l-306 -278l-54 59l241 219l-241 219l54 59z" />
    <glyph glyph-name="greaterequal" unicode="&#x2265;" horiz-adv-x="460" 
d="M410 326l-306 -278l-54 59l241 219l-241 219l54 59zM410 -82h-360v80h360v-80z" />
    <glyph glyph-name="infinity" unicode="&#x221e;" horiz-adv-x="712" 
d="M535 510c36 -6 67 -23 90 -50c24 -29 37 -67 37 -110s-13 -81 -37 -110c-23 -27 -54 -44 -90 -50c-38 -4 -81 -2 -127 28c-20 13 -38 29 -52 47c-15 -18 -32 -34 -52 -47c-45 -29 -89 -33 -127 -28c-37 6 -68 23 -90 50c-24 29 -37 67 -37 110s13 81 37 110
c22 27 53 44 90 50c42 6 88 -4 127 -29c20 -12 37 -28 52 -47c14 19 32 35 52 47c39 25 84 35 127 29zM522 431c-23 3 -49 -3 -71 -17c-17 -10 -38 -30 -53 -64c15 -34 36 -54 53 -64c22 -15 48 -21 71 -17c38 6 60 36 60 81s-22 75 -60 81zM189 431c-37 -6 -59 -36 -59 -81
s22 -75 59 -81c23 -4 50 2 72 17c16 10 38 30 52 64c-14 34 -36 54 -52 64c-31 21 -47 17 -72 17z" />
    <glyph glyph-name="integral" unicode="&#x222b;" horiz-adv-x="357" 
d="M307 642h-40c-31 0 -48 -18 -48 -49v-708c0 -37 -13 -70 -37 -93c-23 -23 -56 -36 -92 -36h-40v80h40c31 0 49 18 49 49v708c0 37 12 70 36 93c23 23 56 36 92 36h40v-80z" />
    <glyph glyph-name="less" unicode="&#x3c;" horiz-adv-x="460" 
d="M410 480l-241 -219l241 -219l-54 -59l-306 278l306 278z" />
    <glyph glyph-name="lessequal" unicode="&#x2264;" horiz-adv-x="460" 
d="M410 545l-241 -219l241 -219l-54 -59l-306 278l306 278zM410 -2v-80h-360v80h360z" />
    <glyph glyph-name="logicalnot" unicode="&#xac;" 
d="M484 133h-80v177h-354v80h434v-257z" />
    <glyph glyph-name="minus" unicode="&#x2212;" 
d="M484 222h-434v80h434v-80z" />
    <glyph glyph-name="multiply" unicode="&#xd7;" horiz-adv-x="495" 
d="M445 402l-141 -140l141 -141l-57 -57l-140 141l-141 -141l-57 57l141 141l-141 140l57 57l141 -141l140 141z" />
    <glyph glyph-name="notequal" unicode="&#x2260;" 
d="M406 575l-51 -163h129v-80h-153l-44 -142h197v-80h-221l-58 -187l-76 24l50 163h-129v80h154l43 142h-197v80h222l57 187z" />
    <glyph glyph-name="partialdiff" unicode="&#x2202;" 
d="M158 713l36 -16c45 -20 86 -46 122 -78c35 -31 66 -68 91 -109s45 -87 58 -135c13 -50 19 -103 19 -158c0 -58 -22 -112 -63 -153s-96 -64 -154 -64s-112 23 -153 64s-64 95 -64 153s23 113 64 154s95 63 153 63c36 0 71 -8 102 -25c-9 21 -19 41 -30 60
c-21 34 -46 64 -76 90s-64 48 -101 65l-37 16zM267 354c-75 0 -137 -61 -137 -137c0 -75 62 -137 137 -137c76 0 137 62 137 137c0 76 -61 137 -137 137z" />
    <glyph glyph-name="percent" unicode="%" horiz-adv-x="800" 
d="M655 672l-442 -687l-68 43l442 688zM201 700c83 0 151 -67 151 -150s-68 -151 -151 -151s-151 68 -151 151s68 150 151 150zM201 620c-39 0 -71 -31 -71 -70s32 -71 71 -71s71 32 71 71s-32 70 -71 70zM599 302c84 0 151 -68 151 -151s-67 -151 -151 -151
c-83 0 -150 68 -150 151s67 151 150 151zM599 222c-39 0 -70 -32 -70 -71s31 -71 70 -71s71 32 71 71s-32 71 -71 71z" />
    <glyph glyph-name="perthousand" unicode="&#x2030;" horiz-adv-x="1131" 
d="M655 672l-442 -687l-68 43l442 688zM201 700c83 0 151 -67 151 -150s-68 -151 -151 -151s-151 68 -151 151s68 150 151 150zM201 620c-39 0 -71 -31 -71 -70s32 -71 71 -71s71 32 71 71s-32 70 -71 70zM599 302c84 0 151 -68 151 -151s-67 -151 -151 -151
c-83 0 -150 68 -150 151s67 151 150 151zM930 302c84 0 151 -68 151 -151s-67 -151 -151 -151c-83 0 -150 68 -150 151s67 151 150 151zM599 222c-39 0 -70 -32 -70 -71s31 -71 70 -71s71 32 71 71s-32 71 -71 71zM930 222c-39 0 -70 -32 -70 -71s31 -71 70 -71s71 32 71 71
s-32 71 -71 71z" />
    <glyph glyph-name="plus" unicode="+" 
d="M307 302h177v-80h-177v-177h-80v177h-177v80h177v177h80v-177z" />
    <glyph glyph-name="plusminus" unicode="&#xb1;" 
d="M307 366h177v-80h-177v-177h-80v177h-177v80h177v177h80v-177zM484 -21h-434v80h434v-80z" />
    <glyph glyph-name="product" unicode="&#x220f;" horiz-adv-x="579" 
d="M529 -244h-80v886h-319v-886h-80v966h479v-966z" />
    <glyph glyph-name="radical" unicode="&#x221a;" horiz-adv-x="648" 
d="M598 682l-306 -912l-242 414l69 41l153 -262l251 745z" />
    <glyph glyph-name="summation" unicode="&#x2211;" horiz-adv-x="559" 
d="M509 642h-330l202 -403l-202 -403h330v-80h-459l242 483l-242 483h459v-80z" />
    <glyph glyph-name="arrowup" unicode="&#x2191;" horiz-adv-x="524" 
d="M474 482l-58 -56l-114 118v-544h-80v544l-114 -118l-58 56l212 219z" />
    <glyph glyph-name="uni2197" unicode="&#x2197;" horiz-adv-x="666" 
d="M616 309h-80v190l-429 -432l-57 56l427 430h-185v80h324v-324z" />
    <glyph glyph-name="arrowright" unicode="&#x2192;" horiz-adv-x="801" 
d="M751 350l-219 -212l-56 58l118 114h-544v80h544l-118 114l56 58z" />
    <glyph glyph-name="uni2198" unicode="&#x2198;" horiz-adv-x="666" 
d="M292 67v80h185l-427 430l57 56l429 -432v190h80v-324h-324z" />
    <glyph glyph-name="arrowdown" unicode="&#x2193;" horiz-adv-x="524" 
d="M50 218l58 56l114 -118v544h80v-544l114 118l58 -56l-212 -219z" />
    <glyph glyph-name="uni2199" unicode="&#x2199;" horiz-adv-x="666" 
d="M50 391h80v-190l429 432l57 -56l-427 -430h185v-80h-324v324z" />
    <glyph glyph-name="arrowleft" unicode="&#x2190;" horiz-adv-x="801" 
d="M325 504l-118 -114h544v-80h-544l118 -114l-56 -58l-219 212l219 212z" />
    <glyph glyph-name="uni2196" unicode="&#x2196;" horiz-adv-x="666" 
d="M374 633v-80h-185l427 -430l-57 -56l-429 432v-190h-80v324h324z" />
    <glyph glyph-name="uni2194" unicode="&#x2194;" horiz-adv-x="801" 
d="M751 350l-218 -212l-56 57l118 114h-389l118 -114l-55 -57l-219 212l219 212l55 -57l-118 -115h389l-118 115l56 57z" />
    <glyph glyph-name="arrowupdn" unicode="&#x2195;" horiz-adv-x="523" 
d="M473 482l-57 -56l-114 118v-389l114 118l57 -55l-211 -219l-212 219l57 55l115 -118v389l-115 -118l-57 56l212 218z" />
    <glyph glyph-name="lozenge" unicode="&#x25ca;" horiz-adv-x="597" 
d="M547 350l-249 -350l-248 350l248 350zM148 350l150 -212l151 212l-151 212z" />
    <glyph glyph-name="bar" unicode="|" horiz-adv-x="180" 
d="M130 -244h-80v966h80v-966z" />
    <glyph glyph-name="brokenbar" unicode="&#xa6;" horiz-adv-x="180" 
d="M130 332h-80v390h80v-390zM130 -244h-80v390h80v-390z" />
    <glyph glyph-name="at" unicode="@" horiz-adv-x="800" 
d="M400 700c51 0 98 -8 141 -25c43 -16 81 -41 112 -72s56 -69 72 -112c17 -43 25 -90 25 -141c0 -49 -14 -91 -42 -122c-28 -33 -69 -51 -114 -51c-43 0 -81 16 -109 44h-118c-36 0 -69 13 -93 37c-23 23 -36 56 -36 92s13 69 36 93c24 23 57 36 93 36h151v-129
c0 -45 20 -93 76 -93c37 0 76 25 76 93c0 80 -25 148 -74 196c-48 49 -116 74 -196 74s-148 -25 -196 -74c-48 -48 -74 -116 -74 -196s26 -148 74 -196s116 -74 196 -74c58 0 108 13 151 39l41 -69c-55 -33 -120 -50 -192 -50c-50 0 -98 8 -141 25s-80 41 -112 72
c-31 32 -55 69 -72 112s-25 91 -25 141c0 51 8 98 25 141s41 81 72 112c32 31 69 56 112 72c43 17 91 25 141 25zM438 399h-71c-31 0 -49 -18 -49 -49s18 -49 49 -49h71v98z" />
    <glyph glyph-name="ampersand" unicode="&#x26;" horiz-adv-x="579" 
d="M267 700c63 0 117 -19 157 -54l-54 -60c-24 22 -60 34 -103 34c-42 0 -77 -11 -102 -33c-23 -20 -35 -48 -35 -82c0 -33 12 -62 35 -82c25 -22 60 -33 102 -33h137v89h80v-89h45v-80h-45v-310h-80v39c-36 -25 -83 -39 -137 -39c-128 0 -217 80 -217 195
c0 66 30 121 79 155c-49 35 -79 89 -79 155c0 115 89 195 217 195zM404 310h-137c-42 0 -77 -11 -102 -33c-23 -20 -35 -48 -35 -82s12 -62 35 -82c25 -22 60 -33 102 -33s78 11 102 33c23 20 35 48 35 82v115z" />
    <glyph glyph-name="paragraph" unicode="&#xb6;" horiz-adv-x="623" 
d="M573 -244h-80v886h-226c-75 0 -137 -62 -137 -137c0 -76 62 -137 137 -137h40v-612h-80v535c-43 8 -82 29 -113 60c-41 41 -64 96 -64 154s23 112 64 153s95 64 153 64h306v-966z" />
    <glyph glyph-name="copyright" unicode="&#xa9;" horiz-adv-x="800" 
d="M400 700c51 0 98 -8 141 -25c43 -16 81 -41 112 -72s56 -69 72 -112c17 -43 25 -90 25 -141c0 -50 -8 -98 -25 -141c-16 -43 -41 -80 -72 -112c-31 -31 -69 -55 -112 -72s-90 -25 -141 -25c-50 0 -98 8 -141 25s-80 41 -112 72c-31 32 -55 69 -72 112s-25 91 -25 141
c0 51 8 98 25 141s41 81 72 112c32 31 69 56 112 72c43 17 91 25 141 25zM400 620c-80 0 -148 -25 -196 -74c-48 -48 -74 -116 -74 -196s26 -148 74 -196s116 -74 196 -74s148 26 196 74c49 48 74 116 74 196s-25 148 -74 196c-48 49 -116 74 -196 74zM410 501
c52 0 97 -23 124 -62l-66 -45c-12 18 -32 27 -58 27c-22 0 -40 -7 -52 -19c-13 -12 -19 -30 -19 -52s6 -39 19 -52c12 -12 30 -19 52 -19c26 0 46 10 58 27l66 -45c-27 -39 -72 -62 -124 -62c-43 0 -82 15 -109 43c-27 27 -42 65 -42 108s15 81 42 109c27 27 66 42 109 42z
" />
    <glyph glyph-name="registered" unicode="&#xae;" horiz-adv-x="800" 
d="M400 700c51 0 98 -8 141 -25c43 -16 81 -41 112 -72s56 -69 72 -112c17 -43 25 -90 25 -141c0 -50 -8 -98 -25 -141c-16 -43 -41 -80 -72 -112c-31 -31 -69 -55 -112 -72s-90 -25 -141 -25c-50 0 -98 8 -141 25s-80 41 -112 72c-31 32 -55 69 -72 112s-25 91 -25 141
c0 51 8 98 25 141s41 81 72 112c32 31 69 56 112 72c43 17 91 25 141 25zM400 620c-80 0 -148 -25 -196 -74c-48 -48 -74 -116 -74 -196s26 -148 74 -196s116 -74 196 -74s148 26 196 74c49 48 74 116 74 196s-25 148 -74 196c-48 49 -116 74 -196 74zM291 510h129
c62 0 106 -45 106 -107c0 -41 -19 -74 -51 -92l51 -103h-89l-44 89h-22v-89h-80v302zM371 430v-53h49c18 0 26 9 26 26c0 18 -8 27 -26 27h-49z" />
    <glyph glyph-name="section" unicode="&#xa7;" 
d="M267 722c56 0 106 -15 145 -45s64 -72 71 -123l-80 -10c-4 29 -17 53 -40 70c-24 18 -57 28 -96 28c-42 0 -77 -11 -102 -33c-23 -20 -35 -48 -35 -82s12 -62 35 -82c25 -22 60 -33 102 -33c128 0 217 -80 217 -195c0 -53 -18 -99 -52 -133c33 -34 52 -80 52 -133
c0 -115 -89 -195 -217 -195c-56 0 -106 15 -144 45c-40 30 -65 72 -71 123l79 10c4 -29 18 -53 40 -70c24 -18 57 -28 96 -28c42 0 77 11 102 33c23 20 35 48 35 82s-12 62 -35 82c-25 22 -60 33 -102 33c-128 0 -217 80 -217 195c0 53 19 99 52 133c-33 34 -52 80 -52 133
c0 115 89 195 217 195zM172 349c-27 -20 -42 -51 -42 -88c0 -33 12 -62 35 -82c25 -22 60 -33 102 -33c35 0 67 -6 95 -17c27 20 42 51 42 88c0 33 -12 62 -35 82c-25 22 -60 33 -102 33c-35 0 -67 6 -95 17z" />
    <glyph glyph-name="trademark" unicode="&#x2122;" horiz-adv-x="781" 
d="M317 620h-94v-249h-80v249h-93v80h267v-80zM731 371h-80v118l-105 -118l-105 118v-118h-80v329l185 -208l185 208v-329z" />
    <glyph glyph-name="degree" unicode="&#xb0;" horiz-adv-x="446" 
d="M223 700c95 0 173 -78 173 -173s-78 -173 -173 -173s-173 78 -173 173s78 173 173 173zM223 620c-51 0 -93 -42 -93 -93s42 -93 93 -93s93 42 93 93s-42 93 -93 93z" />
    <glyph glyph-name="asciicircum" unicode="^" horiz-adv-x="655" 
d="M605 311l-66 -46l-212 297l-212 -297l-65 46l277 389z" />
    <glyph glyph-name="dagger" unicode="&#x2020;" horiz-adv-x="579" 
d="M329 456h200v-80h-200v-620h-80v620h-199v80h199v266h80v-266z" />
    <glyph glyph-name="daggerdbl" unicode="&#x2021;" horiz-adv-x="579" 
d="M329 456h200v-80h-200v-274h200v-80h-200v-266h-80v266h-199v80h199v274h-199v80h199v266h80v-266z" />
    <glyph glyph-name="acute" unicode="&#xb4;" horiz-adv-x="235" 
d="M235 867l-191 -127l-44 67l191 127z" />
    <glyph glyph-name="breve" unicode="&#x2d8;" horiz-adv-x="287" 
d="M287 903v-40c0 -36 -15 -69 -43 -91c-26 -21 -61 -32 -100 -32c-40 0 -75 11 -100 32c-29 22 -44 55 -44 91v40h80v-40c0 -32 33 -43 64 -43c30 0 63 11 63 43v40h80z" />
    <glyph glyph-name="caron" unicode="&#x2c7;" horiz-adv-x="279" 
d="M279 879l-140 -139l-139 139l57 57l82 -83l83 83z" />
    <glyph glyph-name="cedilla" unicode="&#xb8;" horiz-adv-x="216" 
d="M144 80v-80c15 -6 29 -14 40 -26c21 -20 32 -49 32 -80c0 -32 -11 -61 -32 -81c-20 -21 -49 -32 -80 -32c-23 0 -45 6 -63 17c-18 12 -33 29 -41 49l74 31c6 -14 19 -17 30 -17c21 0 32 11 32 33c0 21 -11 32 -32 32h-40v154h80z" />
    <glyph glyph-name="circumflex" unicode="&#x2c6;" horiz-adv-x="279" 
d="M139 823l-82 -83l-57 57l139 139l140 -139l-57 -57z" />
    <glyph glyph-name="dieresis" unicode="&#xa8;" horiz-adv-x="230" 
d="M50 840c27 0 50 -23 50 -50c0 -28 -23 -50 -50 -50c-28 0 -50 22 -50 50c0 27 22 50 50 50zM180 840c27 0 50 -23 50 -50c0 -28 -23 -50 -50 -50c-28 0 -50 22 -50 50c0 27 22 50 50 50z" />
    <glyph glyph-name="dotaccent" unicode="&#x2d9;" horiz-adv-x="100" 
d="M50 840c27 0 50 -23 50 -50c0 -28 -23 -50 -50 -50c-28 0 -50 22 -50 50c0 27 22 50 50 50z" />
    <glyph glyph-name="grave" unicode="`" horiz-adv-x="235" 
d="M235 807l-44 -67l-191 127l44 67z" />
    <glyph glyph-name="hungarumlaut" unicode="&#x2dd;" horiz-adv-x="319" 
d="M174 887l-110 -147l-64 48l110 147zM319 887l-110 -147l-64 48l110 147z" />
    <glyph glyph-name="macron" unicode="&#xaf;" horiz-adv-x="204" 
d="M204 740h-204v80h204v-80z" />
    <glyph glyph-name="ogonek" unicode="&#x2db;" horiz-adv-x="232" 
d="M123 80v-80c-27 0 -43 -16 -43 -43s16 -43 43 -43c13 0 29 3 38 20l71 -37c-20 -39 -61 -63 -109 -63c-35 0 -66 12 -88 35c-23 22 -35 53 -35 88s12 66 35 88c22 23 53 35 88 35z" />
    <glyph glyph-name="ring" unicode="&#x2da;" horiz-adv-x="225" 
d="M113 965c31 0 60 -11 80 -32c21 -20 32 -49 32 -80c0 -32 -11 -61 -32 -81c-20 -21 -49 -32 -80 -32c-32 0 -61 11 -81 32c-21 20 -32 49 -32 81c0 31 11 60 32 80c20 21 49 32 81 32zM113 885c-22 0 -33 -11 -33 -32c0 -22 11 -33 33 -33c21 0 32 11 32 33
c0 21 -11 32 -32 32z" />
    <glyph glyph-name="tilde" unicode="&#x2dc;" horiz-adv-x="308" 
d="M76 901c22 4 45 1 65 -9c22 -12 39 -30 50 -55c8 -19 21 -17 25 -17c5 2 12 5 12 18v40h80v-40c0 -25 -8 -47 -22 -64c-14 -16 -33 -28 -54 -32c-21 -3 -41 -3 -65 9c-22 11 -39 30 -50 54c-8 19 -21 18 -25 18c-5 -2 -12 -6 -12 -18v-40h-80v40c0 24 8 46 22 64
c14 16 33 27 54 32z" />
    <glyph glyph-name="uni0326" unicode="&#x326;" horiz-adv-x="0" 
d="M152 -40v-40c0 -74 -23 -141 -65 -191l-26 -31l-61 51l26 31c30 36 46 85 46 140v40h80z" />
    <glyph glyph-name="uni0312" unicode="&#x312;" horiz-adv-x="0" 
d="M0 563v40c0 74 23 141 65 191l26 31l61 -51l-26 -31c-30 -36 -46 -85 -46 -140v-40h-80z" />
    <glyph glyph-name="dotbelowcomb" unicode="&#x323;" horiz-adv-x="0" 
d="M50 -40c27 0 50 -23 50 -50c0 -28 -23 -50 -50 -50c-28 0 -50 22 -50 50c0 27 22 50 50 50z" />
    <glyph glyph-name="hookabovecomb" unicode="&#x309;" horiz-adv-x="0" 
d="M0 965h40c31 0 60 -11 81 -32c20 -20 31 -49 31 -80c0 -32 -11 -61 -31 -81c-21 -21 -50 -32 -81 -32h-40v80h40c21 0 32 11 32 33c0 21 -11 32 -32 32h-40v80z" />
    <glyph glyph-name="uni031B" unicode="&#x31b;" horiz-adv-x="0" 
d="M184 700v-102c0 -35 -13 -66 -35 -88c-22 -23 -54 -35 -88 -35h-61v80h61c27 0 43 16 43 43v102h80z" />
    <glyph glyph-name="caronaccent" horiz-adv-x="80" 
d="M80 454h-80v246h80v-246z" />
    <glyph glyph-name="upperslashaccent" horiz-adv-x="397" 
d="M397 658l-325 -652l-72 36l326 652z" />
    <glyph glyph-name="lowerslashaccent" horiz-adv-x="358" 
d="M358 482l-289 -483l-69 42l290 483z" />
    <glyph glyph-name="slashaccent" horiz-adv-x="282" 
d="M282 341l-265 -59l-17 78l265 59z" />
    <glyph glyph-name="baraccent" horiz-adv-x="204" 
d="M204 310h-204v80h204v-80z" />
    <glyph glyph-name="longbaraccent" horiz-adv-x="536" 
d="M536 310h-536v80h536v-80z" />
    <glyph glyph-name="breveacuteaccent" horiz-adv-x="319" 
d="M319 1020l-191 -127l-44 67l191 127zM287 903v-40c0 -36 -15 -69 -43 -91c-26 -21 -61 -32 -100 -32c-40 0 -75 11 -100 32c-29 22 -44 55 -44 91v40h80v-40c0 -32 33 -43 64 -43c30 0 63 11 63 43v40h80z" />
    <glyph glyph-name="brevegraveaccent" horiz-adv-x="319" 
d="M235 960l-44 -67l-191 127l44 67zM319 903v-40c0 -36 -15 -69 -43 -91c-26 -21 -61 -32 -100 -32c-40 0 -75 11 -100 32c-29 22 -44 55 -44 91v40h80v-40c0 -32 33 -43 64 -43c30 0 63 11 63 43v40h80z" />
    <glyph glyph-name="brevehookaccent" horiz-adv-x="287" 
d="M98 1138h40c31 0 60 -11 81 -32c20 -20 31 -49 31 -80c0 -32 -11 -61 -31 -81c-21 -21 -50 -32 -81 -32h-40v80h40c21 0 32 11 32 33c0 21 -11 32 -32 32h-40v80zM287 903v-40c0 -36 -15 -69 -43 -91c-26 -21 -61 -32 -100 -32c-40 0 -75 11 -100 32
c-29 22 -44 55 -44 91v40h80v-40c0 -32 33 -43 64 -43c30 0 63 11 63 43v40h80z" />
    <glyph glyph-name="brevetildeaccent" horiz-adv-x="308" 
d="M76 1084c22 4 45 1 65 -9c22 -12 39 -30 50 -55c8 -19 21 -17 25 -17c5 2 12 5 12 18v40h80v-40c0 -25 -8 -47 -22 -64c-14 -16 -33 -28 -54 -32c-21 -3 -41 -3 -65 9c-22 11 -39 30 -50 54c-8 19 -21 18 -25 18c-5 -2 -12 -6 -12 -18v-40h-80v40c0 24 8 46 22 64
c14 16 33 27 54 32zM298 903v-40c0 -36 -15 -69 -43 -91c-26 -21 -61 -32 -100 -32c-40 0 -75 11 -100 32c-29 22 -44 55 -44 91v40h80v-40c0 -32 33 -43 64 -43c30 0 63 11 63 43v40h80z" />
    <glyph glyph-name="circumflexacuteaccent" horiz-adv-x="279" 
d="M256 1053l-191 -127l-44 67l191 127zM139 823l-82 -83l-57 57l139 139l140 -139l-57 -57z" />
    <glyph glyph-name="circumflexgraveaccent" horiz-adv-x="279" 
d="M256 993l-44 -67l-191 127l44 67zM139 823l-82 -83l-57 57l139 139l140 -139l-57 -57z" />
    <glyph glyph-name="circumflexhookaccent" horiz-adv-x="279" 
d="M77 1181h40c31 0 60 -11 81 -32c20 -20 31 -49 31 -80c0 -32 -11 -61 -31 -81c-21 -21 -50 -32 -81 -32h-40v80h40c21 0 32 11 32 33c0 21 -11 32 -32 32h-40v80zM139 823l-82 -83l-57 57l139 139l140 -139l-57 -57z" />
    <glyph glyph-name="circumflextildeaccent" horiz-adv-x="308" 
d="M76 1097c22 4 45 1 65 -9c22 -12 39 -30 50 -55c8 -19 21 -17 25 -17c5 2 12 5 12 18v40h80v-40c0 -25 -8 -47 -22 -64c-14 -16 -33 -28 -54 -32c-21 -3 -41 -3 -65 9c-22 11 -39 30 -50 54c-8 19 -21 18 -25 18c-5 -2 -12 -6 -12 -18v-40h-80v40c0 24 8 46 22 64
c14 16 33 27 54 32zM154 823l-82 -83l-57 57l139 139l140 -139l-57 -57z" />
    <glyph glyph-name="dieresisacuteaccent" horiz-adv-x="235" 
d="M235 987l-191 -127l-44 67l191 127zM53 840c27 0 50 -23 50 -50c0 -28 -23 -50 -50 -50c-28 0 -50 22 -50 50c0 27 22 50 50 50zM183 840c27 0 50 -23 50 -50c0 -28 -23 -50 -50 -50c-28 0 -50 22 -50 50c0 27 22 50 50 50z" />
    <glyph glyph-name="dieresisgraveaccent" horiz-adv-x="235" 
d="M235 927l-44 -67l-191 127l44 67zM53 840c27 0 50 -23 50 -50c0 -28 -23 -50 -50 -50c-28 0 -50 22 -50 50c0 27 22 50 50 50zM183 840c27 0 50 -23 50 -50c0 -28 -23 -50 -50 -50c-28 0 -50 22 -50 50c0 27 22 50 50 50z" />
    <glyph glyph-name="dieresiscaronaccent" horiz-adv-x="279" 
d="M279 979l-140 -139l-139 139l57 57l82 -83l83 83zM74 840c27 0 50 -23 50 -50c0 -28 -23 -50 -50 -50c-28 0 -50 22 -50 50c0 27 22 50 50 50zM204 840c27 0 50 -23 50 -50c0 -28 -23 -50 -50 -50c-28 0 -50 22 -50 50c0 27 22 50 50 50z" />
    <glyph glyph-name="dieresismacronaccent" horiz-adv-x="230" 
d="M217 870h-204v80h204v-80zM50 840c27 0 50 -23 50 -50c0 -28 -23 -50 -50 -50c-28 0 -50 22 -50 50c0 27 22 50 50 50zM180 840c27 0 50 -23 50 -50c0 -28 -23 -50 -50 -50c-28 0 -50 22 -50 50c0 27 22 50 50 50z" />
    </font>
</defs>
</svg>
